<svg xmlns="http://www.w3.org/2000/svg" viewBox="0 0 37.32 41.23">
  <defs>
    <style>
      .cls-1 {
        fill: #3fa9f5;
      }
    </style>
  </defs>
  <g id="レイヤー_2" data-name="レイヤー 2">
    <g id="レイヤー_1-2" data-name="レイヤー 1">
      <path class="cls-1" d="M37.32,3.24V21.61h-.6c-3.8,0-8.64.64-11.33,3.65-2.65,3.37-4.21,8.81-4.55,10.52S20,40.73,18.26,41.2c-3,.53-3.43-7.28-1.8-12.27,3.69-12.31-15.81,3.14-15-8.37a6.88,6.88,0,0,1-.56-7.32s-2.91-3.67,2-7.39c0,0,.51-6.67,8.05-5.3,0,0,4.64-2.19,15,2.14,0,0,2.44,1.38,9.06-.46A1.89,1.89,0,0,1,37.32,3.24Z"/>
    </g>
  </g>
</svg>
