<svg xmlns="http://www.w3.org/2000/svg" viewBox="0 0 798.79 402.04">
  <defs>
    <style>
      .cls-1, .cls-21, .cls-3, .cls-5, .cls-8 {
        fill: #fff;
      }

      .cls-1, .cls-12, .cls-13, .cls-14, .cls-3, .cls-4, .cls-6, .cls-9 {
        stroke: #8a43c6;
      }

      .cls-1, .cls-12, .cls-13, .cls-14, .cls-15, .cls-23, .cls-3, .cls-4, .cls-5, .cls-6, .cls-8, .cls-9 {
        stroke-miterlimit: 10;
      }

      .cls-12, .cls-13, .cls-15, .cls-2, .cls-23 {
        fill: none;
      }

      .cls-23, .cls-3, .cls-4, .cls-5, .cls-6, .cls-9 {
        stroke-width: 0.25px;
      }

      .cls-11, .cls-14, .cls-4 {
        fill: #444;
      }

      .cls-5 {
        stroke: #999;
      }

      .cls-6 {
        font-size: 15px;
      }

      .cls-6, .cls-9 {
        fill: #8a43c6;
      }

      .cls-10, .cls-17, .cls-6 {
        font-family: HiraMaruPro-W4-83pv-RKSJ-H, Hiragino Maru Gothic Pro;
      }

      .cls-7 {
        letter-spacing: -0.5em;
      }

      .cls-8 {
        stroke: #231815;
      }

      .cls-10 {
        font-size: 14.99px;
        letter-spacing: 0.1em;
      }

      .cls-13 {
        stroke-dasharray: 2.99 2.99;
      }

      .cls-15 {
        stroke: #b98fea;
        stroke-dasharray: 2.95 2.95;
      }

      .cls-16 {
        font-size: 13.59px;
        font-family: HiraMaruProN-W4-83pv-RKSJ-H, Hiragino Maru Gothic ProN;
        letter-spacing: 0.1em;
      }

      .cls-17 {
        font-size: 9.12px;
        letter-spacing: 0.04em;
      }

      .cls-18 {
        letter-spacing: 0.16em;
      }

      .cls-19 {
        letter-spacing: 0.1em;
      }

      .cls-20 {
        fill: #29abe2;
      }

      .cls-22 {
        fill: #3f3fa0;
      }

      .cls-23 {
        stroke: #28267f;
      }

      .cls-24 {
        fill: #28267f;
      }
    </style>
  </defs>
  <g id="レイヤー_2" data-name="レイヤー 2">
    <g id="レイヤー_1-2" data-name="レイヤー 1">
      <g>
        <rect class="cls-1" x="58.85" y="56.1" width="281.34" height="281.34"/>
        <rect class="cls-2" width="798.79" height="402.04"/>
        <rect class="cls-2" x="318.52" y="56.1" width="21.43" height="21.43"/>
        <g>
          <g>
            <line class="cls-3" x1="323.18" y1="60.76" x2="335.29" y2="72.87"/>
            <rect class="cls-4" x="329.05" y="58.26" width="0.37" height="17.12" transform="translate(49.18 252.37) rotate(-45)"/>
          </g>
          <g>
            <line class="cls-5" x1="323.18" y1="72.87" x2="335.29" y2="60.76"/>
            <rect class="cls-4" x="320.67" y="66.64" width="17.12" height="0.37" transform="translate(49.18 252.37) rotate(-45)"/>
          </g>
        </g>
        <text class="cls-6" transform="translate(494.6 82.48)">ミスリプを見ると、下に<tspan x="0" y="26.25">ダメねボタンが付いています</tspan><tspan class="cls-7" x="195" y="26.25">。</tspan><tspan x="0" y="78.75">見ていたミスリプが</tspan><tspan class="cls-7" x="135" y="78.75">、</tspan><tspan x="0" y="105">自分もミスリプだと思ったら</tspan><tspan x="0" y="131.25">押して見てください！</tspan><tspan x="0" y="183.75">するとダメねランキングで</tspan><tspan x="0" y="210">反映されるので自分の押したミスリプが</tspan><tspan x="0" y="236.25">何位なのかを見てみましょう！</tspan></text>
        <g>
          <path class="cls-8" d="M440.54,114.8v22.79h-.74c-4.72-.05-10.73.79-14.06,4.53-3.29,4.18-5.22,10.92-5.64,13s-1.09,6.15-3.21,6.73c-3.7.65-4.25-9-2.22-15.22,4.57-15.27-19.61,3.89-18.68-10.38a8.56,8.56,0,0,1-.69-9.09s-3.61-4.55,2.52-9.16c0,0,.63-8.28,10-6.57,0,0,5.74-2.72,18.57,2.65,0,0,3,1.71,11.24-.56C439,113.28,440,113.67,440.54,114.8Z"/>
          <path class="cls-9" d="M440.54,235.64v22.79h-.74c-4.72-.05-10.73.79-14.06,4.53-3.29,4.18-5.22,10.92-5.64,13s-1.09,6.14-3.21,6.73c-3.7.65-4.25-9-2.22-15.22,4.57-15.27-19.61,3.89-18.68-10.38a8.56,8.56,0,0,1-.69-9.09s-3.61-4.55,2.52-9.16c0,0,.63-8.28,10-6.57,0,0,5.74-2.72,18.57,2.65,0,0,3,1.71,11.24-.57C439,234.12,440,234.51,440.54,235.64Z"/>
        </g>
        <text class="cls-10" transform="translate(76.4 230.49)">自分に同意してくれる人以外<tspan x="0" y="20">はいらないってことですか</tspan></text>
        <g>
          <line class="cls-11" x1="58.85" y1="169.63" x2="339.95" y2="169.63"/>
          <g>
            <line class="cls-12" x1="58.85" y1="169.63" x2="60.35" y2="169.63"/>
            <line class="cls-13" x1="63.34" y1="169.63" x2="336.95" y2="169.63"/>
            <line class="cls-12" x1="338.45" y1="169.63" x2="339.95" y2="169.63"/>
          </g>
        </g>
        <line class="cls-14" x1="58.85" y1="279.08" x2="339.95" y2="279.08"/>
        <circle class="cls-9" cx="86.91" cy="193.4" r="10.51"/>
        <path class="cls-8" d="M208.14,302v8.61h-.28c-1.78,0-4.05.3-5.31,1.72a13.77,13.77,0,0,0-2.13,4.92c-.16.8-.41,2.32-1.21,2.54-1.4.25-1.61-3.41-.84-5.74,1.73-5.77-7.41,1.46-7.05-3.93a3.24,3.24,0,0,1-.27-3.43s-1.36-1.72,1-3.46c0,0,.24-3.12,3.77-2.48,0,0,2.17-1,7,1,0,0,1.15.65,4.25-.21A.87.87,0,0,1,208.14,302Z"/>
        <circle class="cls-15" cx="199.52" cy="309.81" r="19.72"/>
        <text class="cls-16" transform="translate(76.4 133.46)">やっぱ気が合う人と遊ぶと楽しいわ</text>
        <line class="cls-9" x1="111.14" y1="87.94" x2="173.87" y2="87.94"/>
        <text class="cls-17" transform="translate(111.14 81.09)">2<tspan class="cls-18" x="6.31" y="0">0</tspan><tspan class="cls-19" x="13.72" y="0">代一般男性</tspan></text>
        <circle class="cls-20" cx="86.91" cy="77.89" r="10.51"/>
        <g>
          <path class="cls-21" d="M85.7,81.76a.49.49,0,0,1-.48-.49.45.45,0,0,1,.4-.44A5.3,5.3,0,0,0,87.75,80a3.58,3.58,0,0,1-1-1.51.46.46,0,0,1,.22-.37h-.41a.43.43,0,0,1-.43-.4,4,4,0,0,1-.85.56V79.5c0,.14,0,.78,0,1.11a1,1,0,0,1-1.14,1.12c-.27,0-1,0-1-.53a.46.46,0,0,1,.46-.47h.07a2.77,2.77,0,0,0,.41,0c.17,0,.21,0,.21-.21V78.73c-.58.3-.68.33-.82.33a.45.45,0,0,1-.16-.88c.36-.16.69-.31,1-.46v-1.4h-.81a.45.45,0,0,1,0-.9h.81V73.93a.48.48,0,0,1,.48-.48.47.47,0,0,1,.48.47v1.5h.57a.43.43,0,0,1,.45.44.44.44,0,0,1-.45.46h-.57v.87l.3-.2a.4.4,0,0,1,.22-.06h.09a.68.68,0,0,1,0-.14.43.43,0,0,1,.24-.38c.64-.33.69-.75.69-1.4v-.31a.87.87,0,0,1,.91-.91l.66,0c1.06,0,1.38.17,1.38,1.24v1a.24.24,0,0,0,0,.09.38.38,0,0,0,.17,0c.4,0,.45,0,.45-.63a.43.43,0,0,1,.45-.41c.19,0,.49.07.49.53,0,1.29-.73,1.4-1.42,1.4-1,0-1.1-.44-1.1-.91,0-.13,0-.28,0-.45v-.92c0-.09,0-.11,0-.11a1.09,1.09,0,0,0-.42,0l-.52,0c-.07,0-.11,0-.11.15,0,1.07-.07,1.76-1.08,2.39h2.71c.71,0,1,.41,1,.76a4.12,4.12,0,0,1-1.13,2,6.35,6.35,0,0,0,1.85.8.48.48,0,0,1,.36.46.48.48,0,0,1-.5.5,6.08,6.08,0,0,1-2.4-1.13A5.43,5.43,0,0,1,85.7,81.76Zm1.77-3.69a.77.77,0,0,1,.12.13,4.26,4.26,0,0,0,.84,1.15,4.21,4.21,0,0,0,.83-1.28Zm-1.25-.75,0,0h-.05A.09.09,0,0,0,86.22,77.32Z"/>
          <path class="cls-21" d="M84.53,78.35c-.83.42-1,.48-1.06.48a.22.22,0,0,1-.23-.22.24.24,0,0,1,.16-.22c.4-.17.77-.34,1.13-.53V76.08h-1a.21.21,0,0,1-.22-.21.2.2,0,0,1,.22-.21h1V73.93a.25.25,0,0,1,.24-.25.24.24,0,0,1,.24.24v1.74h.81a.19.19,0,0,1,.21.2.2.2,0,0,1-.21.22H85v1.53c.23-.13.45-.28.67-.42a.16.16,0,0,1,.09,0,.24.24,0,0,1,.23.22c0,.13-.09.23-1,.72v1.4c0,.14,0,.79,0,1.12v0c0,.51-.23.85-.9.85-.31,0-.73,0-.73-.29A.23.23,0,0,1,83.6,81h0a2.8,2.8,0,0,0,.45.06.39.39,0,0,0,.45-.44Zm1.17,3.18a.25.25,0,0,1-.24-.26c0-.1.06-.19.21-.21A5.33,5.33,0,0,0,88.11,80a4.15,4.15,0,0,1-1.17-1.53c0-.12.15-.21.27-.21a.17.17,0,0,1,.17.09,4.63,4.63,0,0,0,1.06,1.36A4.12,4.12,0,0,0,89.51,78c0-.11-.08-.19-.27-.19H86.52a.19.19,0,0,1-.2-.2.2.2,0,0,1,.2-.21h2.81c.48,0,.73.22.73.53a4.18,4.18,0,0,1-1.26,2A6.3,6.3,0,0,0,91,81a.23.23,0,0,1,.19.23.26.26,0,0,1-.27.27,6.06,6.06,0,0,1-2.4-1.2A5.47,5.47,0,0,1,85.7,81.53Zm4.16-4.7c-.8,0-.86-.3-.86-.67s0-.7,0-1.09v-.28c0-.38-.24-.38-.68-.38h-.54a.34.34,0,0,0-.33.39c0,1,0,1.62-1,2.19a.41.41,0,0,1-.17,0,.26.26,0,0,1-.26-.25.21.21,0,0,1,.12-.18c.74-.37.8-.89.8-1.6v-.31a.65.65,0,0,1,.69-.68l.65,0c1,0,1.15.11,1.15,1,0,.37,0,.74,0,1s.17.34.42.34c.58,0,.69-.16.69-.86a.19.19,0,0,1,.21-.18c.26,0,.26.18.26.3C91.05,76.75,90.53,76.83,89.86,76.83Z"/>
        </g>
        <g>
          <line class="cls-22" x1="219.24" y1="298.65" x2="378.14" y2="185.98"/>
          <g>
            <line class="cls-23" x1="220.47" y1="297.78" x2="378.14" y2="185.98"/>
            <path class="cls-24" d="M219.24,298.65a7.78,7.78,0,0,1,2.43-.26l-1-.72-.34-1.22A7.66,7.66,0,0,1,219.24,298.65Z"/>
          </g>
        </g>
        <g>
          <path class="cls-21" d="M88.94,198.14a.88.88,0,0,1-.59-.24A12.28,12.28,0,0,0,84.59,196a.78.78,0,0,1-.52-.73.75.75,0,0,1,.77-.76,13.31,13.31,0,0,1,4.58,2.11.87.87,0,0,1,.32.68A.83.83,0,0,1,88.94,198.14Zm-1.33-4.26a.83.83,0,0,1-.5-.16A6.94,6.94,0,0,0,85,193a.75.75,0,0,1-.66-.73.8.8,0,0,1,.83-.77,9.62,9.62,0,0,1,2.73.84.87.87,0,0,1,.47.75A.8.8,0,0,1,87.61,193.88Zm.77-2.77A1,1,0,0,1,88,191a9.62,9.62,0,0,0-2.9-.86.71.71,0,0,1-.66-.71.79.79,0,0,1,.83-.77,12.14,12.14,0,0,1,3.39.88.85.85,0,0,1,.51.76A.79.79,0,0,1,88.38,191.11Z"/>
          <path class="cls-21" d="M88.63,197.58a12.42,12.42,0,0,0-3.9-2,.35.35,0,0,1-.23-.33.32.32,0,0,1,.34-.34,13.41,13.41,0,0,1,4.31,2,.44.44,0,0,1,.17.35.41.41,0,0,1-.38.43A.44.44,0,0,1,88.63,197.58Zm-1.27-4.21a7.4,7.4,0,0,0-2.25-.8c-.22,0-.32-.17-.32-.31a.38.38,0,0,1,.41-.34,9.33,9.33,0,0,1,2.53.79.43.43,0,0,1,.25.37.38.38,0,0,1-.37.38A.45.45,0,0,1,87.36,193.37Zm.81-2.75a10.27,10.27,0,0,0-3-.9.3.3,0,0,1-.3-.29.37.37,0,0,1,.41-.35,12.14,12.14,0,0,1,3.21.84.45.45,0,0,1,.27.38.37.37,0,0,1-.35.38A.48.48,0,0,1,88.17,190.62Z"/>
        </g>
      </g>
    </g>
  </g>
</svg>
