<svg xmlns="http://www.w3.org/2000/svg" viewBox="0 0 600 475.95">
  <defs>
    <style>
      .cls-1 {
        fill: none;
      }

      .cls-2 {
        font-size: 23px;
        letter-spacing: 0.1em;
      }

      .cls-2, .cls-3, .cls-6 {
        font-family: TsukuARdGothic-Regular-83pv-RKSJ-H, Tsukushi A Round Gothic;
      }

      .cls-3, .cls-6 {
        font-size: 17px;
      }

      .cls-3 {
        letter-spacing: 0.11em;
      }

      .cls-4 {
        letter-spacing: 0.36em;
      }

      .cls-5 {
        letter-spacing: 0.1em;
      }

      .cls-6 {
        letter-spacing: 0.1em;
      }

      .cls-7 {
        fill: #444;
      }

      .cls-7, .cls-8 {
        stroke: #8a43c6;
        stroke-miterlimit: 10;
      }

      .cls-8 {
        fill: #8a43c6;
      }

      .cls-9 {
        fill: #fff;
      }

      .cls-10, .cls-14 {
        fill: #ff5a79;
      }

      .cls-11 {
        fill: #ffdd67;
      }

      .cls-12 {
        fill: #664e27;
      }

      .cls-13 {
        fill: #eba352;
      }

      .cls-14 {
        fill-rule: evenodd;
      }

      .cls-15 {
        fill: #4c3526;
      }

      .cls-16 {
        fill: #ff717f;
      }

      .cls-17 {
        opacity: 0.8;
        isolation: isolate;
      }
    </style>
  </defs>
  <g id="レイヤー_2" data-name="レイヤー 2">
    <g id="レイヤー_1-2" data-name="レイヤー 1">
      <g>
        <rect class="cls-1" width="600" height="475.95"/>
        <text class="cls-2" transform="translate(37.45 131.85)">今日で講演も最終日なので<tspan x="0" y="40.25">全てを出し切ります！！</tspan></text>
        <text class="cls-3" transform="translate(96.94 52.11)">2<tspan class="cls-4" x="11.7" y="0">0</tspan><tspan class="cls-5" x="27.65" y="0">代女性アイドル</tspan></text>
        <text class="cls-6" transform="translate(92.98 258.43)">ミスリプ</text>
        <line class="cls-7" y1="209.08" x2="600" y2="209.08"/>
        <circle class="cls-8" cx="55.89" cy="46.51" r="22.44"/>
        <circle class="cls-8" cx="56.11" cy="253.12" r="22.44"/>
        <g>
          <path class="cls-9" d="M59.33,261.42a8.81,8.81,0,0,1-2.74-.51,1,1,0,0,1-.66-1,1,1,0,0,1,1-1,1.86,1.86,0,0,1,.34.05,7,7,0,0,0,2.19.46c2.54,0,2.79-3.58,2.79-3.62,0-.31-.07-.43-.49-.43H60c.67.46,1.45,1.31,1.45,1.91a1,1,0,0,1-1,1,.87.87,0,0,1-.79-.51,3.42,3.42,0,0,0-1.06-1.22.71.71,0,0,1-.3-.6.86.86,0,0,1,.23-.57h-2a4.37,4.37,0,0,1,1.68,2.46,1.11,1.11,0,0,1-1.09,1.07.89.89,0,0,1-.85-.65,4.18,4.18,0,0,0-.87-1.56.67.67,0,0,1-.2-.49.92.92,0,0,1,.66-.83H52.4c-1.48,0-2.38-.72-2.41-1.93,0-.82,0-2.5,0-4,0-.63,0-1.23,0-1.73v-.88a2.08,2.08,0,0,1,2.22-2c1.39,0,5.08,0,7.75,0h2.57a.94.94,0,0,1,.69.3.89.89,0,0,1,.23.7.81.81,0,0,1-.23.61.88.88,0,0,1-.67.29h-5v1.1h4.26a.86.86,0,0,1,.87.91.87.87,0,0,1-.87.91H57.57v1h4.26a.91.91,0,0,1,0,1.82H57.57v1H62a2,2,0,0,1,2.31,2.14C64.33,256.89,63.48,261.42,59.33,261.42ZM52,252.5c0,1,.08,1,.67,1h2.92v-1Zm3.59-1.82v-1H52v1Zm0-2.86v-1.1H52.42a.36.36,0,0,0-.39.41c0,.18,0,.42,0,.69ZM49,260.64a1,1,0,0,1-1.07-1,1.05,1.05,0,0,1,.45-.84,4.85,4.85,0,0,0,1.53-2.41,1,1,0,0,1,1-.79,1,1,0,0,1,1,1C51.83,257.72,50.27,260.64,49,260.64Zm4.9-.76a.92.92,0,0,1-1-.95,7.19,7.19,0,0,0-.53-2.19.72.72,0,0,1-.05-.3.89.89,0,0,1,1-.85,1,1,0,0,1,.79.37A7.39,7.39,0,0,1,55,258.8,1.08,1.08,0,0,1,53.86,259.88Z"/>
          <path class="cls-9" d="M48.39,259.65a.6.6,0,0,1,.25-.45,5.26,5.26,0,0,0,1.72-2.7.46.46,0,0,1,.47-.39.48.48,0,0,1,.5.47c0,1-1.46,3.56-2.37,3.56A.54.54,0,0,1,48.39,259.65ZM57.07,252v2h5c1.25,0,1.81.67,1.81,1.64,0,.27-.37,5.24-4.5,5.24a8.38,8.38,0,0,1-2.59-.49.48.48,0,0,1-.31-.47.51.51,0,0,1,.49-.54.86.86,0,0,1,.21,0,7.41,7.41,0,0,0,2.32.47c3,0,3.29-4.05,3.29-4.09,0-.67-.35-1-1-1-2.88,0-6.39,0-9.35,0-1.24,0-1.89-.52-1.91-1.44s0-2.49,0-4c0-1.07,0-2.06,0-2.61a1.58,1.58,0,0,1,1.72-1.52c1.4,0,5.08,0,7.75,0h2.57a.42.42,0,0,1,.43.45.4.4,0,0,1-.41.45H57.07v2.1h4.76a.37.37,0,0,1,.37.41.38.38,0,0,1-.37.41H57.07v2h4.76a.37.37,0,0,1,.37.41.38.38,0,0,1-.37.41Zm-1-2.86H51.49v2h4.59Zm0,2.86H51.49c0,1.68,0,2,1.17,2h3.42Zm0-5.78H52.42a.87.87,0,0,0-.89.89c0,.28,0,.7,0,1.21h4.57Zm-2.67,12.71a7.93,7.93,0,0,0-.56-2.37.25.25,0,0,1,0-.12c0-.21.21-.35.47-.35a.58.58,0,0,1,.41.19,7.31,7.31,0,0,1,.74,2.52.58.58,0,0,1-.59.58A.42.42,0,0,1,53.41,258.93Zm3.72-.5a.39.39,0,0,1-.37-.3,4.75,4.75,0,0,0-1-1.73.24.24,0,0,1-.08-.17c0-.22.28-.39.53-.39.56,0,1.48,1.81,1.48,2A.62.62,0,0,1,57.13,258.43Zm3.33-.63a.41.41,0,0,1-.35-.23,3.83,3.83,0,0,0-1.2-1.4.22.22,0,0,1-.1-.2.47.47,0,0,1,.48-.41c.3,0,1.7,1.13,1.7,1.74A.53.53,0,0,1,60.46,257.8Z"/>
        </g>
        <g>
          <path class="cls-9" d="M53.32,54.75a1,1,0,0,1-1-1,1,1,0,0,1,.85-1,10.92,10.92,0,0,0,4.54-1.87,7.64,7.64,0,0,1-2.22-3.23.91.91,0,0,1,.48-.78l-.88,0a.9.9,0,0,1-.92-.85,8.7,8.7,0,0,1-1.83,1.19v2.68c0,.31,0,1.68,0,2.38a2.16,2.16,0,0,1-2.43,2.38c-.56,0-2,0-2-1.12a1,1,0,0,1,1-1H49a6.48,6.48,0,0,0,.88.11c.35,0,.44,0,.45-.45V48.28c-1.24.63-1.47.71-1.76.71a1,1,0,0,1-1-1,1,1,0,0,1,.64-.93c.78-.33,1.48-.66,2.11-1v-3H48.57a1,1,0,1,1,0-1.92h1.74l0-3.17a1,1,0,0,1,1-1,1,1,0,0,1,1,1v3.2h1.24a1,1,0,0,1,0,1.92H52.32V45l.65-.42a.86.86,0,0,1,.47-.14.65.65,0,0,1,.2,0,1.35,1.35,0,0,1,0-.28.94.94,0,0,1,.51-.83c1.36-.69,1.46-1.59,1.46-3v-.66a1.87,1.87,0,0,1,2-1.94c.39,0,.86,0,1.4,0,2.25,0,3,.36,3,2.64,0,.42,0,.84,0,1.24s0,.7,0,1a.31.31,0,0,0,0,.17.76.76,0,0,0,.37,0c.85,0,1,0,1-1.33a.91.91,0,0,1,1-.89c.39,0,1,.15,1,1.14,0,2.74-1.56,3-3,3-2.07,0-2.35-.93-2.35-1.94,0-.26,0-.6,0-1s0-.9,0-1.35v-.61a.43.43,0,0,0,0-.24,2.55,2.55,0,0,0-.9-.08c-.43,0-.85,0-1.11,0s-.24,0-.24.32c0,2.29-.16,3.77-2.3,5.1h5.79c1.51,0,2,.88,2,1.63a8.8,8.8,0,0,1-2.41,4.21,13.32,13.32,0,0,0,3.94,1.69,1,1,0,0,1,.79,1,1.06,1.06,0,0,1-1.09,1.07,12.88,12.88,0,0,1-5.11-2.42A11.75,11.75,0,0,1,53.32,54.75Zm3.76-7.88a.88.88,0,0,1,.26.28,9.3,9.3,0,0,0,1.8,2.45,9.06,9.06,0,0,0,1.77-2.73Zm-2.66-1.6.1-.09-.13,0Z"/>
          <path class="cls-9" d="M50.81,47.46c-1.77.91-2,1-2.26,1a.49.49,0,0,1-.49-.47.5.5,0,0,1,.34-.47c.85-.37,1.65-.74,2.41-1.13V42.63H48.57a.46.46,0,1,1,0-.92h2.24l0-3.68a.51.51,0,0,1,.53-.52.48.48,0,0,1,.5.5v3.7h1.74a.43.43,0,0,1,.44.45.43.43,0,0,1-.44.47H51.82v3.25c.49-.27,1-.59,1.42-.9a.37.37,0,0,1,.2,0,.51.51,0,0,1,.49.46c0,.28-.2.49-2.11,1.54v3c0,.31,0,1.69,0,2.39v.06c0,1.07-.48,1.81-1.93,1.81-.66,0-1.55,0-1.55-.62a.48.48,0,0,1,.46-.51h.08a6.12,6.12,0,0,0,1,.12c.56,0,.93-.21,1-.93Zm2.51,6.79a.53.53,0,0,1-.52-.54.47.47,0,0,1,.44-.47,11.34,11.34,0,0,0,5.22-2.32A8.81,8.81,0,0,1,56,47.65c0-.25.31-.45.56-.45a.39.39,0,0,1,.37.2,10,10,0,0,0,2.26,2.9,8.49,8.49,0,0,0,2.28-3.53c0-.23-.16-.4-.56-.4H58.17c-1.13,0-2.34,0-3.12,0a.44.44,0,0,1,0-.88h6c1,0,1.54.47,1.54,1.13a9,9,0,0,1-2.69,4.28,13.4,13.4,0,0,0,4.6,2.1.54.54,0,0,1,.41.51.56.56,0,0,1-.59.57,13.18,13.18,0,0,1-5.12-2.56A11.66,11.66,0,0,1,53.32,54.25Zm8.88-10c-1.71,0-1.85-.64-1.85-1.44,0-.58,0-1.48,0-2.31v-.61c0-.82-.51-.82-1.44-.82-.45,0-.88,0-1.15,0a.71.71,0,0,0-.7.82c0,2.14-.12,3.47-2.06,4.67a.7.7,0,0,1-.35.12.55.55,0,0,1-.57-.52.43.43,0,0,1,.25-.39c1.58-.8,1.72-1.91,1.72-3.43v-.66a1.37,1.37,0,0,1,1.48-1.44c.39,0,.85,0,1.38,0,2.06,0,2.45.23,2.45,2.14,0,.8,0,1.6,0,2.26s.35.72.9.72c1.24,0,1.46-.35,1.46-1.83a.42.42,0,0,1,.47-.39c.54,0,.54.39.54.64C64.73,44.05,63.62,44.22,62.2,44.22Z"/>
        </g>
        <line class="cls-8" x1="96.94" y1="58.11" x2="255.77" y2="58.11"/>
        <line class="cls-8" x1="96.94" y1="265.38" x2="165.69" y2="265.38"/>
        <g>
          <path d="M46.06,315.3a4.21,4.21,0,0,1-3.91,2.48c-1.89,0-3.71-1.22-3.71-2.62s1.45-2.32,3.87-2.32a11.22,11.22,0,0,1,2.92.43c0-.25,0-.48,0-.73s0-.81,0-1.2c-.25-4.48-.5-6.92-.5-10.07v-.41a.64.64,0,0,1,.69-.69.66.66,0,0,1,.71.64v.05c0,.82-.07,1.65-.07,2.5,0,.46,0,.95,0,1.43l.66,0a5.86,5.86,0,0,0,3-.62.73.73,0,0,1,.41-.11.65.65,0,0,1,.67.64c0,1-2.49,1.26-4,1.26l-.69,0c.07,1.66.19,3.43.28,5.34,0,.48.07,1,.07,1.49,0,.3,0,.6-.05.88.21.09,3.91,1.6,3.91,2.82a.68.68,0,0,1-.64.72.93.93,0,0,1-.65-.33,9.84,9.84,0,0,0-2.83-2Zm-3.85-1.43c-.2,0-2.57,0-2.57,1.29,0,.67,1,1.47,2.44,1.47a2.8,2.8,0,0,0,3-2.23A8.7,8.7,0,0,0,42.21,313.87Z"/>
          <path d="M69,317.53a.62.62,0,0,1-.69-.62.67.67,0,0,1,.62-.67c4.34-.6,6.64-2.76,6.64-4.6,0-1.61-1.56-2.53-3.47-2.53a12.31,12.31,0,0,0-4.44,1.24l-2.43,1.18a1.06,1.06,0,0,1-.42.09.64.64,0,0,1-.67-.62.75.75,0,0,1,.51-.67,39.45,39.45,0,0,1,5.29-2.05,9.1,9.1,0,0,1,2.21-.27c3,0,4.71,1.68,4.71,3.68a4.62,4.62,0,0,1-1.91,3.47A12,12,0,0,1,69,317.53Z"/>
          <g>
            <polygon class="cls-10" points="92.32 313.07 88.73 313.07 87.29 298.54 93.76 298.54 92.32 313.07"/>
            <path class="cls-10" d="M90.52,314.6a2.75,2.75,0,1,1-2.75,2.75A2.76,2.76,0,0,1,90.52,314.6Z"/>
            <polygon class="cls-10" points="102.38 313.07 98.79 313.07 97.35 298.54 103.82 298.54 102.38 313.07"/>
            <path class="cls-10" d="M100.59,314.6a2.75,2.75,0,1,1-2.76,2.75A2.75,2.75,0,0,1,100.59,314.6Z"/>
          </g>
          <path d="M118.55,317.18a8.55,8.55,0,1,1,8.58-8.55A8.55,8.55,0,0,1,118.55,317.18Zm0-15.91a7.36,7.36,0,1,0,7.36,7.36A7.37,7.37,0,0,0,118.55,301.27Z"/>
          <path d="M143.85,317.18a8.55,8.55,0,1,1,8.58-8.55A8.55,8.55,0,0,1,143.85,317.18Zm0-15.91a7.36,7.36,0,1,0,7.36,7.36A7.37,7.37,0,0,0,143.85,301.27Z"/>
          <path d="M164.71,305.48c-1.42,0-2.16-.14-2.16-.83a.57.57,0,0,1,.62-.55,1.28,1.28,0,0,1,.26,0,5.49,5.49,0,0,0,1.24.12,7.16,7.16,0,0,0,1.68-.19c.64-4.16.69-4.37,1.28-4.37a.62.62,0,0,1,.65.62.42.42,0,0,1,0,.19c-.18.67-.41,1.86-.64,3.2a9.9,9.9,0,0,0,2.21-1.15.83.83,0,0,1,.48-.17.65.65,0,0,1,.65.65.81.81,0,0,1-.51.69,19.55,19.55,0,0,1-3.06,1.31c-.41,2.53-.8,5.22-.92,6.18a9.57,9.57,0,0,1,5.91-2.48c2.67,0,4.16,1.54,4.16,3.45a4.86,4.86,0,0,1-1.38,3.22c-1.88,2.12-5.77,2.83-6.37,2.83a.65.65,0,0,1-.73-.6c0-.3.25-.62.76-.69,3.49-.41,6.39-2.37,6.39-4.85,0-1.22-.92-2.21-2.94-2.21a7.37,7.37,0,0,0-5.06,2.35c-.35.36-.55,1-1.08,1.15a.47.47,0,0,1-.16,0c-.4,0-.79-.37-.79-1.06,0-.37.85-6.16,1-7A7.87,7.87,0,0,1,164.71,305.48Z"/>
          <path d="M192.84,310.47c2.67,4.8,3.64,6.69,3.64,7.33a.65.65,0,0,1-.63.69.67.67,0,0,1-.64-.57,39.39,39.39,0,0,0-3.29-6.9,11.07,11.07,0,0,1-2.87,1.29.61.61,0,0,1-.6-.6c0-.23.14-.46.53-.57a15.12,15.12,0,0,0,2.41-1.09c-1.08-2.13-1.17-2.55-1.17-2.73a.56.56,0,0,1,1.1-.14,15.94,15.94,0,0,0,1,2.35l.23-.12c2.82-1.59,4.14-2.32,6-2.32s2.94,1.17,2.94,2.37c0,1.74-1.77,3.42-4.25,3.42-1.27,0-2.51-.43-2.51-1.12a.57.57,0,0,1,.55-.6.7.7,0,0,1,.42.14,2.75,2.75,0,0,0,1.61.43c1.65,0,3-1.08,3-2.25,0-.6-.51-1.31-1.87-1.31s-2.8.62-5.42,2.18Zm2.21-2.81a.53.53,0,0,1-.53-.43,3,3,0,0,0-.85-1.34.45.45,0,0,1-.16-.34.55.55,0,0,1,.57-.49c.58,0,1.61,1.41,1.61,2A.63.63,0,0,1,195.05,307.66Z"/>
          <path d="M220.05,314.47c0-1,.12-1.59.12-2.44,0-.69-.07-2.11-1.61-2.11a5.4,5.4,0,0,0-3.78,2.25,16.53,16.53,0,0,0-1.49,3.2c-.46,1.47-.6,1.74-1.2,1.74a.66.66,0,0,1-.69-.66c0-.48,1.29-3.57,3.8-7.48,4.25-6.62,4.76-7.47,5-7.93a.7.7,0,0,1,.62-.41.71.71,0,0,1,.71.71c0,.28-.2.8-1.44,2.39a69,69,0,0,0-4.14,6.12s0,0,0,0a.61.61,0,0,0,.23-.13,4.41,4.41,0,0,1,2.62-.88c2.6,0,2.62,2.49,2.62,3,0,.78-.13,1.7-.13,2.41,0,1.34.71,1.8,1.58,1.8s3.36-.44,5-4.63a.72.72,0,0,1,1.42.21c0,.81-2.62,5.7-6.6,5.7a2.52,2.52,0,0,1-2.69-2.85Z"/>
          <path d="M243.53,308.31c-.29,3.68-1.1,8.23-7.29,10.12a.85.85,0,0,1-.32,0,.59.59,0,0,1-.6-.62.54.54,0,0,1,.4-.57c5.72-1.59,6.27-5.68,6.5-9a.66.66,0,0,1,1.31,0ZM247.6,307c0,1.79-.09,4.85-.09,7.17v1.27c0,1.1.53,1.54,2.42,1.54,2.82,0,3.24-1.25,3.24-2.85a.57.57,0,0,1,.6-.63.71.71,0,0,1,.71.79c0,3.51-2.51,3.79-4.71,3.79s-3.5-.32-3.5-2.48v-.85c0-2.42.07-5.91.09-7.75l-10.05,0a.53.53,0,0,1-.57-.57.55.55,0,0,1,.57-.58h17.57a.55.55,0,0,1,.58.58.56.56,0,0,1-.58.57Zm-8.83-5.29a.56.56,0,0,1-.57-.6.54.54,0,0,1,.57-.57h12.49a.57.57,0,0,1,.6.57.58.58,0,0,1-.6.6Z"/>
          <path d="M262.17,318.36a.62.62,0,0,1-.65-.6.59.59,0,0,1,.42-.55,16.55,16.55,0,0,0,5.61-3.68,22.21,22.21,0,0,0-2.92-1.64.5.5,0,0,1-.33-.46.61.61,0,0,1,.6-.59,14.11,14.11,0,0,1,3.45,1.84,19.8,19.8,0,0,0,2.39-3.25.6.6,0,0,1,.51-.3.69.69,0,0,1,.69.63c0,.5-1.45,2.34-2.6,3.58,3,2.14,3.06,2.74,3.06,2.88a.75.75,0,0,1-.69.73.57.57,0,0,1-.46-.25,15.16,15.16,0,0,0-2.74-2.51C265.5,317.16,262.74,318.36,262.17,318.36Zm3.67-16.31c-.69,1.08-2.43,3.61-3.21,3.61a.58.58,0,0,1-.6-.55.57.57,0,0,1,.25-.46,14.39,14.39,0,0,0,3.79-5.56.51.51,0,0,1,.49-.3.63.63,0,0,1,.66.57,5.58,5.58,0,0,1-.78,1.66h11.34a.5.5,0,0,1,.53.5.53.53,0,0,1-.55.53ZM277,317.48c-1.65-2.16-1.68-5.61-1.68-8.09,0-.92-.3-1.5-1.33-1.5h-3c-2.69,0-5.88,0-7.84,0a.51.51,0,0,1,0-1c1.87,0,3.82,0,5.75,0s3.8,0,5.43,0a1.92,1.92,0,0,1,2.16,2v.55c0,3.89.28,5.86,1.38,7.24a.88.88,0,0,0,.6.4c.53,0,1-.88,1.15-2.44a.53.53,0,0,1,.55-.46.6.6,0,0,1,.64.6c0,.11-.34,3.56-2.34,3.56A2,2,0,0,1,277,317.48Zm-10.74-12.6a.48.48,0,0,1-.5-.48.47.47,0,0,1,.5-.48h9.61a.46.46,0,0,1,.49.48.47.47,0,0,1-.49.48Z"/>
          <g>
            <circle class="cls-11" cx="295.65" cy="309.32" r="10.78"/>
            <path class="cls-12" d="M294.41,307.85c-.67-1.84-1.68-2.76-2.69-2.76s-2,.92-2.68,2.76c-.06.18.28.52.45.34a3.08,3.08,0,0,1,4.47,0C294.13,308.37,294.47,308,294.41,307.85Z"/>
            <path class="cls-12" d="M302.27,307.85c-.67-1.84-1.68-2.76-2.69-2.76s-2,.92-2.68,2.76c-.06.18.28.52.45.34a3.07,3.07,0,0,1,4.46,0C302,308.37,302.33,308,302.27,307.85Z"/>
            <path class="cls-12" d="M303.56,311.26c0-.29-.22-.65-.85-.74a48.23,48.23,0,0,0-7.06-.48h0a48.18,48.18,0,0,0-7,.48c-.63.09-.85.45-.85.74,0,3.45,1.25,4.53,6.4,4.53h3C302.31,315.79,303.56,314.71,303.56,311.26Z"/>
            <path class="cls-9" d="M301.74,311.53a.27.27,0,0,0-.2-.38,43.49,43.49,0,0,0-11.77,0,.27.27,0,0,0-.2.38l.4,1.05a.53.53,0,0,0,.45.33h10.47a.53.53,0,0,0,.45-.33Z"/>
            <path class="cls-9" d="M295.65,315.07c2.3,0,5.56,0,5.48-.74a3.74,3.74,0,0,0-.11-.46c0-.19-.1-.24-.49-.24h-9.75c-.39,0-.44.05-.49.24a3.74,3.74,0,0,0-.11.46C290.1,315.07,293.36,315.07,295.65,315.07Z"/>
          </g>
          <g>
            <path class="cls-11" d="M319.38,313l2.81.55,2.31-11.83a1.45,1.45,0,0,0-1.12-1.73h0a1.48,1.48,0,0,0-1.7,1.2Z"/>
            <path class="cls-13" d="M323.38,300h0a1.1,1.1,0,0,0-.25,0,1.46,1.46,0,0,1,.87,1.65l-2.31,11.83.5.1,2.31-11.83A1.45,1.45,0,0,0,323.38,300Z"/>
            <path class="cls-11" d="M316.51,313.39h3.39V300.32a1.7,1.7,0,1,0-3.39,0v13.07Z"/>
            <path class="cls-13" d="M318.21,298.54l-.26,0a1.75,1.75,0,0,1,1.44,1.76v13.07h.51V300.32A1.74,1.74,0,0,0,318.21,298.54Z"/>
            <path class="cls-11" d="M314.7,313.33l2.86-.74-3.11-11.91a1.52,1.52,0,0,0-1.82-1.13h0a1.53,1.53,0,0,0-1,1.88Z"/>
            <path class="cls-13" d="M312.63,299.55h0a1.7,1.7,0,0,0-.24.09,1.54,1.54,0,0,1,1.57,1.17l3.11,11.91.49-.13-3.11-11.91A1.52,1.52,0,0,0,312.63,299.55Z"/>
            <path class="cls-11" d="M308.59,302.63a1.4,1.4,0,0,0-.55,1.9L312.8,314l2.41-1.21-4.76-9.44A1.4,1.4,0,0,0,308.59,302.63Z"/>
            <path class="cls-13" d="M308.59,302.63a1.1,1.1,0,0,0-.21.14,1.41,1.41,0,0,1,1.61.78l4.76,9.44.46-.23-4.76-9.44A1.4,1.4,0,0,0,308.59,302.63Z"/>
            <path class="cls-11" d="M329.32,308.34c-.56-1.11-2.37-1-4.21,1-1.29,1.41-1.56,1.85-2.85,1.85v-1.48s-2.77-2.06-8.28-1.12c0,0-3.14.44-3.14,2.07,0,0-.53,4,.57,6.5,1.65,3.73,10.13,4.72,12.8-1.64a15.25,15.25,0,0,1,2.57-3.39C328,310.67,329.93,309.54,329.32,308.34Z"/>
            <path class="cls-13" d="M329.32,308.34a1.28,1.28,0,0,0-.45-.5.67.67,0,0,1,.09.14c.61,1.21-1.37,2.34-2.54,3.76a15.72,15.72,0,0,0-2.57,3.39c-2.32,5.51-9,5.51-11.8,3,2.55,2.88,9.74,3.15,12.16-2.61a15.25,15.25,0,0,1,2.57-3.39C328,310.67,329.93,309.54,329.32,308.34Z"/>
            <path class="cls-13" d="M322.66,311.14c-2.35-.86-6.49.73-5.91,4.91,0-3.92,3.56-4.89,5.51-4.89A3.8,3.8,0,0,0,322.66,311.14Z"/>
          </g>
          <g>
            <path class="cls-14" d="M341,298.56c-4.19.26-6.37,2.63-6.56,6.91h4.22a2.64,2.64,0,0,1,2.42-2.76c1.51-.16,2.95.2,3.38,1.24s-.58,2.41-1.08,3c-.93,1-2.44,1.75-3.22,2.84a7.47,7.47,0,0,0-1,4.19H343a5.35,5.35,0,0,1,.62-2.83c.82-1.11,2-1.64,3.05-2.51a5.28,5.28,0,0,0,2.17-3.42C349.32,300.5,345.49,298.28,341,298.56Z"/>
            <path class="cls-14" d="M341.12,315.47a2.32,2.32,0,1,1-2.35,2.32A2.33,2.33,0,0,1,341.12,315.47Z"/>
          </g>
          <path d="M47.41,348.9a4.45,4.45,0,0,0-3.17,4.23,4,4,0,0,0,4.23,4c.69,0,1.29,0,1.29.73,0,.4-.35.79-1,.79-2,0-5.64-1.48-5.64-5.32a5.74,5.74,0,0,1,1.38-3.51c.07-.1.12-.16.12-.21s0,0,0,0a36,36,0,0,0-4.81,1.54,1,1,0,0,1-.32.07.77.77,0,0,1-.73-.67.73.73,0,0,1,.59-.67l1.43-.41c.64-.19,1.13-.25,1.38-.53a54.5,54.5,0,0,0,5.7-7.61.92.92,0,0,1,.74-.51.74.74,0,0,1,.71.74.72.72,0,0,1-.16.46,78.32,78.32,0,0,1-5.43,6.55c0,.05-.09.07-.09.09s0,0,0,0l.21-.05A43,43,0,0,1,51,347.25a.67.67,0,1,1,0,1.33h-1A15.78,15.78,0,0,0,47.41,348.9Zm-4.6-4a.63.63,0,0,1-.57-.39,5.78,5.78,0,0,0-1.82-2,.45.45,0,0,1-.23-.39.64.64,0,0,1,.65-.6c.69,0,2.66,1.91,2.66,2.74A.7.7,0,0,1,42.81,344.88Z"/>
          <path d="M68.85,359.18a.68.68,0,0,1-.71-.64.71.71,0,0,1,.34-.58c3.63-2.5,5.11-5.75,5.11-8.39,0-.55,0-3.86-2.86-3.86a5.2,5.2,0,0,0-2.36.64c-1.73.9-2.14,1.13-2.53,1.13a.71.71,0,0,1-.74-.69.78.78,0,0,1,.62-.72c.62-.2,1.47-.57,2.14-.87a7.8,7.8,0,0,1,3-.67c4,0,4.11,4.23,4.11,5,0,3.22-1.91,6.9-5.47,9.45A1.11,1.11,0,0,1,68.85,359.18Zm3.63-17.27a16.46,16.46,0,0,1-4.62-1.52.62.62,0,0,1-.37-.55.6.6,0,0,1,.62-.57,1.1,1.1,0,0,1,.44.11,15.9,15.9,0,0,0,4,1.2c.48.07.69.34.69.64A.76.76,0,0,1,72.48,341.91Z"/>
          <path d="M94.54,351.57a.73.73,0,0,1,.69.69c0,.14-1.06,3.52-3.15,3.52-1.17,0-4-1.45-4.37-8.07-.07-1-.09-1.5-.09-2,0-.71,0-1.22.67-1.22s.66.46.66,1.8c0,6.64,2.42,8.07,3.11,8.07.27,0,1-.12,1.9-2.32A.65.65,0,0,1,94.54,351.57Zm8.53-.53a7.42,7.42,0,0,0-2.83-4.74.53.53,0,0,1-.25-.48.57.57,0,0,1,.6-.57c1,0,3.88,3.49,3.88,5.49a.83.83,0,0,1-.78.88A.62.62,0,0,1,103.07,351Z"/>
          <path d="M115.26,357.25a1.3,1.3,0,0,1-1,.6s-.71,0-.71-.55a.9.9,0,0,1,.28-.6c.78-.9,1.86-2,2.64-2.76a90.9,90.9,0,0,0,6.44-7.25s0,0,0,0a.9.9,0,0,0-.26.07,28.78,28.78,0,0,1-5.84,1.89A.72.72,0,0,1,116,348a.65.65,0,0,1,.6-.64,30.69,30.69,0,0,0,4.18-1.11,9.15,9.15,0,0,1,2.53-.73,1,1,0,0,1,1.13,1,1.29,1.29,0,0,1-.35.83c-1.1,1.21-3.26,3.65-6,6.43a2.86,2.86,0,0,1,1.1-.23,2.29,2.29,0,0,1,2.11,1.48,2.49,2.49,0,0,0,2.46,1.77,10.42,10.42,0,0,0,3.89-.81,1.05,1.05,0,0,1,.44-.09.63.63,0,0,1,.66.64.88.88,0,0,1-.66.79,12.82,12.82,0,0,1-4.07.69h-.28a4.47,4.47,0,0,1-.76-.07,3.33,3.33,0,0,1-2.73-2.37,1.62,1.62,0,0,0-1.5-1.11,4.19,4.19,0,0,0-3,2.05Zm8-14.1c-.74,0-3.25-1.49-4-2.11a.61.61,0,0,1-.25-.49.63.63,0,0,1,.64-.59.7.7,0,0,1,.44.16,13.84,13.84,0,0,0,3.43,1.75.65.65,0,0,1,.52.59A.73.73,0,0,1,123.27,343.15Z"/>
          <path d="M139.8,357.89a.8.8,0,0,1-.73-.64,14.79,14.79,0,0,1-.55-4.39,34.82,34.82,0,0,1,.2-3.66c.3-2.85.86-5.61,1-7.15a.63.63,0,0,1,.62-.69.67.67,0,0,1,.67.67v.09c-1,6.41-1.29,8.58-1.29,10.42,0,.87.07,1.6.23,1.6s.21-.18.34-.48c1-2.18,1.06-2.25,1.41-2.25a.54.54,0,0,1,.53.53.63.63,0,0,1-.1.34,35.16,35.16,0,0,0-1.51,3.66,3.17,3.17,0,0,0-.16,1.08,1,1,0,0,1-.21.69A.5.5,0,0,1,139.8,357.89Zm11.07-4.73-.1-1.71c-.07-1-.13-3.1-.2-5.15a16.57,16.57,0,0,1-3,.3c-1.61,0-2.07-.11-2.07-.71a.61.61,0,0,1,.67-.6.65.65,0,0,1,.18,0,6.22,6.22,0,0,0,1.38.12,15.69,15.69,0,0,0,2.85-.3c0-.87,0-1.7,0-2.39,0-.51,0-.94,0-1.27a.58.58,0,0,1,.64-.59c.33,0,.67.2.67.53v0c-.07.78-.07,2.05-.07,3.43.69-.16,1.34-.35,1.91-.53a.8.8,0,0,1,.21-.05.64.64,0,0,1,.62.62.65.65,0,0,1-.58.63c-.71.18-1.44.34-2.16.5,0,2,.09,4,.16,5.27,0,.59.12,1.35.14,2.11,0,.14,0,.3,0,.44.35.16,3.09,1.56,3.09,2.44a.64.64,0,0,1-.63.66.73.73,0,0,1-.48-.23,10.23,10.23,0,0,0-2.09-1.61l-.05.21a4.05,4.05,0,0,1-3.84,2.62c-2,0-3.33-1.45-3.33-2.6,0-1.44,1.75-2.41,3.63-2.41a7.9,7.9,0,0,1,2.51.44Zm-2.53.8c-1.48,0-2.49.67-2.49,1.43s.85,1.42,2.14,1.42a2.75,2.75,0,0,0,2.76-1.91l.07-.36A6.88,6.88,0,0,0,148.34,354Zm6.37-11.27a7.35,7.35,0,0,0-2.21-1.61.43.43,0,0,1-.28-.39.52.52,0,0,1,.55-.48c.56,0,2.88,1.31,2.88,2.14a.54.54,0,0,1-.53.55A.51.51,0,0,1,154.71,342.69Zm1.86-1.65a7.62,7.62,0,0,0-2.26-1.59A.45.45,0,0,1,154,339a.49.49,0,0,1,.52-.46c.79,0,2.6,1.42,2.72,1.54a.8.8,0,0,1,.25.55.57.57,0,0,1-.55.58A.5.5,0,0,1,156.57,341Z"/>
          <path d="M172.6,357.32c-4,0-7.1-1.7-7.1-2.83a.69.69,0,0,1,.69-.69.68.68,0,0,1,.5.25c1.15,1.31,3.22,1.89,5.45,1.89a14.6,14.6,0,0,0,4.35-.69,1.15,1.15,0,0,1,.39-.07.66.66,0,0,1,.71.67.91.91,0,0,1-.71.83A14.76,14.76,0,0,1,172.6,357.32Zm2.65-12.1a1,1,0,0,1-.23,0,19.89,19.89,0,0,0-3.89-.39,19.56,19.56,0,0,0-3.5.32.65.65,0,0,1-.2,0,.62.62,0,0,1-.67-.62c0-.32.23-.66.78-.73a30.32,30.32,0,0,1,4-.26c4.07,0,4.43.49,4.43,1A.68.68,0,0,1,175.25,345.22Z"/>
          <path d="M197.74,344.79c0,2.14-3,10.78-6.12,10.78-1.19,0-3-1.56-3-4.28a8.54,8.54,0,0,1,8.81-8.11c4,0,7.43,2.53,7.43,6.57,0,5.66-6.28,7.5-7.08,7.5a.7.7,0,0,1-.79-.64c0-.28.21-.58.69-.67,3.11-.67,5.87-2.81,5.87-6.28,0-3.22-2.85-5.47-6.14-5.47A.63.63,0,0,1,197.74,344.79Zm-7.91,6.41c0,1.57.94,3,1.86,3,1.57,0,4.42-5.52,4.74-9.38a.78.78,0,0,1,.23-.58A7.46,7.46,0,0,0,189.83,351.2Z"/>
          <path d="M213.08,358.42c.16-4.28.14-11.68.16-16.65,0-2,1.55-2,3.59-2,.78,0,1.59,0,2,0a1.73,1.73,0,0,1,1.88,1.56c0,.65,0,1.43,0,2.19,0,.53,0,1.06,0,1.52,0,1.86-1.47,1.86-4.34,1.86-.67,0-1.38,0-2-.05v2.32c0,2.67,0,5.87-.09,9.18a.58.58,0,0,1-.65.57.56.56,0,0,1-.62-.52Zm6.6-15.52c0-2,0-2.11-2.6-2.11s-2.64.11-2.64,2.11Zm-5.24.92v2.12c.6,0,1.59,0,2.48,0,2.69,0,2.74,0,2.74-2.16Zm9.27,12.46c-.67.05-1.29.07-1.91.07s-1.08,0-1.66-.07c-1.33-.09-2.14-.85-2.16-1.86v-1c0-1.06,0-2.27.07-3.22a2,2,0,0,1,2-1.81c.69,0,1.28,0,1.88,0s1.18,0,1.77,0a1.93,1.93,0,0,1,2,1.7c.07.87.09,1.93.09,2.92,0,.5,0,1,0,1.38A2,2,0,0,1,223.71,356.28Zm1-5.84c0-1.1-1.12-1.12-2.5-1.12-.58,0-1.2,0-1.75,0a1.21,1.21,0,0,0-1.31,1.08c0,.32-.05.83-.05,1.33h5.64Zm-5.61,2.23v1.08c0,1.34.35,1.57,2.85,1.57,1.45,0,2.76,0,2.81-1.18v-1.47Zm8.65-5.72c-1,0-1.93,0-2.46-.05-1.47-.07-2-.85-2-1.81,0-.44,0-.95,0-1.48,0-.76,0-1.54.05-2.23,0-.85.66-1.51,1.84-1.56.43,0,1.29,0,2.11,0,.62,0,1.2,0,1.59,0,1.68.07,2.16,1,2.16,1.86.05,3.91.05,8.14.05,11.61,0,1.11,0,2.1,0,2.9,0,1.4-.48,2.67-3.06,2.67-1.84,0-2-.23-2-.69a.57.57,0,0,1,.55-.6h.09a10.31,10.31,0,0,0,1.52.14c1.1,0,1.63-.39,1.65-1.66,0-.29,0-.71,0-7.72V346.9C229.16,347,228.42,347,227.71,347Zm2-4.05c0-2.11-.23-2.11-2.67-2.11-2.73,0-2.73,0-2.73,2.11Zm-5.4.92c0,2.14,0,2.16,2.85,2.16.94,0,2,0,2.6,0,0-.79,0-1.5,0-2.12Z"/>
          <path d="M238.36,349.5a.53.53,0,0,1-.53-.55.55.55,0,0,1,.55-.58h1.38c1.57,0,2.74.14,2.74,1.89,0,1.36-.05,2.87-.05,4.55,1.43,1.82,3.13,2.74,7.68,2.74,2.3,0,4.76-.25,6.58-.39h.07a.61.61,0,0,1,.64.62.67.67,0,0,1-.69.64,58.32,58.32,0,0,1-5.84.3c-5.29,0-7-.76-9-3a10.4,10.4,0,0,1-3.75,2.9.7.7,0,0,1-.67-.67.62.62,0,0,1,.35-.53,12.34,12.34,0,0,0,3.47-2.67c0-1.17,0-2.25,0-3.22v-1c0-.62-.27-1-1.05-1Zm3.47-5.82a9.59,9.59,0,0,0-2.87-2.16.43.43,0,0,1-.28-.39.68.68,0,0,1,.67-.6c.76,0,3,1.75,3.38,2.16a.81.81,0,0,1,.21.53.71.71,0,0,1-.65.69A.61.61,0,0,1,241.83,343.68ZM251,349a10.64,10.64,0,0,0,5.34,5.29.57.57,0,0,1,.39.53.69.69,0,0,1-.69.66c-.67,0-4.35-2.34-5.8-5.93a9.77,9.77,0,0,1-5.72,6.07.64.64,0,0,1-.65-.6.52.52,0,0,1,.33-.46c2.92-1.45,4.43-3.26,5.08-5.56l-4.49,0a.51.51,0,0,1-.53-.53.5.5,0,0,1,.53-.5h4.72a13.46,13.46,0,0,0,.18-2v-1h-4.07a.51.51,0,0,1-.55-.53.5.5,0,0,1,.55-.5h5.13a24.27,24.27,0,0,0,2-3.82.6.6,0,0,1,.58-.41.68.68,0,0,1,.69.62,25.4,25.4,0,0,1-2.07,3.61h3.19a.48.48,0,0,1,.51.5.49.49,0,0,1-.51.53h-4.3a24.72,24.72,0,0,1-.25,2.95h5.54a.48.48,0,0,1,.49.5.49.49,0,0,1-.49.53ZM248,343a8.8,8.8,0,0,0-1.8-2.26.42.42,0,0,1-.16-.32.62.62,0,0,1,.62-.55c.6,0,2.39,2.14,2.39,2.8a.64.64,0,0,1-.59.65A.49.49,0,0,1,248,343Z"/>
          <path d="M271.39,357.78a.62.62,0,0,1-.69-.62.67.67,0,0,1,.62-.67c4.34-.6,6.64-2.76,6.64-4.6,0-1.61-1.56-2.53-3.47-2.53a12.31,12.31,0,0,0-4.44,1.24l-2.43,1.18a1.06,1.06,0,0,1-.42.09.63.63,0,0,1-.66-.62.74.74,0,0,1,.5-.67,39.45,39.45,0,0,1,5.29-2.05,9.1,9.1,0,0,1,2.21-.27c3,0,4.71,1.68,4.71,3.68a4.62,4.62,0,0,1-1.91,3.47A12,12,0,0,1,271.39,357.78Z"/>
          <path d="M292.89,345.61a5.9,5.9,0,0,1-2.14-.36.69.69,0,0,1-.39-.62.52.52,0,0,1,.53-.58.79.79,0,0,1,.3.07,6,6,0,0,0,2,.32,8.44,8.44,0,0,0,1.87-.21,8.14,8.14,0,0,0,.16-1.54,12.45,12.45,0,0,0-.09-1.31v-.09a.56.56,0,0,1,.62-.57c.57,0,.76.39.76,1.49a8.71,8.71,0,0,1-.16,1.66,9.68,9.68,0,0,0,1.88-.92.53.53,0,0,1,.32-.1.68.68,0,0,1,.65.63c0,.29-.23.82-3.15,1.65a89.17,89.17,0,0,1-4.4,12,.82.82,0,0,1-.73.51.61.61,0,0,1-.65-.62,1.35,1.35,0,0,1,.14-.53,73.92,73.92,0,0,0,4.33-11A10.11,10.11,0,0,1,292.89,345.61Zm10.19,11.89c-3.24,0-5.2-1.45-5.2-2.23a.7.7,0,0,1,.67-.69.62.62,0,0,1,.48.26,4.25,4.25,0,0,0,3.54,1.28,18,18,0,0,0,2.49-.2h.14a.62.62,0,0,1,.66.64C305.86,357.11,305.36,357.5,303.08,357.5Zm2.39-9.59a9.41,9.41,0,0,0-3.17-.57,5.81,5.81,0,0,0-2.05.32.8.8,0,0,1-.21,0,.54.54,0,0,1-.52-.56c0-.89,2.29-1,3-1a10.16,10.16,0,0,1,3.34.55.63.63,0,0,1,.44.6.58.58,0,0,1-.56.62A.74.74,0,0,1,305.47,347.91Z"/>
          <path d="M319.46,350.26v-.05c0-.92.07-2,.07-3.22,0-1.79,0-3.68-.12-5v0a.62.62,0,0,1,.67-.62.65.65,0,0,1,.67.62c.06,1.29.09,3.29.09,5.13,0,1.15,0,2.28,0,3.1a.72.72,0,0,1-.71.76A.62.62,0,0,1,319.46,350.26Zm7.79-7.68c0,1.82.07,3.86.07,5.49,0,3.91-1.17,7.82-5.95,10.56a1.2,1.2,0,0,1-.56.16.62.62,0,0,1-.64-.62.73.73,0,0,1,.41-.64c4.37-2.42,5.38-5.78,5.38-9.41,0-1.84-.11-4.69-.11-6.55a.67.67,0,0,1,.69-.72.66.66,0,0,1,.71.67Z"/>
          <path d="M345.15,351.82a7.88,7.88,0,0,0-1.61-2.09.48.48,0,0,1-.19-.39.67.67,0,0,1,.65-.62c.6,0,2.37,2.21,2.37,2.8a.69.69,0,0,1-.67.69A.61.61,0,0,1,345.15,351.82Zm0,6.6a.57.57,0,0,1-.6-.6.61.61,0,0,1,.42-.59,13.11,13.11,0,0,0,7.72-9.18.64.64,0,0,1,.63-.53.7.7,0,0,1,.71.67,15.15,15.15,0,0,1-8.46,10.14A1,1,0,0,1,345.1,358.42Zm3.18-7.84A7.74,7.74,0,0,0,347,348.3a.49.49,0,0,1-.14-.32.62.62,0,0,1,.62-.57c.76,0,2.07,2.5,2.07,3a.67.67,0,0,1-.67.66A.6.6,0,0,1,348.28,350.58Z"/>
          <path d="M367.76,345a.66.66,0,0,1-.67-.67.63.63,0,0,1,.67-.64c2.14-.1,5-.14,7.47-.14,1.08,0,2.12,0,3,0,1.34,0,2.12.76,2.12,1.82a3,3,0,0,1-.16.85c-1.59,4.57-4.46,9-10.83,11.45a1.38,1.38,0,0,1-.49.09.66.66,0,0,1-.73-.64.78.78,0,0,1,.62-.74c7.52-2.39,10.05-9.68,10.05-10.83,0-.76-.46-.8-2.23-.8-2.44,0-6,.13-8.81.23Zm14.46-1.34a2.29,2.29,0,0,1,0-4.57,2.29,2.29,0,1,1,0,4.57Zm0-3.72a1.44,1.44,0,0,0,0,2.87,1.46,1.46,0,0,0,1.47-1.42A1.49,1.49,0,0,0,382.22,339.89Z"/>
          <path d="M392.14,358.42l.3-12.53c-2.35,3.49-2.95,3.54-3.15,3.54a.58.58,0,0,1-.6-.57.63.63,0,0,1,.21-.49,21.72,21.72,0,0,0,5.35-8.69.59.59,0,0,1,.56-.44.71.71,0,0,1,.73.65,26,26,0,0,1-1.88,4.05l-.28,14.48a.6.6,0,0,1-.64.58.56.56,0,0,1-.6-.55ZM402.85,343v2.21c1.18,0,2.3,0,3.2,0,1.26,0,1.89.72,1.93,1.43,0,.32,0,.76,0,1.19s0,.85,0,1.2c0,.92-.76,1.61-2,1.65-.92.05-2.07.05-3.27.05a10.26,10.26,0,0,1-1.31,4.09,12,12,0,0,0,7.45,2.4.57.57,0,0,1,.6.57.69.69,0,0,1-.76.69,12.9,12.9,0,0,1-7.89-2.78,9.76,9.76,0,0,1-5.58,3,.62.62,0,0,1-.62-.64.53.53,0,0,1,.48-.53,7.77,7.77,0,0,0,4.87-2.62,10,10,0,0,1-1.51-1.89c-.37.49-1.61,2-2.14,2a.65.65,0,0,1-.62-.6A.58.58,0,0,1,396,354a6.76,6.76,0,0,0,2.25-2.23.47.47,0,0,1,.35-.18.61.61,0,0,1,.6.53.61.61,0,0,1-.05.18l0,.07a10.14,10.14,0,0,0,1.42,1.79,9.22,9.22,0,0,0,1-3.33c-1.15,0-2.26,0-3.11-.05-1.79-.06-1.81-1.4-1.81-2.27,0-.55,0-1.2,0-1.66a1.68,1.68,0,0,1,1.77-1.54c.92,0,2.07,0,3.26,0V343l-5.19,0a.54.54,0,0,1,0-1.08l5.17,0v-2.23a.59.59,0,0,1,.6-.64.58.58,0,0,1,.57.62V342l5.59,0a.54.54,0,0,1,0,1.08Zm-1.15,3.15c-1.1,0-2.13,0-2.94,0s-1,.51-1,1.8c0,.34,0,.69,0,.9,0,.85.23.91,3.89.91,0-.5.07-1,.07-1.54,0-.29,0-.75,0-1.24Zm1.15,1c0,.51,0,1,0,1.25,0,.48,0,1-.05,1.44,1.11,0,2.17,0,3-.06s1-.62,1-1.43c0-1.47,0-2.09-1.09-2.12-.8,0-1.84,0-2.92,0Z"/>
          <path d="M423.19,357.78a.62.62,0,0,1-.69-.62.67.67,0,0,1,.62-.67c4.34-.6,6.64-2.76,6.64-4.6,0-1.61-1.56-2.53-3.47-2.53a12.31,12.31,0,0,0-4.44,1.24l-2.43,1.18a1.06,1.06,0,0,1-.42.09.64.64,0,0,1-.67-.62.75.75,0,0,1,.51-.67,39.45,39.45,0,0,1,5.29-2.05,9.1,9.1,0,0,1,2.21-.27c3,0,4.71,1.68,4.71,3.68a4.62,4.62,0,0,1-1.91,3.47A12,12,0,0,1,423.19,357.78Z"/>
          <path d="M454.74,357.71c-4.67,0-7.54-3.08-7.54-6.78a8.77,8.77,0,0,1,2.37-5.78c.18-.18.27-.3.27-.34s0-.05-.07-.05a1.47,1.47,0,0,0-.36.09c-2.72.9-6.53,1.91-6.83,1.91a.76.76,0,0,1-.83-.69c0-.3.23-.59.69-.69s1.91-.39,2.67-.57c1.15-.3,3.19-.76,5.61-1.45a34.48,34.48,0,0,1,6.53-1.38.72.72,0,0,1,.76.71c0,.62-.44.69-1.77.76a11.91,11.91,0,0,0-3.59.69,7.63,7.63,0,0,0-4.21,6.56c0,2.87,2,5.54,6.07,5.54h.42c.66,0,1,.34,1,.71S455.59,357.71,454.74,357.71Z"/>
          <path d="M477,358a36,36,0,0,0-5-7.68,3.57,3.57,0,0,1-1-2.26,3.48,3.48,0,0,1,1.27-2.43,39.45,39.45,0,0,0,4.9-5.36.74.74,0,1,1,1.19.85,62.54,62.54,0,0,1-5.15,5.29,2.4,2.4,0,0,0-.92,1.61,2.52,2.52,0,0,0,.69,1.47,45.45,45.45,0,0,1,5.43,7.73,1.09,1.09,0,0,1,.11.43.83.83,0,0,1-.8.81A.7.7,0,0,1,477,358Z"/>
          <path d="M497.27,348.76c3.06-3.19,5.11-4.59,6.76-4.59s2.28,1.35,2.28,3c0,.11,0,.25,0,.37-.09,1.4-.52,4-.64,5.33,0,.23,0,.46,0,.67,0,1.33.43,1.91,1.1,1.91a4.17,4.17,0,0,0,2.53-1.57.8.8,0,0,1,.55-.27.64.64,0,0,1,.6.66c0,.69-2.14,2.44-3.82,2.44-1.26,0-2.23-.9-2.23-3,0-.28,0-.55,0-.85.14-1.24.55-3.82.62-5.25v-.32c0-1.24-.35-2-1.2-2-1.81,0-6.16,4.37-6.66,4.95-.07,1.15-.12,2.3-.12,3.38a28,28,0,0,0,.25,3.95v.12a.7.7,0,0,1-.71.73c-.71,0-.74-.87-.74-2.62,0-1.24.07-2.74.17-4.32a19.47,19.47,0,0,0-1.36,2.18c-1.22,2.26-1.31,2.42-1.89,2.42a.71.71,0,0,1-.71-.6c0-.25.05-.3.71-1.08a59.37,59.37,0,0,0,3.43-5.64l.14-1.77a25.57,25.57,0,0,0-2.6,1.18.82.82,0,0,1-.42.11.55.55,0,0,1-.57-.57.63.63,0,0,1,.37-.56c1-.48,2.3-1,3.33-1.4.19-1.88.35-3.54.49-4.62a.57.57,0,0,1,.59-.55.6.6,0,0,1,.65.53v.09c-.19,1-.42,2.48-.6,4.21.07,0,.11,0,.16,0a.66.66,0,0,1,.71.72c0,.34-.14.69-1.17,2.53Z"/>
          <path d="M520.59,345.61a5.9,5.9,0,0,1-2.14-.36.69.69,0,0,1-.39-.62.52.52,0,0,1,.53-.58.79.79,0,0,1,.3.07,6,6,0,0,0,2,.32,8.44,8.44,0,0,0,1.87-.21,8.14,8.14,0,0,0,.16-1.54,12.45,12.45,0,0,0-.09-1.31v-.09a.56.56,0,0,1,.62-.57c.57,0,.76.39.76,1.49a8,8,0,0,1-.17,1.66A9.5,9.5,0,0,0,526,343a.53.53,0,0,1,.32-.1.68.68,0,0,1,.65.63c0,.29-.23.82-3.15,1.65a89.17,89.17,0,0,1-4.4,12,.82.82,0,0,1-.73.51A.61.61,0,0,1,518,357a1.35,1.35,0,0,1,.14-.53,73.92,73.92,0,0,0,4.33-11A10.11,10.11,0,0,1,520.59,345.61Zm10.19,11.89c-3.24,0-5.2-1.45-5.2-2.23a.7.7,0,0,1,.67-.69.62.62,0,0,1,.48.26,4.25,4.25,0,0,0,3.54,1.28,18,18,0,0,0,2.49-.2h.14a.62.62,0,0,1,.66.64C533.56,357.11,533.06,357.5,530.78,357.5Zm2.39-9.59a9.41,9.41,0,0,0-3.17-.57,5.81,5.81,0,0,0-2,.32.8.8,0,0,1-.21,0,.54.54,0,0,1-.52-.56c0-.89,2.29-1,3-1a10.16,10.16,0,0,1,3.34.55.63.63,0,0,1,.44.6.58.58,0,0,1-.56.62A.74.74,0,0,1,533.17,347.91Z"/>
          <g>
            <polygon class="cls-14" points="546.21 353.32 549.8 353.32 551.24 338.79 544.77 338.79 546.21 353.32"/>
            <ellipse class="cls-10" cx="548.01" cy="357.6" rx="2.75" ry="2.75"/>
            <path class="cls-14" d="M558.52,338.81c-4.18.26-6.37,2.63-6.56,6.91h4.22A2.64,2.64,0,0,1,558.6,343c1.52-.16,2.95.2,3.39,1.24s-.59,2.41-1.09,3c-.93,1-2.44,1.75-3.22,2.84a7.55,7.55,0,0,0-1,4.19h3.72a5.35,5.35,0,0,1,.63-2.83c.81-1.12,2-1.64,3-2.51a5.36,5.36,0,0,0,2.17-3.42C566.81,340.75,563,338.53,558.52,338.81Z"/>
            <path class="cls-14" d="M558.61,355.72a2.32,2.32,0,1,1-2.34,2.32A2.33,2.33,0,0,1,558.61,355.72Z"/>
          </g>
          <path d="M53.85,388.46c-.83,0-5.31-3.95-8.07-6.92a1.18,1.18,0,0,0-.83-.46,1.16,1.16,0,0,0-.85.51c-2.05,2.5-6.92,7.45-8.05,7.45a.64.64,0,0,1-.66-.62.7.7,0,0,1,.36-.6,34.24,34.24,0,0,0,7.45-7.08,2,2,0,0,1,1.61-.83,2.46,2.46,0,0,1,1.73.83,39.64,39.64,0,0,0,7.68,6.41.71.71,0,0,1,.39.6A.76.76,0,0,1,53.85,388.46Zm-15,2.78a.53.53,0,0,1-.57-.57.58.58,0,0,1,.57-.6c.79,0,4.51,0,7.32,0H49c1.35,0,1.93.6,1.93,1.49,0,2.85-5.41,7.41-6.49,7.41a.71.71,0,0,1-.73-.65.65.65,0,0,1,.43-.55c2.51-1.17,5.36-4.55,5.36-5.95,0-.65-.57-.65-1.58-.65-2.44,0-8.17.07-9,.09Zm2.69-4.2a.53.53,0,0,1-.52-.58.52.52,0,0,1,.52-.55h6.95a.51.51,0,0,1,.53.55.52.52,0,0,1-.53.58Z"/>
          <path d="M73.47,398.26c-1,0-2.09,0-3.15,0s-2.09,0-3,0c-1.82-.07-2.88-1-2.92-2.62s-.07-3.84-.07-6.17c0-2.07,0-4.16.07-5.72a2.58,2.58,0,0,1,2.82-2.58c.88,0,2.16,0,3.45,0,1,0,2.07,0,2.88,0a2.6,2.6,0,0,1,2.78,2.58c0,1.42.07,3.61.07,5.77,0,2.39,0,4.76-.07,6A2.69,2.69,0,0,1,73.47,398.26Zm1.63-9.77c0-1.75,0-3.36-.07-4.4s-.41-1.77-1.86-1.81c-.6,0-1.68,0-2.76,0s-2.2,0-2.92,0c-1.26,0-1.86.59-1.91,1.81,0,1.06-.07,2.67-.07,4.4Zm-9.59,1.14c0,2.21,0,4.4,0,5.62s.64,1.81,2.14,1.86c.53,0,1.56,0,2.6,0s2.14,0,2.73,0c1.45-.05,2-.69,2-2s.07-3.38.07-5.5Z"/>
          <path d="M99.53,382.37a2.56,2.56,0,0,1,2.78,2.46c.07,1.4.09,3.52.09,5.63s0,4.14-.07,5.43c0,1.77-1.1,2.67-3.15,2.74-.87,0-1.93,0-3,0-1.49,0-3,0-4.09-.07-2.09-.07-3.13-.87-3.17-2.66,0-1.29,0-3,0-4.79,0-2.18,0-4.46,0-6.18,0-1.5,1-2.53,2.94-2.6.46,0,1.13-.05,1.86-.05.3-1,.65-2.34.74-2.87a.58.58,0,0,1,.64-.44.63.63,0,0,1,.71.58,18.66,18.66,0,0,1-.85,2.73C96.63,382.32,98.47,382.32,99.53,382.37Zm1.63,6.05H90c0,1.24,0,2.57,0,3.81h11.13Zm0-1.06c0-2.92,0-3.86-2.07-4-.92,0-2.3,0-3.61,0s-2.57,0-3.29,0c-1.56.07-2.06.79-2.11,1.87,0,.57,0,1.28,0,2.09ZM90,393.29c0,.92,0,1.75,0,2.35.07,2,1.24,2,5.7,2,4,0,5.29,0,5.34-2,0-.62,0-1.42,0-2.32Z"/>
          <path d="M111.1,389.91a.65.65,0,0,1,.35-.55,13.43,13.43,0,0,0,5.12-5.75.64.64,0,0,1,.6-.41.68.68,0,0,1,.67.66.69.69,0,0,1-.07.3c-1.7,3.45-5.08,6.39-6,6.39A.67.67,0,0,1,111.1,389.91Zm1.34,9.15a.66.66,0,0,1-.69-.64.65.65,0,0,1,.48-.58c5-1.51,6.71-5.24,7.13-9.22-1.08,0-2.14,0-3,0a.52.52,0,0,1-.55-.53.55.55,0,0,1,.58-.55c1.33,0,2.89,0,4.41,0,1.11,0,2.21,0,3.18,0a2.06,2.06,0,0,1,2.32,2.18c0,5.08-.42,9-4.72,9a9,9,0,0,1-2.25-.32.57.57,0,0,1-.41-.58.6.6,0,0,1,.6-.66.71.71,0,0,1,.2,0,8.13,8.13,0,0,0,2,.3c2.5,0,3.35-1.95,3.35-7.27,0-.76-.11-1.61-1.35-1.61l-3,0C119.61,397.75,112.53,399.06,112.44,399.06Zm5.65-17.56h0a.6.6,0,0,1,0-1.2l3.56-.09h.12a2.48,2.48,0,0,1,2.46,1.33,16.56,16.56,0,0,0,6.23,7.24.72.72,0,0,1,.39.63.73.73,0,0,1-.73.73c-1,0-4.95-3.77-6.81-7.77a1.69,1.69,0,0,0-1.73-1h-.11Z"/>
          <path d="M144.61,394c0,1,0,3.66,2.58,3.66a3.9,3.9,0,0,0,3.74-3.93,5.57,5.57,0,0,0-1.79-3.68.77.77,0,0,1-.23-.51.6.6,0,0,1,.64-.55.79.79,0,0,1,.6.28,7,7,0,0,1,2.07,4.53,5.17,5.17,0,0,1-5.06,5c-1.91,0-3.63-1.24-3.72-4v-.62c0-.65,0-1.34.07-2.05a12.93,12.93,0,0,1-2.51-.44.68.68,0,0,1-.6-.64.6.6,0,0,1,.6-.62.74.74,0,0,1,.25.05,11,11,0,0,0,2.35.46c.11-1.34.28-2.74.41-4.05-2.39-.21-3-.58-3-1.1a.61.61,0,0,1,.62-.6.68.68,0,0,1,.28,0,8.52,8.52,0,0,0,2.23.49c.2-2.28.32-3.55.39-4.81a.6.6,0,0,1,.62-.64.69.69,0,0,1,.71.66V381c0,1.13-.23,2.07-.37,3.43l-.13,1.33a7.34,7.34,0,0,0,1.51-.19.86.86,0,0,1,.21,0,.55.55,0,0,1,.6.55c0,.83-1.77.85-2.48.85-.17,1.32-.35,2.67-.46,4a7.41,7.41,0,0,0,2.16-.37,1.28,1.28,0,0,1,.27-.05.6.6,0,0,1,.62.6.62.62,0,0,1-.5.6,9.62,9.62,0,0,1-2.62.41C144.63,392.79,144.61,393.41,144.61,394Z"/>
          <path d="M174.56,395.68c-2.49.14-6.42.14-8.83.14a.74.74,0,0,1-.81-.69.62.62,0,0,1,.69-.62h0c.92,0,2.11.05,3.33.05,2.09,0,4.28-.05,5.38-.12s1.75-.57,1.8-1.52c0-.64,0-1.61,0-2.57,0-1.2,0-2.39,0-3.06a1.36,1.36,0,0,0-1.52-1.43c-.51,0-1.13,0-1.8,0-2.2,0-5,.07-6.92.16h0c-.49,0-.72-.3-.72-.6a.65.65,0,0,1,.69-.62c1.77-.07,4.26-.11,6.4-.11,1,0,1.93,0,2.66,0,1.84.05,2.62,1.08,2.62,2.39,0,4.56,0,5.08,0,6.07C177.48,394.79,176.33,395.59,174.56,395.68Zm3.12-11.79a7.29,7.29,0,0,0-2.07-1.84.41.41,0,0,1-.25-.37.53.53,0,0,1,.58-.46c.46,0,2.76,1.45,2.76,2.32a.59.59,0,0,1-.58.6A.51.51,0,0,1,177.68,383.89Zm2.16-1.41a7.72,7.72,0,0,0-2.11-1.81.46.46,0,0,1-.28-.39.52.52,0,0,1,.55-.46c.51,0,2.86,1.49,2.86,2.32a.58.58,0,0,1-.58.57A.54.54,0,0,1,179.84,382.48Z"/>
          <path d="M187.39,396.21a.75.75,0,0,1,.51-.66c3.68-1.66,5.72-5.16,5.72-9.62v-.55a.64.64,0,0,1,.63-.73c.71,0,.71.62.71,1.05,0,8.07-6.12,11.16-6.85,11.16A.67.67,0,0,1,187.39,396.21ZM198.82,385l-.32,8.67v0c0,.44.21.6.48.6.72,0,4.19-2.14,6.62-6.67a.72.72,0,0,1,.65-.43.66.66,0,0,1,.64.66.74.74,0,0,1-.11.42c-2.62,4.69-6.74,7.51-8.17,7.51a1.36,1.36,0,0,1-1.42-1.47v-.18c.16-2.14.34-7.75.34-9.13a.69.69,0,0,1,.67-.76.63.63,0,0,1,.62.71Z"/>
          <path d="M216,385.2a.66.66,0,1,1,0-1.31c2.14-.1,4.95-.14,7.45-.14,1.09,0,2.12,0,3,0,1.33,0,2.14.78,2.14,1.84a2.73,2.73,0,0,1-.17.83c-1.58,4.57-4.46,9-10.83,11.45a1.3,1.3,0,0,1-.48.09.69.69,0,0,1-.76-.66.81.81,0,0,1,.62-.72,15,15,0,0,0,10.07-10.83c0-.76-.48-.8-2.25-.8-2.44,0-6,.13-8.81.23Z"/>
          <path d="M241.05,398.56l.23-9.38c-.92.78-2.62,2.09-3.06,2.09a.62.62,0,0,1-.6-.62.67.67,0,0,1,.35-.56,18.46,18.46,0,0,0,5.82-5.31.49.49,0,0,1,.43-.25.72.72,0,0,1,.69.69c0,.12,0,.53-2.46,2.9l-.11,10.41a.63.63,0,0,1-.67.58.56.56,0,0,1-.62-.53Zm-2.57-12.9a.59.59,0,0,1-.6-.58.72.72,0,0,1,.39-.6,15.48,15.48,0,0,0,5-4.36.56.56,0,0,1,.5-.28.68.68,0,0,1,.65.64C244.39,381.4,239.28,385.66,238.48,385.66Zm14.46,10.44v.07c0,1.4-.62,2.62-3.24,2.62-2.37,0-2.37-.39-2.37-.78a.56.56,0,0,1,.53-.63h.07a11.7,11.7,0,0,0,1.88.19c1.17,0,1.86-.37,1.86-1.59,0-2.25,0-5.75,0-8.55l-5.75,0a.52.52,0,0,1-.55-.53.53.53,0,0,1,.55-.57H256.2a.55.55,0,1,1,0,1.1l-3.31,0c0,2,0,4.76,0,6.25Zm-6-13.89a.53.53,0,0,1-.57-.53.56.56,0,0,1,.57-.58h7.89a.56.56,0,1,1,0,1.11Z"/>
          <path d="M271.39,398a.62.62,0,0,1-.69-.62.67.67,0,0,1,.62-.67c4.34-.6,6.64-2.76,6.64-4.6,0-1.61-1.56-2.53-3.47-2.53a12.31,12.31,0,0,0-4.44,1.24L267.62,392a1.06,1.06,0,0,1-.42.09.63.63,0,0,1-.66-.62.74.74,0,0,1,.5-.67,39.45,39.45,0,0,1,5.29-2.05,9.1,9.1,0,0,1,2.21-.27c3,0,4.71,1.68,4.71,3.68a4.62,4.62,0,0,1-1.91,3.47A12,12,0,0,1,271.39,398Z"/>
          <path d="M302.94,398c-4.67,0-7.54-3.08-7.54-6.78a8.77,8.77,0,0,1,2.37-5.78c.18-.18.27-.3.27-.34s0-.05-.07-.05a1.47,1.47,0,0,0-.36.09c-2.72.9-6.53,1.91-6.83,1.91a.76.76,0,0,1-.83-.69c0-.3.23-.59.69-.69s1.91-.39,2.67-.57c1.15-.3,3.19-.76,5.61-1.45a34.48,34.48,0,0,1,6.53-1.38.72.72,0,0,1,.76.71c0,.62-.44.69-1.77.76a11.91,11.91,0,0,0-3.59.69,7.63,7.63,0,0,0-4.21,6.56c0,2.87,2,5.54,6.07,5.54h.42c.66,0,1,.34,1,.71S303.79,398,302.94,398Z"/>
          <path d="M325.16,398.26a36,36,0,0,0-5-7.68,3.57,3.57,0,0,1-1-2.26,3.48,3.48,0,0,1,1.27-2.43,39.45,39.45,0,0,0,4.9-5.36.75.75,0,0,1,.64-.39.73.73,0,0,1,.73.73.74.74,0,0,1-.18.51,62.54,62.54,0,0,1-5.15,5.29,2.4,2.4,0,0,0-.92,1.61,2.52,2.52,0,0,0,.69,1.47,45.45,45.45,0,0,1,5.43,7.73,1.09,1.09,0,0,1,.11.43.83.83,0,0,1-.8.81A.7.7,0,0,1,325.16,398.26Z"/>
          <path d="M353.82,392.83c0-2.09-1.89-3-3.91-3a7.86,7.86,0,0,0-6.12,3,.69.69,0,0,1-.57.3.7.7,0,0,1-.72-.64,1,1,0,0,1,.33-.65,83.42,83.42,0,0,0,7.72-8.46s0-.05-.07-.05a.36.36,0,0,0-.16,0c-1.24.39-5.13,1.17-5.26,1.17a.62.62,0,1,1-.05-1.24,53.39,53.39,0,0,0,5.45-1.06,2,2,0,0,1,.53-.07c.64,0,1.1.35,1.1.88s-.13.75-2.71,3.44l-3.17,3.29a9,9,0,0,1,4-1c3.13,0,4.88,1.81,4.88,3.95,0,2.85-2.67,5.29-6.37,5.29-2.7,0-4.24-1.24-4.24-2.62,0-.87.67-2,2.51-2,1.59,0,2.94,1,2.94,3.27v.16A4.46,4.46,0,0,0,353.82,392.83Zm-5,4c0-1.52-.62-2.39-1.7-2.39-1.31,0-1.45.85-1.45,1,0,.78,1,1.56,2.83,1.56h.32Z"/>
          <path d="M374.84,385c0,2.14-3,10.78-6.12,10.78-1.19,0-3-1.56-3-4.28a8.54,8.54,0,0,1,8.81-8.11c4,0,7.43,2.53,7.43,6.57,0,5.66-6.28,7.5-7.08,7.5a.7.7,0,0,1-.79-.64c0-.28.21-.58.69-.67,3.11-.67,5.87-2.81,5.87-6.28,0-3.22-2.85-5.47-6.14-5.47A.63.63,0,0,1,374.84,385Zm-7.91,6.41c0,1.57.94,3,1.86,3,1.57,0,4.42-5.52,4.74-9.38a.78.78,0,0,1,.23-.58A7.46,7.46,0,0,0,366.93,391.45Z"/>
          <path d="M404.1,398c-4.67,0-7.52-3.08-7.52-6.78a9.07,9.07,0,0,1,2.34-5.78c.19-.18.28-.3.28-.34s0-.05-.05-.05a1.51,1.51,0,0,0-.37.09c-2.94,1-6.62,1.91-6.83,1.91a.74.74,0,0,1-.82-.71c0-.28.2-.57.66-.67s1.91-.39,2.67-.57c1.15-.3,3.22-.76,5.63-1.45a39.46,39.46,0,0,1,6.51-1.38.74.74,0,0,1,.78.74c0,.59-.52.66-1.77.73a11.85,11.85,0,0,0-3.58.69,7.63,7.63,0,0,0-4.21,6.56c0,2.87,1.95,5.54,6.07,5.54h.41c.65,0,1,.34,1,.71C405.27,397.32,405.22,398,404.1,398Zm2.18-8.62a7.6,7.6,0,0,0-2.25-1.66.42.42,0,0,1-.3-.39.55.55,0,0,1,.57-.51c.46,0,3,1.31,3,2.17a.59.59,0,0,1-.58.59A.49.49,0,0,1,406.28,389.34Zm2-1.68A7.75,7.75,0,0,0,406,386a.44.44,0,0,1-.32-.41.55.55,0,0,1,.57-.49c.35,0,3,1.22,3,2.17a.56.56,0,0,1-.55.59A.52.52,0,0,1,408.26,387.66Z"/>
          <path d="M43.11,435.52v.23a1.86,1.86,0,0,1-2,2.14c-1,0-3.56-.76-3.56-2.26s3-3.58,4.3-4.37c0-.64,0-1.28,0-1.9s0-1.27,0-1.87a9,9,0,0,1-2.21.28c-1.56,0-1.72-.34-1.72-.74a.57.57,0,0,1,.62-.55.72.72,0,0,1,.25,0,5.81,5.81,0,0,0,.88.09,8.45,8.45,0,0,0,2.2-.35v-1c0-.85,0-1.54,0-2.16a.66.66,0,1,1,1.31-.07v.05c0,.71-.09,1.88-.12,2.8a7.09,7.09,0,0,0,1.75-.94.6.6,0,0,1,.37-.12.62.62,0,0,1,.6.6.79.79,0,0,1-.46.67,13.33,13.33,0,0,1-2.3,1.08c0,1,0,2.25,0,3.54a10.82,10.82,0,0,1,4.9-1.36c1.13,0,5.11.37,5.11,3.59a4.74,4.74,0,0,1-4.88,4.48c-1.15,0-3.36-.55-3.36-1.35a.59.59,0,0,1,.58-.6.62.62,0,0,1,.34.09,6,6,0,0,0,2.6.69A3.44,3.44,0,0,0,51.67,433c0-1.84-2.17-2.51-3.82-2.51a10.3,10.3,0,0,0-4.88,1.4C43,433.15,43,434.42,43.11,435.52Zm-4.3,0c0,.72,1.52,1.22,2.19,1.22s.92-.34.92-1.13,0-2,0-3.15C41.55,432.69,38.81,434.48,38.81,435.54ZM53.34,427a4.84,4.84,0,0,0-3.15-1.12,3.85,3.85,0,0,0-.48,0h-.09a.59.59,0,0,1-.6-.58c0-.45.32-.59,1.11-.59,1.81,0,4.36.87,4.36,1.86a.64.64,0,0,1-.64.64A.76.76,0,0,1,53.34,427Z"/>
          <path d="M61.1,437.82a.54.54,0,0,1-.58-.55.55.55,0,0,1,.58-.58l11.68,0c.16-1.06.35-2.42.53-3.78-1.68,0-5.24,0-6.58,0s-2.11-.74-2.11-1.7a1.89,1.89,0,0,1,.07-.51c.55-2.05,1.42-5.22,2.07-8.67H62.25a.55.55,0,1,1,0-1.1h16a.55.55,0,1,1,0,1.1H68.07c-.23,1.2-.49,2.37-.74,3.47,1.63,0,4.42,0,5.68,0,1.5,0,2.3.8,2.3,1.91,0,.46-1,7.31-1.26,9.34l5.38,0a.53.53,0,0,1,.57.55.54.54,0,0,1-.57.58ZM74,427.63c0-.69-.43-1.08-1.24-1.1H71.36c-1.38,0-3.2,0-4.28,0-.39,1.61-.78,3-1.08,4.12a1.33,1.33,0,0,0,0,.34c0,.48.35.78,1.11.81.13,0,.62,0,6.41,0C73.63,430.67,74,428,74,427.63Z"/>
          <path d="M94.54,432.07a.73.73,0,0,1,.69.69c0,.14-1.06,3.52-3.15,3.52-1.17,0-4-1.45-4.37-8.07-.07-1-.09-1.5-.09-2,0-.71,0-1.22.67-1.22s.66.46.66,1.8c0,6.64,2.42,8.07,3.11,8.07.27,0,1-.12,1.9-2.32A.65.65,0,0,1,94.54,432.07Zm8.53-.53a7.42,7.42,0,0,0-2.83-4.74.53.53,0,0,1-.25-.48.57.57,0,0,1,.6-.57c1,0,3.88,3.49,3.88,5.49a.83.83,0,0,1-.78.88A.62.62,0,0,1,103.07,431.54Z"/>
          <path d="M111.33,438a.58.58,0,0,1-.57-.58.6.6,0,0,1,.2-.44c2.44-2,2.88-5.45,2.9-8.73a.56.56,0,0,1,.58-.56.54.54,0,0,1,.57.53c0,6.51-2.39,8.88-3.17,9.57A.76.76,0,0,1,111.33,438Zm5.45-11.34-5.08,0a.55.55,0,1,1,0-1.1h8.07a.55.55,0,1,1,0,1.1h-1.93v7a16.25,16.25,0,0,0,2-1.27.35.35,0,0,1,.26-.09.57.57,0,0,1,.5.55.53.53,0,0,1-.23.42,22.74,22.74,0,0,1-4.74,2.69.57.57,0,0,1-.57-.58.55.55,0,0,1,.34-.5c.4-.19.88-.39,1.36-.65Zm-4-4.3a.56.56,0,0,1-.58-.55.55.55,0,0,1,.58-.55h5.95a.56.56,0,0,1,.6.55.56.56,0,0,1-.6.55Zm6.9,16.88a.54.54,0,0,1-.6-.55.65.65,0,0,1,.55-.63A8.8,8.8,0,0,0,123.5,436a.5.5,0,0,1,.36-.16.66.66,0,0,1,.6.62C124.46,437.22,120.69,439.27,119.66,439.27Zm6.64-17.43c-.18.66-.53,1.61-.73,2.16.71,0,1.44,0,2.06,0,1.36.05,2,.81,2.05,1.7s.07,2.28.07,3.59c0,1.47,0,3-.07,4.07a1.89,1.89,0,0,1-2,1.82c-.6,0-1.29,0-2,0s-1.38,0-2,0a1.83,1.83,0,0,1-2-1.8c0-1,0-2.36,0-3.74s0-2.79,0-3.91c0-.81.62-1.66,2-1.73l.69,0c.18-.58.41-1.31.6-2.16l-3.89,0a.5.5,0,0,1-.55-.51.55.55,0,0,1,.55-.55h9.11a.5.5,0,0,1,.53.53.51.51,0,0,1-.53.53Zm2.28,5.49c0-.5,0-1,0-1.35,0-1.08-.68-1.13-3-1.13-1.75,0-2.71,0-2.76,1.15,0,.39,0,.85,0,1.33Zm0,.9h-5.77v2.39h5.77Zm-5.77,3.31c0,.62,0,1.2,0,1.66,0,.94.62,1.15,2.67,1.15s3,0,3.05-1.18c0-.46,0-1,0-1.63Zm3.88,4.81a.62.62,0,0,1,.58-.58.48.48,0,0,1,.36.16,8.31,8.31,0,0,0,3.22,2,.56.56,0,0,1,.42.53.66.66,0,0,1-.65.67C129.64,439.13,126.69,436.88,126.69,436.35Z"/>
          <path d="M138,421.47a.51.51,0,0,1-.55-.53.55.55,0,0,1,.57-.55h.65l2.57,0c1.38,0,2,.67,2,1.82v1.63c0,1.24,0,2.39-1.91,2.39l-1.49,0h-.09c-.62,0-.83.23-1,.71,0,0-.34,1.82-.34,2.21s.27.53.87.55h2c1.49,0,1.88.85,1.88,2.14,0,4.85-1.52,7.06-4.18,7.06a6.24,6.24,0,0,1-1.89-.3.55.55,0,0,1-.39-.57.57.57,0,0,1,.57-.63.6.6,0,0,1,.28.05,4.23,4.23,0,0,0,1.38.28c2.48,0,3.06-3.15,3.06-5.75,0-.6-.05-1.24-1-1.24-.59,0-1.42,0-2,0-1.34,0-1.82-.46-1.82-1.31a2.82,2.82,0,0,1,0-.41c.42-3,.62-3.84,2.19-3.84h.18l1.47,0c.92,0,1-.25,1-1.89,0-1.47,0-1.88-1.08-1.88Zm12.6,9.22a10.27,10.27,0,0,0,1,3.22,19.8,19.8,0,0,0,3.11-2,.43.43,0,0,1,.27-.1.63.63,0,0,1,.6.62.55.55,0,0,1-.25.46,17.54,17.54,0,0,1-3.27,1.84,9,9,0,0,0,4,3.34.62.62,0,0,1-.25,1.19c-.51,0-5.38-2.27-6.21-8.55h-2.55v6.14a27.57,27.57,0,0,0,2.8-1.2.65.65,0,0,1,.19,0c.25,0,.46.3.46.57a.51.51,0,0,1-.28.46,30,30,0,0,1-6.83,2.51.55.55,0,0,1-.55-.6.56.56,0,0,1,.44-.57,22.94,22.94,0,0,0,2.66-.74v-6.53h-1.77a.5.5,0,0,1-.5-.53.49.49,0,0,1,.5-.5h1.77c0-.86,0-1.87,0-2.9,0-1.41,0-2.85,0-4,0-1.61.9-2.16,2.53-2.18,1,0,2.74,0,4.26,0h1.72a.5.5,0,0,1,.53.53.53.53,0,0,1-.53.56c-.89,0-2,0-3.06,0s-2.06,0-2.8,0c-1.06,0-1.47.43-1.5,1.4l0,.57h6.53a.45.45,0,0,1,.46.49.46.46,0,0,1-.46.48h-6.55c0,.64,0,1.31,0,2h6.57a.46.46,0,0,1,.46.48.48.48,0,0,1-.46.51H147c0,.73,0,1.42,0,2.07h8.78a.48.48,0,0,1,.49.5.49.49,0,0,1-.49.53Z"/>
          <path d="M169.34,424s.16-.18.25-.32a3.23,3.23,0,0,1,2.69-1.49c3.17,0,3.86,4.39,3.86,6.78a12.38,12.38,0,0,1-5.54,10.32,1.09,1.09,0,0,1-.6.21.62.62,0,0,1-.66-.6.85.85,0,0,1,.48-.71,11.16,11.16,0,0,0,5-9.41c0-1.9-.5-5.54-2.67-5.54-1.24,0-3.35,1.08-3.35,5.54,0,.42,0,.88,0,1.38v.1c0,.57-.34.82-.71.82-.62,0-.71-.46-.71-1.56A22,22,0,0,1,168,425c.27-1.22.69-2.78.87-4.23a.63.63,0,0,1,1.26.07,16.14,16.14,0,0,1-.66,2.8,1.42,1.42,0,0,0-.09.37Z"/>
          <path d="M194.75,439.45c-1.86,0-3.54-1.1-3.54-2.51,0-1.26,1.36-2.39,3.86-2.39a9.36,9.36,0,0,1,2.6.39c0-.73-.07-1.49-.14-2.32s-.13-1.58-.18-2.53a16.7,16.7,0,0,1-3.45.44c-1.08,0-2-.07-2-.78a.57.57,0,0,1,.62-.58.77.77,0,0,1,.25,0,6.29,6.29,0,0,0,1.17.11,17.66,17.66,0,0,0,3.29-.41c-.07-1.2-.11-2.46-.14-3.68a28.41,28.41,0,0,1-3.61.34c-1.33,0-1.72-.14-1.72-.69a.57.57,0,0,1,.64-.57,1,1,0,0,1,.23,0,8,8,0,0,0,1.34.12,19.18,19.18,0,0,0,3.1-.33c0-.57,0-1.15,0-1.65,0-2.19,0-2.65.71-2.65a.68.68,0,0,1,.69.65v0c-.07,1-.12,2.19-.14,3.36.74-.14,1.52-.3,2.39-.51a.47.47,0,0,1,.16,0,.59.59,0,0,1,.6.6c0,.25-.21.53-.64.62l-2.51.46c0,1.22,0,2.46.07,3.63.81-.2,1.7-.46,2.64-.78a.86.86,0,0,1,.3,0,.58.58,0,0,1,.62.57.72.72,0,0,1-.62.69c-1.08.3-2,.55-2.89.76,0,1,.11,1.88.18,2.69s.21,1.91.21,2.83a13.55,13.55,0,0,1,3.26,1.88.81.81,0,0,1,.32.62.7.7,0,0,1-.64.74.73.73,0,0,1-.48-.21,12.72,12.72,0,0,0-2.6-1.77A4,4,0,0,1,194.75,439.45Zm.21-3.84c-.74,0-2.62.28-2.62,1.33,0,.83,1.24,1.36,2.34,1.36a2.87,2.87,0,0,0,2.9-2.18A7.71,7.71,0,0,0,195,435.61Z"/>
          <path d="M218.83,421.24a.7.7,0,0,1,.76.64c0,.12,0,1-.34,5.29-.16,2.12-.35,4-.35,5.93,0,.37,0,.72,0,1.08a2.94,2.94,0,0,0,3.27,2.95,10,10,0,0,0,5.93-2.53.93.93,0,0,1,.6-.25.7.7,0,0,1,.67.73.88.88,0,0,1-.32.65,11.34,11.34,0,0,1-6.83,2.71c-2.53,0-4.51-1.33-4.6-4.26,0-.34,0-.66,0-1,0-2,.23-3.77.33-5.91.06-1.38.2-3.36.2-4.83v-.53A.65.65,0,0,1,218.83,421.24Z"/>
          <path d="M248.25,436.69a3.29,3.29,0,0,1-3,1.91c-.67,0-2.81-.51-2.81-2.07,0-1.4,1.73-1.84,2.92-1.84a7.92,7.92,0,0,1,2,.3v-.37a8.14,8.14,0,0,0,0-.85c-.2-3.24-.39-5-.39-7.31,0-.41,0-1,.62-1a.63.63,0,0,1,.67.62v0c0,.51,0,1,0,1.59,0,.37,0,.76,0,1.15a4.77,4.77,0,0,0,2.44-.44.78.78,0,0,1,.36-.11.63.63,0,0,1,.62.62c0,1-3,1-3.08,1h-.3c.05,1.18.12,2.42.19,3.75,0,.35,0,.74,0,1.13a4.52,4.52,0,0,1,0,.53c1.08.44,2.85,1.38,2.85,2.14a.63.63,0,0,1-.57.66.79.79,0,0,1-.58-.3,7.25,7.25,0,0,0-1.88-1.38Zm-2.95-1c-1,0-1.72.32-1.72.83s1.06,1,1.66,1a1.94,1.94,0,0,0,2-1.45A6.09,6.09,0,0,0,245.3,435.7Z"/>
          <path d="M271.25,439.68a.67.67,0,0,1-.71-.64.71.71,0,0,1,.34-.58c3.63-2.5,5.11-5.75,5.11-8.39,0-.55-.05-3.86-2.86-3.86a5.2,5.2,0,0,0-2.36.64c-1.73.9-2.14,1.13-2.53,1.13a.71.71,0,0,1-.74-.69.78.78,0,0,1,.62-.72c.62-.2,1.47-.57,2.14-.87a7.8,7.8,0,0,1,3-.67c4,0,4.11,4.23,4.11,5,0,3.22-1.91,6.9-5.47,9.45A1.11,1.11,0,0,1,271.25,439.68Zm3.63-17.27a16.46,16.46,0,0,1-4.62-1.52.62.62,0,0,1-.37-.55.6.6,0,0,1,.62-.57,1.1,1.1,0,0,1,.44.11,15.9,15.9,0,0,0,4.05,1.2c.48.07.69.34.69.64A.76.76,0,0,1,274.88,422.41Z"/>
          <g>
            <circle class="cls-11" cx="297.95" cy="430.07" r="10.78"/>
            <path class="cls-12" d="M305,425.53a.21.21,0,0,1-.06.39,8.56,8.56,0,0,0-3,.85,5.44,5.44,0,0,1,3.23,1.74c.14.17,0,.4-.19.34a12.28,12.28,0,0,0-5.7-.73c-.17,0-.32-.08-.29-.25C299.65,425.29,303,424.31,305,425.53Z"/>
            <path class="cls-12" d="M290.89,425.53a.21.21,0,0,0,.06.39,8.56,8.56,0,0,1,3,.85,5.44,5.44,0,0,0-3.23,1.74.2.2,0,0,0,.19.34,12.28,12.28,0,0,1,5.7-.73c.17,0,.32-.08.28-.25C296.26,425.29,292.93,424.31,290.89,425.53Z"/>
            <path class="cls-12" d="M304.31,430.94c-.14-.18-.4-.15-.68-.15H292.28c-.28,0-.54,0-.69.15-1.4,1.79.25,7,6.36,7S305.72,432.73,304.31,430.94Z"/>
            <path class="cls-15" d="M298.62,433.57c-.21,0-.53.19-.41.7.05.26.42.57.42,1a.68.68,0,0,1-1.35,0c0-.42.36-.73.42-1,.12-.51-.2-.71-.41-.7a1.69,1.69,0,0,0-1.49,1.65,2.16,2.16,0,0,0,4.31,0A1.69,1.69,0,0,0,298.62,433.57Z"/>
            <path class="cls-16" d="M295.18,436.77a7.28,7.28,0,0,0,5.55,0,6.82,6.82,0,0,0-5.55,0Z"/>
            <path class="cls-9" d="M303.33,431.5H292.58c-.74,0-.74,1.44,0,1.44h10.79C304.07,432.94,304.07,431.5,303.33,431.5Z"/>
          </g>
          <g>
            <circle class="cls-11" cx="320.95" cy="430.07" r="10.78"/>
            <g class="cls-17">
              <circle class="cls-16" cx="327.71" cy="431.5" r="2.88"/>
            </g>
            <g class="cls-17">
              <circle class="cls-16" cx="314.19" cy="431.5" r="2.88"/>
            </g>
            <path class="cls-12" d="M325.48,433a7.5,7.5,0,0,1-9.05,0c-.35-.24-.66.18-.43.57a5.83,5.83,0,0,0,9.9,0C326.14,433.22,325.83,432.8,325.48,433Z"/>
            <path class="cls-12" d="M319.71,428.22c-.67-1.84-1.68-2.76-2.69-2.76s-2,.92-2.68,2.76c-.06.18.28.52.45.33a3,3,0,0,1,2.23-.95,3,3,0,0,1,2.23.95C319.43,428.74,319.77,428.4,319.71,428.22Z"/>
            <path class="cls-12" d="M327.56,428.22c-.66-1.84-1.67-2.76-2.68-2.76s-2,.92-2.68,2.76c-.06.18.28.52.45.33a3.09,3.09,0,0,1,4.46,0C327.29,428.74,327.63,428.4,327.56,428.22Z"/>
          </g>
          <path class="cls-10" d="M359,425.09c-2.3-6.08-9.76-3.35-10.45-.31-.95-3.24-8.22-5.65-10.44.32-2.48,6.65,9.58,12.61,10.44,13.59C349.41,437.91,361.47,431.63,359,425.09Z"/>
        </g>
      </g>
    </g>
  </g>
</svg>
