<svg xmlns="http://www.w3.org/2000/svg" viewBox="0 0 600 475.95">
  <defs>
    <style>
      .cls-1 {
        fill: none;
      }

      .cls-2 {
        font-size: 23px;
        letter-spacing: 0.1em;
      }

      .cls-2, .cls-3, .cls-6 {
        font-family: TsukuARdGothic-Regular-83pv-RKSJ-H, Tsukushi A Round Gothic;
      }

      .cls-3, .cls-6 {
        font-size: 17px;
      }

      .cls-3 {
        letter-spacing: 0.11em;
      }

      .cls-4 {
        letter-spacing: 0.36em;
      }

      .cls-5 {
        letter-spacing: 0.1em;
      }

      .cls-6 {
        letter-spacing: 0.1em;
      }

      .cls-7 {
        fill: #444;
      }

      .cls-7, .cls-8 {
        stroke: #8a43c6;
        stroke-miterlimit: 10;
      }

      .cls-8 {
        fill: #8a43c6;
      }

      .cls-9 {
        fill: #fff;
      }

      .cls-10 {
        fill: #dde8e3;
      }

      .cls-11 {
        fill: #493b30;
      }

      .cls-12, .cls-13 {
        fill: #ff5a79;
      }

      .cls-12 {
        fill-rule: evenodd;
      }

      .cls-14 {
        fill: #ffdd67;
      }

      .cls-15 {
        opacity: 0.8;
        isolation: isolate;
      }

      .cls-16 {
        fill: #ff717f;
      }

      .cls-17 {
        fill: #664e27;
      }
    </style>
  </defs>
  <g id="レイヤー_2" data-name="レイヤー 2">
    <g id="レイヤー_1-2" data-name="レイヤー 1">
      <g>
        <rect class="cls-1" width="600" height="475.95"/>
        <text class="cls-2" transform="translate(37.45 131.85)">今日もライブです！！</text>
        <text class="cls-3" transform="translate(96.94 52.11)">2<tspan class="cls-4" x="11.7" y="0">0</tspan><tspan class="cls-5" x="27.65" y="0">代女性アイドル</tspan></text>
        <text class="cls-6" transform="translate(92.98 258.43)">ミスリプ</text>
        <line class="cls-7" y1="209.08" x2="600" y2="209.08"/>
        <circle class="cls-8" cx="55.89" cy="46.51" r="22.44"/>
        <circle class="cls-8" cx="56.11" cy="253.12" r="22.44"/>
        <g>
          <path class="cls-9" d="M59.33,261.42a8.81,8.81,0,0,1-2.74-.51,1,1,0,0,1-.66-1,1,1,0,0,1,1-1,1.86,1.86,0,0,1,.34.05,7,7,0,0,0,2.19.46c2.54,0,2.79-3.58,2.79-3.62,0-.31-.07-.43-.49-.43H60c.67.46,1.45,1.31,1.45,1.91a1,1,0,0,1-1,1,.87.87,0,0,1-.79-.51,3.42,3.42,0,0,0-1.06-1.22.71.71,0,0,1-.3-.6.86.86,0,0,1,.23-.57h-2a4.37,4.37,0,0,1,1.68,2.46,1.11,1.11,0,0,1-1.09,1.07.89.89,0,0,1-.85-.65,4.18,4.18,0,0,0-.87-1.56.67.67,0,0,1-.2-.49.92.92,0,0,1,.66-.83H52.4c-1.48,0-2.38-.72-2.41-1.93,0-.82,0-2.5,0-4,0-.63,0-1.23,0-1.73v-.88a2.08,2.08,0,0,1,2.22-2c1.39,0,5.08,0,7.75,0h2.57a.94.94,0,0,1,.69.3.89.89,0,0,1,.23.7.81.81,0,0,1-.23.61.88.88,0,0,1-.67.29h-5v1.1h4.26a.86.86,0,0,1,.87.91.87.87,0,0,1-.87.91H57.57v1h4.26a.91.91,0,0,1,0,1.82H57.57v1H62a2,2,0,0,1,2.31,2.14C64.33,256.89,63.48,261.42,59.33,261.42ZM52,252.5c0,1,.08,1,.67,1h2.92v-1Zm3.59-1.82v-1H52v1Zm0-2.86v-1.1H52.42a.36.36,0,0,0-.39.41c0,.18,0,.42,0,.69ZM49,260.64a1,1,0,0,1-1.07-1,1.05,1.05,0,0,1,.45-.84,4.85,4.85,0,0,0,1.53-2.41,1,1,0,0,1,1-.79,1,1,0,0,1,1,1C51.83,257.72,50.27,260.64,49,260.64Zm4.9-.76a.92.92,0,0,1-1-.95,7.19,7.19,0,0,0-.53-2.19.72.72,0,0,1-.05-.3.89.89,0,0,1,1-.85,1,1,0,0,1,.79.37A7.39,7.39,0,0,1,55,258.8,1.08,1.08,0,0,1,53.86,259.88Z"/>
          <path class="cls-9" d="M48.39,259.65a.6.6,0,0,1,.25-.45,5.26,5.26,0,0,0,1.72-2.7.46.46,0,0,1,.47-.39.48.48,0,0,1,.5.47c0,1-1.46,3.56-2.37,3.56A.54.54,0,0,1,48.39,259.65ZM57.07,252v2h5c1.25,0,1.81.67,1.81,1.64,0,.27-.37,5.24-4.5,5.24a8.38,8.38,0,0,1-2.59-.49.48.48,0,0,1-.31-.47.51.51,0,0,1,.49-.54.86.86,0,0,1,.21,0,7.41,7.41,0,0,0,2.32.47c3,0,3.29-4.05,3.29-4.09,0-.67-.35-1-1-1-2.88,0-6.39,0-9.35,0-1.24,0-1.89-.52-1.91-1.44s0-2.49,0-4c0-1.07,0-2.06,0-2.61a1.58,1.58,0,0,1,1.72-1.52c1.4,0,5.08,0,7.75,0h2.57a.42.42,0,0,1,.43.45.4.4,0,0,1-.41.45H57.07v2.1h4.76a.37.37,0,0,1,.37.41.38.38,0,0,1-.37.41H57.07v2h4.76a.37.37,0,0,1,.37.41.38.38,0,0,1-.37.41Zm-1-2.86H51.49v2h4.59Zm0,2.86H51.49c0,1.68,0,2,1.17,2h3.42Zm0-5.78H52.42a.87.87,0,0,0-.89.89c0,.28,0,.7,0,1.21h4.57Zm-2.67,12.71a7.93,7.93,0,0,0-.56-2.37.25.25,0,0,1,0-.12c0-.21.21-.35.47-.35a.58.58,0,0,1,.41.19,7.31,7.31,0,0,1,.74,2.52.58.58,0,0,1-.59.58A.42.42,0,0,1,53.41,258.93Zm3.72-.5a.39.39,0,0,1-.37-.3,4.75,4.75,0,0,0-1-1.73.24.24,0,0,1-.08-.17c0-.22.28-.39.53-.39.56,0,1.48,1.81,1.48,2A.62.62,0,0,1,57.13,258.43Zm3.33-.63a.41.41,0,0,1-.35-.23,3.83,3.83,0,0,0-1.2-1.4.22.22,0,0,1-.1-.2.47.47,0,0,1,.48-.41c.3,0,1.7,1.13,1.7,1.74A.53.53,0,0,1,60.46,257.8Z"/>
        </g>
        <g>
          <path class="cls-9" d="M53.32,54.75a1,1,0,0,1-1-1,1,1,0,0,1,.85-1,10.92,10.92,0,0,0,4.54-1.87,7.64,7.64,0,0,1-2.22-3.23.91.91,0,0,1,.48-.78l-.88,0a.9.9,0,0,1-.92-.85,8.7,8.7,0,0,1-1.83,1.19v2.68c0,.31,0,1.68,0,2.38a2.16,2.16,0,0,1-2.43,2.38c-.56,0-2,0-2-1.12a1,1,0,0,1,1-1H49a6.48,6.48,0,0,0,.88.11c.35,0,.44,0,.45-.45V48.28c-1.24.63-1.47.71-1.76.71a1,1,0,0,1-1-1,1,1,0,0,1,.64-.93c.78-.33,1.48-.66,2.11-1v-3H48.57a1,1,0,1,1,0-1.92h1.74l0-3.17a1,1,0,0,1,1-1,1,1,0,0,1,1,1v3.2h1.24a1,1,0,0,1,0,1.92H52.32V45l.65-.42a.86.86,0,0,1,.47-.14.65.65,0,0,1,.2,0,1.35,1.35,0,0,1,0-.28.94.94,0,0,1,.51-.83c1.36-.69,1.46-1.59,1.46-3v-.66a1.87,1.87,0,0,1,2-1.94c.39,0,.86,0,1.4,0,2.25,0,3,.36,3,2.64,0,.42,0,.84,0,1.24s0,.7,0,1a.31.31,0,0,0,0,.17.76.76,0,0,0,.37,0c.85,0,1,0,1-1.33a.91.91,0,0,1,1-.89c.39,0,1,.15,1,1.14,0,2.74-1.56,3-3,3-2.07,0-2.35-.93-2.35-1.94,0-.26,0-.6,0-1s0-.9,0-1.35v-.61a.43.43,0,0,0,0-.24,2.55,2.55,0,0,0-.9-.08c-.43,0-.85,0-1.11,0s-.24,0-.24.32c0,2.29-.16,3.77-2.3,5.1h5.79c1.51,0,2,.88,2,1.63a8.8,8.8,0,0,1-2.41,4.21,13.32,13.32,0,0,0,3.94,1.69,1,1,0,0,1,.79,1,1.06,1.06,0,0,1-1.09,1.07,12.88,12.88,0,0,1-5.11-2.42A11.75,11.75,0,0,1,53.32,54.75Zm3.76-7.88a.88.88,0,0,1,.26.28,9.3,9.3,0,0,0,1.8,2.45,9.06,9.06,0,0,0,1.77-2.73Zm-2.66-1.6.1-.09-.13,0Z"/>
          <path class="cls-9" d="M50.81,47.46c-1.77.91-2,1-2.26,1a.49.49,0,0,1-.49-.47.5.5,0,0,1,.34-.47c.85-.37,1.65-.74,2.41-1.13V42.63H48.57a.46.46,0,1,1,0-.92h2.24l0-3.68a.51.51,0,0,1,.53-.52.48.48,0,0,1,.5.5v3.7h1.74a.43.43,0,0,1,.44.45.43.43,0,0,1-.44.47H51.82v3.25c.49-.27,1-.59,1.42-.9a.37.37,0,0,1,.2,0,.51.51,0,0,1,.49.46c0,.28-.2.49-2.11,1.54v3c0,.31,0,1.69,0,2.39v.06c0,1.07-.48,1.81-1.93,1.81-.66,0-1.55,0-1.55-.62a.48.48,0,0,1,.46-.51h.08a6.12,6.12,0,0,0,1,.12c.56,0,.93-.21,1-.93Zm2.51,6.79a.53.53,0,0,1-.52-.54.47.47,0,0,1,.44-.47,11.34,11.34,0,0,0,5.22-2.32A8.81,8.81,0,0,1,56,47.65c0-.25.31-.45.56-.45a.39.39,0,0,1,.37.2,10,10,0,0,0,2.26,2.9,8.49,8.49,0,0,0,2.28-3.53c0-.23-.16-.4-.56-.4H58.17c-1.13,0-2.34,0-3.12,0a.44.44,0,0,1,0-.88h6c1,0,1.54.47,1.54,1.13a9,9,0,0,1-2.69,4.28,13.4,13.4,0,0,0,4.6,2.1.54.54,0,0,1,.41.51.56.56,0,0,1-.59.57,13.18,13.18,0,0,1-5.12-2.56A11.66,11.66,0,0,1,53.32,54.25Zm8.88-10c-1.71,0-1.85-.64-1.85-1.44,0-.58,0-1.48,0-2.31v-.61c0-.82-.51-.82-1.44-.82-.45,0-.88,0-1.15,0a.71.71,0,0,0-.7.82c0,2.14-.12,3.47-2.06,4.67a.7.7,0,0,1-.35.12.55.55,0,0,1-.57-.52.43.43,0,0,1,.25-.39c1.58-.8,1.72-1.91,1.72-3.43v-.66a1.37,1.37,0,0,1,1.48-1.44c.39,0,.85,0,1.38,0,2.06,0,2.45.23,2.45,2.14,0,.8,0,1.6,0,2.26s.35.72.9.72c1.24,0,1.46-.35,1.46-1.83a.42.42,0,0,1,.47-.39c.54,0,.54.39.54.64C64.73,44.05,63.62,44.22,62.2,44.22Z"/>
        </g>
        <line class="cls-8" x1="96.94" y1="58.11" x2="255.77" y2="58.11"/>
        <line class="cls-8" x1="96.94" y1="265.38" x2="165.69" y2="265.38"/>
        <g>
          <path d="M37.87,351.76l.32-13.34c-2.34,3-2.9,3.1-3.1,3.1a.56.56,0,0,1-.6-.53.58.58,0,0,1,.23-.43,23.05,23.05,0,0,0,5.52-7.68.56.56,0,0,1,.53-.37.69.69,0,0,1,.66.64,18.74,18.74,0,0,1-2,3.61l-.3,15a.56.56,0,0,1-.62.57.54.54,0,0,1-.6-.55ZM48.58,347c1.15,2,3.25,3.13,5.75,3.77a.57.57,0,0,1,.46.58.63.63,0,0,1-.66.62,9.79,9.79,0,0,1-6.35-4.49c-1.66,4-6.23,4.65-6.51,4.65a.59.59,0,0,1,0-1.17c3.19-.6,4.8-2,5.54-4l-5.13,0a.51.51,0,0,1,0-1l5.4,0a8.85,8.85,0,0,0,.21-1.84l-4.37,0a.46.46,0,0,1-.48-.48.47.47,0,0,1,.48-.49l4.39,0v-1.8H42.45a.47.47,0,1,1,0-.94h3A5.73,5.73,0,0,0,44.7,339a.3.3,0,0,1-.07-.19c0-.22.3-.41.62-.41.81,0,1.38,1.91,1.4,2a.24.24,0,0,1,0,.14h2.39a7.41,7.41,0,0,0,.64-1.86.48.48,0,0,1,.51-.39c.34,0,.71.23.71.57a7.45,7.45,0,0,1-.69,1.68h3.31A.45.45,0,0,1,54,341a.46.46,0,0,1-.48.48h-5.1c0,.44,0,1.13,0,1.8l4.28,0a.44.44,0,0,1,.46.49.45.45,0,0,1-.46.48l-4.3,0a8.61,8.61,0,0,1-.18,1.84l6,0a.51.51,0,0,1,0,1Zm-.64-9-5.82,0a.51.51,0,0,1-.53-.53.5.5,0,0,1,.53-.5l3.82,0,0-4a.55.55,0,0,1,1.1,0v4h1.66v-4a.52.52,0,0,1,.55-.53.53.53,0,0,1,.55.53v4l4,0a.5.5,0,0,1,.55.5.51.51,0,0,1-.55.53Zm-4.21-2.16A9.19,9.19,0,0,0,42.4,334a.32.32,0,0,1-.07-.2.6.6,0,0,1,.6-.51c.53,0,1.84,1.75,1.84,2.21a.65.65,0,0,1-.62.64A.48.48,0,0,1,43.73,335.87Zm7.64.5a.53.53,0,0,1-.55-.48.47.47,0,0,1,.16-.35,15.15,15.15,0,0,0,1.54-2.2.42.42,0,0,1,.36-.23.69.69,0,0,1,.67.62,10.66,10.66,0,0,1-1.79,2.48A.52.52,0,0,1,51.37,336.37Z"/>
          <path d="M68.71,347.13c0,1,0,3.66,2.58,3.66A3.9,3.9,0,0,0,75,346.86a5.57,5.57,0,0,0-1.79-3.68.8.8,0,0,1-.23-.51.6.6,0,0,1,.64-.55.79.79,0,0,1,.6.28,7,7,0,0,1,2.07,4.53,5.17,5.17,0,0,1-5.06,5c-1.91,0-3.63-1.24-3.72-4v-.62c0-.65,0-1.34.07-2.05a13.74,13.74,0,0,1-2.51-.44.68.68,0,0,1-.6-.64.6.6,0,0,1,.6-.62,1.09,1.09,0,0,1,.25,0,10.41,10.41,0,0,0,2.35.46c.11-1.33.28-2.73.41-4-2.39-.21-3-.58-3-1.11a.61.61,0,0,1,.62-.59.68.68,0,0,1,.28,0,8.13,8.13,0,0,0,2.23.48c.21-2.27.32-3.54.39-4.8a.6.6,0,0,1,.62-.64.69.69,0,0,1,.71.66v.05c0,1.12-.23,2.07-.37,3.42l-.13,1.34a8.1,8.1,0,0,0,1.51-.19.86.86,0,0,1,.21,0,.54.54,0,0,1,.6.55c0,.83-1.77.85-2.48.85-.16,1.31-.35,2.67-.46,4a7.76,7.76,0,0,0,2.16-.37,1.28,1.28,0,0,1,.27-.05.6.6,0,0,1,.62.6.62.62,0,0,1-.5.6,9.62,9.62,0,0,1-2.62.41C68.73,345.91,68.71,346.54,68.71,347.13Z"/>
          <path d="M86.22,352.31a.6.6,0,0,1-.62-.62.57.57,0,0,1,.55-.56,8,8,0,0,0,6.62-4.59.56.56,0,0,1,.53-.42.67.67,0,0,1,.64.64.57.57,0,0,1,0,.26C91.83,351.73,86.31,352.31,86.22,352.31Zm9.33-6.74c-1.29,0-2.55,0-3.63-.07-1.68-.07-2.48-1-2.53-2.21,0-1,0-2.55,0-4s0-3,0-3.89a2.23,2.23,0,0,1,2.34-2.18c1,0,2.1-.05,3.27-.05,1.43,0,2.9,0,4.21.05a2.12,2.12,0,0,1,2.21,2c0,1.08,0,2.57,0,4s0,3,0,4a2.27,2.27,0,0,1-2.35,2.23c-.46,0-.92.05-1.4.05,0,1,0,2.37,0,3.22,0,1.31,0,2,2.76,2,2.19,0,3.45-.37,3.45-2.87a.58.58,0,0,1,.6-.62.69.69,0,0,1,.71.64c0,3.93-2.83,4-4.85,4-1.77,0-3.84-.14-3.89-2.49,0-.66,0-2.62,0-3.86Zm4.74-7.64H90.52c0,.88,0,1.82,0,2.7h9.75Zm0-1c0-1.91,0-2.71-1.61-2.76-.83,0-2,0-3.25,0s-2.41,0-3.31,0a1.41,1.41,0,0,0-1.54,1.4c0,.37,0,.83,0,1.36Zm-9.73,4.62c0,2.23,0,2.83,1.59,2.9,1.08,0,2.25.07,3.44.07s2.1,0,3.11-.07c1.59-.07,1.59-.81,1.59-2.9Z"/>
          <path d="M115.79,339a5.9,5.9,0,0,1-2.14-.36.69.69,0,0,1-.39-.63.52.52,0,0,1,.53-.57.79.79,0,0,1,.3.07,6,6,0,0,0,2,.32,8.44,8.44,0,0,0,1.87-.21,8.14,8.14,0,0,0,.16-1.54,12.45,12.45,0,0,0-.09-1.31v-.09a.57.57,0,0,1,.62-.58c.57,0,.76.4.76,1.5a8,8,0,0,1-.17,1.66,9.5,9.5,0,0,0,1.89-.92.53.53,0,0,1,.32-.1.68.68,0,0,1,.65.62c0,.3-.23.83-3.15,1.66a89.17,89.17,0,0,1-4.4,12,.82.82,0,0,1-.73.51.61.61,0,0,1-.65-.62,1.27,1.27,0,0,1,.14-.53,73.92,73.92,0,0,0,4.33-11A11.05,11.05,0,0,1,115.79,339ZM126,350.88c-3.24,0-5.2-1.45-5.2-2.23a.7.7,0,0,1,.67-.69.63.63,0,0,1,.48.25,4.25,4.25,0,0,0,3.54,1.29,18,18,0,0,0,2.49-.2h.14a.61.61,0,0,1,.66.64C128.76,350.49,128.26,350.88,126,350.88Zm2.39-9.59a9.41,9.41,0,0,0-3.17-.57,5.81,5.81,0,0,0-2,.32.8.8,0,0,1-.21,0,.54.54,0,0,1-.52-.56c0-.89,2.29-1,3-1a10.16,10.16,0,0,1,3.34.55.62.62,0,0,1,.44.6.58.58,0,0,1-.56.62A.74.74,0,0,1,128.37,341.29Z"/>
          <path d="M145.14,345a.73.73,0,0,1,.69.69c0,.14-1.06,3.52-3.15,3.52-1.17,0-4-1.45-4.37-8.07-.07-1-.09-1.5-.09-2,0-.71,0-1.22.67-1.22s.66.46.66,1.8c0,6.64,2.42,8.07,3.11,8.07.27,0,1.05-.12,1.91-2.32A.63.63,0,0,1,145.14,345Zm8.53-.53a7.42,7.42,0,0,0-2.83-4.74.54.54,0,0,1-.25-.48.57.57,0,0,1,.6-.57c1,0,3.88,3.49,3.88,5.49a.82.82,0,0,1-.78.87A.61.61,0,0,1,153.67,344.42Z"/>
          <path d="M166.88,338.1c-.67,0-2.14,0-2.14-.81a.55.55,0,0,1,.57-.57,1.77,1.77,0,0,1,.3,0,5.61,5.61,0,0,0,1.61.21,8.54,8.54,0,0,0,2.16-.28A16.69,16.69,0,0,0,170,334a.6.6,0,0,1,.62-.51.56.56,0,0,1,.62.55,16.54,16.54,0,0,1-.57,2.39,8.75,8.75,0,0,0,1.84-.89.52.52,0,0,1,.34-.12.57.57,0,0,1,.58.55c0,.67-1.52,1.2-3.13,1.68a49.16,49.16,0,0,1-4.37,8.14.85.85,0,0,1-.71.44.58.58,0,0,1-.6-.57.83.83,0,0,1,.16-.46,38.84,38.84,0,0,0,4.23-7.32A9.66,9.66,0,0,1,166.88,338.1Zm7.26,8.34c0-.89-.09-2.11-.09-3,0-1.66.14-2,.69-2a.55.55,0,0,1,.57.58v.14a8.15,8.15,0,0,0-.11,1.28v.4c0,.87.05,1.9.07,2.71,0,.27,0,.6,0,.9,1.71.69,3.39,1.93,3.39,2.69a.67.67,0,0,1-.65.69.74.74,0,0,1-.55-.3,7.77,7.77,0,0,0-2.23-1.82l-.05.3a3.72,3.72,0,0,1-3.81,2.6c-1.94,0-3.55-1.17-3.55-2.53s1.61-2.39,3.94-2.39a9.13,9.13,0,0,1,2.34.34Zm-2.39,1.24c-1.15,0-2.76.44-2.76,1.36,0,.76,1.15,1.45,2.39,1.45a2.56,2.56,0,0,0,2.65-1.84c0-.18.07-.37.09-.53A7.34,7.34,0,0,0,171.75,347.68Zm7.36-7.35a6.55,6.55,0,0,0-3.57-1l-.48,0h0a.48.48,0,0,1-.53-.49c0-.41.2-.66,1.28-.66s4.19.48,4.19,1.56a.64.64,0,0,1-.6.65A.68.68,0,0,1,179.11,340.33Z"/>
          <path d="M189.51,342.93a.61.61,0,0,1-.67-.63.65.65,0,0,1,.67-.66h14.62a.62.62,0,0,1,.65.64.62.62,0,0,1-.65.65Z"/>
          <g>
            <path class="cls-10" d="M211.27,342.74c0,3.16,1.35,7.75,5.39,7.75s5.39-4.59,5.39-7.75C222.05,333,211.27,333,211.27,342.74Z"/>
            <path class="cls-10" d="M222.05,342.74c0,3.16,1.35,7.75,5.4,7.75s5.39-4.59,5.39-7.75C232.84,333,222.05,333,222.05,342.74Z"/>
            <path class="cls-9" d="M211.56,343c0,2.71.86,6.95,4.3,6.95s4.3-4.24,4.3-6.95C220.16,333.62,211.56,333.62,211.56,343Z"/>
            <path class="cls-9" d="M222.34,343c0,2.71.86,6.95,4.3,6.95s4.3-4.24,4.3-6.95C230.94,333.62,222.34,333.62,222.34,343Z"/>
            <path class="cls-11" d="M211.56,343a3.52,3.52,0,1,0,7,0C218.55,337.54,211.56,337.54,211.56,343Z"/>
            <path class="cls-11" d="M222.34,343a3.52,3.52,0,1,0,7,0C229.33,337.54,222.34,337.54,222.34,343Z"/>
          </g>
          <path d="M246.06,341.27a26.41,26.41,0,0,1-8.34,7.89,1.1,1.1,0,0,1-.6.18.63.63,0,0,1-.65-.62.67.67,0,0,1,.42-.6,22.4,22.4,0,0,0,8.64-8.3c-2.41,0-4.85.12-7.15.21h0a.61.61,0,0,1-.65-.58.59.59,0,0,1,.65-.57c2.5-.09,5.24-.16,7.93-.19-.05-1.61-.11-3-.14-3.65V335a.59.59,0,0,1,.6-.64.65.65,0,0,1,.69.64c0,.76,0,2.12.07,3.7h4.39a.63.63,0,0,1,.71.6.64.64,0,0,1-.71.6h0c-1.41-.07-2.86-.09-4.33-.09,0,0,.09,3.33.3,9.06V349c0,1.59-1,2.37-2.64,2.37-.44,0-2.23-.05-2.23-.85a.62.62,0,0,1,.78-.6,4.91,4.91,0,0,0,1.38.25,1.27,1.27,0,0,0,1.45-1.4c0-1.22-.19-6.92-.21-7.86Z"/>
          <path d="M266.56,343.64v-.05c0-.92.07-2,.07-3.22,0-1.79-.05-3.68-.12-5v0a.62.62,0,0,1,.67-.62.65.65,0,0,1,.67.62c.06,1.29.09,3.29.09,5.13,0,1.15,0,2.28,0,3.1a.72.72,0,0,1-.71.76A.62.62,0,0,1,266.56,343.64Zm7.79-7.68c0,1.81.07,3.86.07,5.49,0,3.91-1.17,7.82-5.95,10.56a1.2,1.2,0,0,1-.56.16.62.62,0,0,1-.64-.62.76.76,0,0,1,.41-.65c4.37-2.41,5.39-5.77,5.39-9.4,0-1.84-.12-4.69-.12-6.55a.67.67,0,0,1,.69-.72.66.66,0,0,1,.71.67Z"/>
          <path d="M297.49,333.24a.61.61,0,0,1,1.22,0V337c.92,0,1.84,0,2.69,0a2.55,2.55,0,0,1,2.65,2.56c0,1.51.06,3.49.06,5.38,0,1.35,0,2.66,0,3.75a2.75,2.75,0,0,1-2.88,2.78c-1.54.07-3.35.09-5.19.09s-4,0-5.52-.09c-2.07-.09-3-1-3.08-2.71,0-1.34,0-2.88,0-4.47s0-3.24,0-4.73,1-2.51,2.78-2.56c.73,0,1.52,0,2.34,0v-3.8a.6.6,0,0,1,.63-.59.58.58,0,0,1,.62.59V337h3.72Zm-4.92,4.81c-2.78,0-4,0-4.05,1.89,0,1-.07,2.2-.07,3.42h4.12Zm0,6.32h-4.12c0,1.5.05,3,.07,4.21s.67,1.84,2.28,1.91l1.77.05Zm4.94-6.32h-3.77l0,5.31h3.79Zm0,6.32h-3.79v6.19l1.89,0,1.9,0Zm5.43-1c0-1.22,0-2.37,0-3.35a1.75,1.75,0,0,0-2-1.91c-.67,0-1.43,0-2.23,0v5.29Zm-4.25,1v6.17l2.14-.05a1.86,1.86,0,0,0,2.07-2c0-1.17.06-2.66.06-4.14Z"/>
          <path d="M319.41,347.13c0,1,0,3.66,2.58,3.66a3.9,3.9,0,0,0,3.74-3.93,5.57,5.57,0,0,0-1.79-3.68.8.8,0,0,1-.23-.51.6.6,0,0,1,.65-.55.79.79,0,0,1,.59.28,7,7,0,0,1,2.07,4.53,5.17,5.17,0,0,1-5.06,5c-1.91,0-3.63-1.24-3.72-4v-.62c0-.65,0-1.34.07-2.05a13.74,13.74,0,0,1-2.51-.44.68.68,0,0,1-.6-.64.6.6,0,0,1,.6-.62,1.09,1.09,0,0,1,.25,0,10.41,10.41,0,0,0,2.35.46c.11-1.33.28-2.73.41-4-2.39-.21-3-.58-3-1.11a.61.61,0,0,1,.62-.59.68.68,0,0,1,.28,0,8.13,8.13,0,0,0,2.23.48c.21-2.27.32-3.54.39-4.8a.6.6,0,0,1,.62-.64.69.69,0,0,1,.71.66v.05c0,1.12-.23,2.07-.37,3.42l-.13,1.34a8.1,8.1,0,0,0,1.51-.19.86.86,0,0,1,.21,0,.54.54,0,0,1,.6.55c0,.83-1.77.85-2.48.85-.16,1.31-.35,2.67-.46,4a7.76,7.76,0,0,0,2.16-.37,1.28,1.28,0,0,1,.27-.05.6.6,0,0,1,.62.6.62.62,0,0,1-.5.6,9.62,9.62,0,0,1-2.62.41C319.43,345.91,319.41,346.54,319.41,347.13Z"/>
          <path d="M339.45,341.27a9.75,9.75,0,0,0-3-1.52.43.43,0,0,1-.32-.41.63.63,0,0,1,.64-.6,10.11,10.11,0,0,1,3.34,1.4.65.65,0,0,1,.29.58.6.6,0,0,1-1,.55Zm-2.37,10.51a.66.66,0,0,1-.65-.65.71.71,0,0,1,.19-.43,19.69,19.69,0,0,0,3.61-6,.55.55,0,0,1,.53-.32.57.57,0,0,1,.59.57,20.21,20.21,0,0,1-3.65,6.49A.84.84,0,0,1,337.08,351.78Zm3.45-15.48a11.41,11.41,0,0,0-2.69-2.11.4.4,0,0,1-.23-.35.67.67,0,0,1,.64-.6c.41,0,3.33,1.75,3.33,2.56a.71.71,0,0,1-.66.69A.48.48,0,0,1,340.53,336.3Zm4.71,6a.6.6,0,0,1,.62.62c0,3.4-.32,7.31-4.07,9.09a1,1,0,0,1-.37.09.61.61,0,0,1-.62-.6.4.4,0,0,1,.25-.41c3.27-1.48,3.62-4.42,3.62-7.39v-.82A.54.54,0,0,1,345.24,342.28Zm3.13-6a21.42,21.42,0,0,1-1.61,3.59c2-.12,4-.32,5.82-.56q-.66-.58-1.32-1.08a.48.48,0,0,1-.2-.34.53.53,0,0,1,.55-.48c.67,0,3.61,2.64,3.61,3.33a.63.63,0,0,1-.6.64.53.53,0,0,1-.48-.27,7.5,7.5,0,0,0-.78-1,90.11,90.11,0,0,1-10.07,1,.54.54,0,0,1-.56-.56.48.48,0,0,1,.51-.52c.76,0,1.52-.05,2.3-.07a20,20,0,0,0,1.49-3.66h-3.91a.52.52,0,1,1,0-1l5.06,0,0-2.21a.64.64,0,0,1,1.27,0v2.21l5.65,0a.52.52,0,1,1,0,1ZM348,342.7a.55.55,0,0,1,.57-.56.55.55,0,0,1,.58.56l0,8.09a.6.6,0,0,1-1.2,0Zm3.35,7.38c0-.74.05-6.86.07-7.43a.55.55,0,0,1,.6-.51c.58,0,.58.51.58.88,0,1.33-.07,5.31-.07,6.57,0,.83,0,1.18,1.1,1.18,1.33,0,1.43-.72,1.43-1.64s.25-.92.57-.92a.59.59,0,0,1,.62.58v.14c0,2.11-.64,2.89-2.67,2.89C352.28,351.82,351.33,351.48,351.33,350.08Z"/>
          <path d="M368.47,342.14c3.06-3.19,5.11-4.6,6.76-4.6s2.28,1.36,2.28,3c0,.11,0,.25,0,.36-.09,1.41-.52,4-.64,5.34,0,.23,0,.46,0,.67,0,1.33.43,1.91,1.1,1.91a4.17,4.17,0,0,0,2.53-1.57A.8.8,0,0,1,381,347a.64.64,0,0,1,.6.66c0,.69-2.14,2.44-3.82,2.44-1.26,0-2.23-.9-2.23-3,0-.28,0-.55.05-.85.14-1.25.55-3.82.62-5.25v-.32c0-1.24-.35-2-1.2-2-1.81,0-6.16,4.37-6.66,4.94-.07,1.15-.12,2.3-.12,3.39a28,28,0,0,0,.25,3.95v.12a.7.7,0,0,1-.71.73c-.71,0-.74-.87-.74-2.62,0-1.24.07-2.74.17-4.32a18.59,18.59,0,0,0-1.36,2.18c-1.22,2.26-1.31,2.42-1.89,2.42a.71.71,0,0,1-.71-.6c0-.26.05-.3.71-1.08a59.37,59.37,0,0,0,3.43-5.64l.14-1.77a25.57,25.57,0,0,0-2.6,1.18.82.82,0,0,1-.42.11.56.56,0,0,1-.57-.57.63.63,0,0,1,.37-.56c1-.48,2.3-1,3.33-1.4.19-1.88.35-3.54.49-4.62a.57.57,0,0,1,.59-.55.59.59,0,0,1,.65.53v.09c-.19,1-.42,2.48-.6,4.21.07,0,.11,0,.16,0a.66.66,0,0,1,.71.72c0,.34-.13.69-1.17,2.53Z"/>
          <path d="M402.12,346c0-2.09-1.89-3-3.91-3a7.86,7.86,0,0,0-6.12,3,.69.69,0,0,1-.57.3.7.7,0,0,1-.72-.64,1,1,0,0,1,.33-.65,84.63,84.63,0,0,0,7.72-8.46s0-.05-.07-.05a.36.36,0,0,0-.16,0c-1.24.39-5.13,1.17-5.26,1.17a.62.62,0,1,1-.05-1.24,53.39,53.39,0,0,0,5.45-1.06,2,2,0,0,1,.53-.07c.64,0,1.1.35,1.1.87s-.14.76-2.71,3.45l-3.17,3.29a8.9,8.9,0,0,1,4-1c3.13,0,4.88,1.81,4.88,3.95,0,2.85-2.67,5.29-6.37,5.29-2.69,0-4.24-1.24-4.24-2.62,0-.88.67-2,2.51-2,1.59,0,2.94,1,2.94,3.27V350A4.46,4.46,0,0,0,402.12,346Zm-5,4c0-1.52-.62-2.39-1.7-2.39-1.31,0-1.45.85-1.45,1,0,.78,1,1.56,2.83,1.56h.32Z"/>
          <path d="M422.45,348.1c0-1,.12-1.59.12-2.44,0-.69-.07-2.11-1.61-2.11a5.36,5.36,0,0,0-3.78,2.25,16.53,16.53,0,0,0-1.49,3.2c-.46,1.47-.6,1.74-1.2,1.74a.66.66,0,0,1-.69-.66c0-.49,1.29-3.57,3.8-7.48,4.25-6.62,4.76-7.47,5-7.93a.7.7,0,0,1,.62-.41.71.71,0,0,1,.72.71c0,.27-.21.8-1.45,2.39a67.48,67.48,0,0,0-4.14,6.12s0,0,0,0a.55.55,0,0,0,.23-.14,4.49,4.49,0,0,1,2.62-.87c2.6,0,2.62,2.48,2.62,3,0,.78-.13,1.7-.13,2.41,0,1.34.71,1.8,1.58,1.8s3.36-.44,5-4.63a.75.75,0,0,1,.69-.53.73.73,0,0,1,.74.74c0,.81-2.62,5.7-6.6,5.7a2.52,2.52,0,0,1-2.69-2.85Z"/>
          <path d="M442.37,339a5.86,5.86,0,0,1-2.14-.36.69.69,0,0,1-.39-.63.52.52,0,0,1,.53-.57.84.84,0,0,1,.3.07,6,6,0,0,0,2,.32,8.42,8.42,0,0,0,1.86-.21,7.46,7.46,0,0,0,.17-1.54,10.13,10.13,0,0,0-.1-1.31v-.09a.57.57,0,0,1,.62-.58c.58,0,.76.4.76,1.5a8,8,0,0,1-.16,1.66,9.78,9.78,0,0,0,1.89-.92.51.51,0,0,1,.32-.1.67.67,0,0,1,.64.62c0,.37-.34.86-3.17,1.66a89.4,89.4,0,0,1-4.39,12,.82.82,0,0,1-.74.51.6.6,0,0,1-.62-.62,1.27,1.27,0,0,1,.14-.53,73,73,0,0,0,4.32-11A10.84,10.84,0,0,1,442.37,339Zm10.19,11.89c-3.25,0-5.2-1.45-5.2-2.23A.7.7,0,0,1,448,348a.63.63,0,0,1,.48.25,4.22,4.22,0,0,0,3.54,1.29,18,18,0,0,0,2.46-.2h.14a.65.65,0,0,1,.69.64C455.34,350.31,455.27,350.88,452.56,350.88Zm2.37-9.59a9.42,9.42,0,0,0-3.18-.57,5.67,5.67,0,0,0-2,.32.8.8,0,0,1-.21,0,.55.55,0,0,1-.53-.56c0-.92,2.37-1,3-1a10.07,10.07,0,0,1,3.31.55.62.62,0,0,1,.44.6.58.58,0,0,1-.55.62A.74.74,0,0,1,454.93,341.29Zm-.28-3.88a7.13,7.13,0,0,0-2.23-1.64.42.42,0,0,1-.3-.39.54.54,0,0,1,.57-.48c.51,0,2.92,1.29,2.92,2.14a.57.57,0,0,1-.55.57A.53.53,0,0,1,454.65,337.41Zm1.88-1.68a7.47,7.47,0,0,0-2.27-1.61.44.44,0,0,1-.3-.39.54.54,0,0,1,.57-.51c.33,0,3,1.22,3,2.12a.62.62,0,0,1-.59.59A.52.52,0,0,1,456.53,335.73Z"/>
          <g>
            <polygon class="cls-12" points="468.01 346.7 471.6 346.7 473.04 332.16 466.57 332.16 468.01 346.7"/>
            <ellipse class="cls-13" cx="469.81" cy="350.98" rx="2.75" ry="2.75"/>
            <path class="cls-12" d="M480.32,332.19c-4.18.26-6.37,2.63-6.56,6.91H478a2.63,2.63,0,0,1,2.42-2.76c1.52-.16,3,.2,3.39,1.24s-.59,2.41-1.09,3c-.93,1-2.44,1.75-3.22,2.84a7.55,7.55,0,0,0-1,4.19h3.72a5.35,5.35,0,0,1,.63-2.83c.81-1.12,2-1.64,3.05-2.51a5.36,5.36,0,0,0,2.17-3.42C488.61,334.13,484.79,331.91,480.32,332.19Z"/>
            <path class="cls-12" d="M480.41,349.1a2.32,2.32,0,1,1-2.34,2.31A2.33,2.33,0,0,1,480.41,349.1Z"/>
          </g>
          <path d="M49.46,387.08c-1,4.74-4.32,5.25-6,5.25a10.8,10.8,0,0,1-3.17-.53.61.61,0,0,1-.44-.6.65.65,0,0,1,.62-.67,1.09,1.09,0,0,1,.35.07,7.37,7.37,0,0,0,2.71.55c3.13,0,4.18-2.23,4.62-4.07H35.85a.53.53,0,0,1-.56-.55.51.51,0,0,1,.53-.53H48.38c.11-1,.18-2.09.18-2.16,0-.83-.53-1.08-1.15-1.08-.89,0-1.95,0-3,0s-2.14,0-3.06,0l-.39,1.17a.73.73,0,0,1-.69.44c-.35,0-.65-.18-.65-.48a.5.5,0,0,1,0-.26,36.73,36.73,0,0,0,2-7.17.58.58,0,0,1,.6-.46.62.62,0,0,1,.67.55s0,0-.3,1.41l7.13,0a.52.52,0,0,1,.55.53.51.51,0,0,1-.55.53H42.38c-.23.92-.46,1.86-.74,2.78,1.36,0,2.9,0,4.32,0h1.73c1.42,0,2.14.74,2.14,1.82,0,.13-.1,1.58-.21,2.43H54a.54.54,0,0,1,0,1.08Zm2.87-10.39c0-1-.59-1.49-1.74-1.49-1.71,0-3.78,0-5.8,0s-4,0-5.61,0c-1.26,0-1.66.59-1.68,1.44v1.8a.58.58,0,0,1-.64.55c-.62,0-.65-.32-.65-1.54,0-.35,0-.74,0-1.08,0-1.34.94-2.19,2.57-2.21,2.19,0,4.14,0,6.1,0s3.9,0,6.09,0c1.54,0,2.57.85,2.6,2.16,0,.28,0,.67,0,1,0,1.19,0,1.58-.69,1.58a.55.55,0,0,1-.6-.55Z"/>
          <path d="M70.87,388.53H66.6l-5.48,0a.53.53,0,0,1-.53-.53.51.51,0,0,1,.53-.53l9.15,0,9.13,0a.5.5,0,0,1,.53.53.52.52,0,0,1-.53.53ZM62,392.65a.62.62,0,0,1-.64-.62.61.61,0,0,1,.55-.6,13,13,0,0,0,5.49-2.37.46.46,0,0,1,.28-.09.67.67,0,0,1,.6.67.51.51,0,0,1-.23.43A16.56,16.56,0,0,1,62,392.65Zm8.88-16.9v1.63c1.08,0,2.18,0,3.21.05,1.29,0,2.07.66,2.12,1.58s.07,1.68.07,2.58,0,1.79-.07,2.62c0,1-.87,1.7-2.21,1.72-1.19,0-2.5,0-3.79,0s-2.58,0-3.75,0c-1.47,0-2.21-.71-2.23-1.7s0-1.77,0-2.62,0-1.65,0-2.46.71-1.68,2.21-1.72c1,0,2.09-.05,3.19-.05v-1.63l-7.33,0a.55.55,0,0,1-.58-.53.54.54,0,0,1,.58-.53l7.33,0v-1.61a.59.59,0,0,1,.65-.6.58.58,0,0,1,.62.6l0,1.61,7.35,0a.5.5,0,0,1,.53.53.51.51,0,0,1-.53.53Zm4.18,4.18c0-.83,0-1.61-1.4-1.63-1,0-2.23-.05-3.45-.05s-2.39,0-3.47.05c-.85,0-1.34.46-1.36,1.06,0,.18,0,.39,0,.57Zm0,.81H65.38v1.68H75.1Zm-9.72,2.5c0,.23,0,.49,0,.72,0,1.12.69,1.15,4.55,1.15,1.27,0,2.56,0,3.75-.07,1,0,1.33-.46,1.36-1.08,0-.23,0-.46,0-.72Zm7,6.67a.49.49,0,0,1-.25-.43.62.62,0,0,1,.6-.6.68.68,0,0,1,.32.11,13,13,0,0,0,5.47,2.28.57.57,0,0,1,.53.57.67.67,0,0,1-.69.69A14.72,14.72,0,0,1,72.39,389.91Z"/>
          <path d="M88.72,384.16a20.76,20.76,0,0,1-2.6.95.57.57,0,0,1-.57-.58A.58.58,0,0,1,86,384c1.11-.37,2-.62,2.76-.94l0-4.6-2.37,0a.54.54,0,0,1,0-1.08l2.37,0v-4.14a.56.56,0,0,1,.6-.57.55.55,0,0,1,.57.57v4.14l1.77,0a.54.54,0,0,1,0,1.08l-1.77,0,0,4.09c.44-.21.92-.44,1.4-.71a.53.53,0,0,1,.19-.05.57.57,0,0,1,.48.55c0,.33-.35.56-2.07,1.34v2.89c0,.37.05,2.51.07,3.34v.16c0,1.17-.44,2.23-2.32,2.23-1.59,0-1.78-.34-1.78-.71a.54.54,0,0,1,.51-.58h.12a4.66,4.66,0,0,0,1.1.14c.74,0,1.15-.32,1.17-1.36ZM97,389.5A35.71,35.71,0,0,1,91.73,391a.51.51,0,0,1-.5-.55.53.53,0,0,1,.41-.56c.51-.09,1-.2,1.54-.32l0-8.14H92a.47.47,0,0,1-.48-.48.46.46,0,0,1,.48-.48l3.77,0,9.5,0a.46.46,0,0,1,.51.48.47.47,0,0,1-.51.48l-7.31,0L98,392a.49.49,0,0,1-.53.5.51.51,0,0,1-.55-.5Zm4.67-10.56c-1,0-2,.05-3,.05s-2,0-3-.05c-1.24,0-1.84-.66-1.89-1.51,0-.42,0-.88,0-1.34s0-.89,0-1.26a1.75,1.75,0,0,1,1.89-1.57c1.06,0,2.18,0,3.33,0,.94,0,1.86,0,2.76,0a1.78,1.78,0,0,1,1.84,1.48,13.67,13.67,0,0,1,0,1.47c0,.43,0,.85,0,1.19C103.51,378.18,102.86,378.9,101.62,378.94ZM97,381.36H94.22v1.88H97Zm0,2.76H94.22v1.95H97ZM97,387H94.22v2.32c1-.25,1.88-.5,2.73-.8Zm5.48-11.31c0-.28,0-.53,0-.65,0-.48-.25-.83-1-.85s-1.59,0-2.42,0c-1.1,0-2.23,0-3.2,0s-1,.64-1,1.5Zm-7.64.85a5.26,5.26,0,0,0,0,.76c.09.87.46.87,3.74.87,1,0,1.94,0,2.83-.05.74,0,1-.41,1-.92,0-.13,0-.39,0-.66Zm8.07,6.48c1.08,0,1.54.53,1.54,1.29a11.16,11.16,0,0,1-1.79,4.62,8.7,8.7,0,0,0,2.78,1.91.59.59,0,0,1-.23,1.13c-.53,0-2-1-3.15-2.23A7.07,7.07,0,0,1,99.09,392a.6.6,0,0,1-.57-.6.46.46,0,0,1,.27-.41,7.77,7.77,0,0,0,2.53-2,10,10,0,0,1-1.91-3.56.52.52,0,0,1,.56-.48.43.43,0,0,1,.41.3,10.2,10.2,0,0,0,1.54,2.92,9,9,0,0,0,1.36-3.66c0-.37-.19-.51-.62-.51l-3.31,0a.47.47,0,0,1-.46-.49.45.45,0,0,1,.46-.48Z"/>
          <path d="M119.59,391.41a.62.62,0,0,1-.69-.62.67.67,0,0,1,.62-.67c4.34-.6,6.64-2.76,6.64-4.6,0-1.61-1.56-2.53-3.47-2.53a12.31,12.31,0,0,0-4.44,1.24l-2.43,1.18a1.27,1.27,0,0,1-.42.09.64.64,0,0,1-.67-.62.75.75,0,0,1,.51-.67,39.45,39.45,0,0,1,5.29-2,9.1,9.1,0,0,1,2.21-.27c3,0,4.71,1.68,4.71,3.68a4.63,4.63,0,0,1-1.91,3.47A12,12,0,0,1,119.59,391.41Z"/>
          <path d="M141.09,379.24a5.9,5.9,0,0,1-2.14-.36.69.69,0,0,1-.39-.63.52.52,0,0,1,.53-.57.79.79,0,0,1,.3.07,6,6,0,0,0,2,.32,8.44,8.44,0,0,0,1.87-.21,8.14,8.14,0,0,0,.16-1.54,12.45,12.45,0,0,0-.09-1.31v-.09a.57.57,0,0,1,.62-.58c.57,0,.76.4.76,1.5a8.71,8.71,0,0,1-.16,1.66,9.68,9.68,0,0,0,1.88-.92.53.53,0,0,1,.32-.1.68.68,0,0,1,.65.62c0,.3-.23.83-3.15,1.66a89.17,89.17,0,0,1-4.4,12,.82.82,0,0,1-.73.51.61.61,0,0,1-.65-.62,1.27,1.27,0,0,1,.14-.53,73.92,73.92,0,0,0,4.33-11A11.05,11.05,0,0,1,141.09,379.24Zm10.19,11.89c-3.24,0-5.2-1.45-5.2-2.23a.7.7,0,0,1,.67-.69.63.63,0,0,1,.48.25,4.25,4.25,0,0,0,3.54,1.29,18,18,0,0,0,2.49-.2h.14a.61.61,0,0,1,.66.64C154.06,390.74,153.56,391.13,151.28,391.13Zm2.39-9.59a9.41,9.41,0,0,0-3.17-.57,5.81,5.81,0,0,0-2.05.32.8.8,0,0,1-.21,0,.54.54,0,0,1-.52-.56c0-.89,2.29-1,3-1a10.16,10.16,0,0,1,3.34.55.62.62,0,0,1,.44.6.58.58,0,0,1-.56.62A.74.74,0,0,1,153.67,381.54Z"/>
          <path d="M169.34,377.15s.16-.18.25-.32a3.24,3.24,0,0,1,2.69-1.5c3.17,0,3.86,4.4,3.86,6.79a12.38,12.38,0,0,1-5.54,10.32,1.09,1.09,0,0,1-.6.21.62.62,0,0,1-.66-.6.85.85,0,0,1,.48-.71,11.17,11.17,0,0,0,5-9.41c0-1.91-.5-5.54-2.67-5.54-1.24,0-3.35,1.08-3.35,5.54,0,.42,0,.88,0,1.38v.1c0,.57-.34.82-.71.82-.62,0-.71-.46-.71-1.56a22,22,0,0,1,.53-4.55c.27-1.22.69-2.79.87-4.24a.6.6,0,0,1,.62-.55.62.62,0,0,1,.65.62,16.62,16.62,0,0,1-.67,2.81,1.42,1.42,0,0,0-.09.37Z"/>
          <path d="M198,381.15l-.07-2.62c-2.16.18-4.32.48-5.65.69-1.66.28-2.9.55-3.61.67l-.14,0a.66.66,0,0,1-.64-.67.72.72,0,0,1,.66-.69c.74-.11,5.57-.85,9.36-1.17v-.9c0-1.47-.07-1.61-.09-2.34v0a.65.65,0,0,1,.67-.69c.73,0,.73.73.73.94,0,.55,0,1.42-.07,1.95,0,.32,0,.65,0,1,.87-.07,1.66-.12,2.3-.12s1.08,0,1.66,0,1.17,0,2,0a.75.75,0,0,1,.85.69.68.68,0,0,1-.76.65H205c-.55-.05-1.61-.12-4.28-.12-.53,0-1.08,0-1.65.05,0,.85,0,1.77,0,2.67,0,.39.05,1,.07,1.56a4.54,4.54,0,0,1,.72,2.57c0,3.64-3.34,7.43-4.4,7.43a.6.6,0,0,1-.64-.57.87.87,0,0,1,.44-.69,9,9,0,0,0,3.35-5.27,2.83,2.83,0,0,1-2.27,1.15,3,3,0,0,1,.34-6,2.78,2.78,0,0,1,1.27.25Zm0,1.82a1.85,1.85,0,0,0-3.17,1.29,1.71,1.71,0,0,0,1.66,1.86c1.19,0,1.77-1.17,1.77-2.26a2.61,2.61,0,0,0-.1-.73Z"/>
          <path d="M227.32,386.21c0-2.09-1.89-3-3.91-3a7.86,7.86,0,0,0-6.12,3,.69.69,0,0,1-.57.3.7.7,0,0,1-.72-.64,1,1,0,0,1,.33-.65,84.63,84.63,0,0,0,7.72-8.46s0-.05-.07-.05a.36.36,0,0,0-.16,0c-1.24.39-5.13,1.17-5.26,1.17a.62.62,0,1,1-.05-1.24,53.39,53.39,0,0,0,5.45-1.06,2,2,0,0,1,.53-.07c.64,0,1.1.35,1.1.87s-.13.76-2.71,3.45l-3.17,3.29a8.9,8.9,0,0,1,4-1c3.13,0,4.88,1.81,4.88,3.95,0,2.85-2.67,5.29-6.37,5.29-2.69,0-4.24-1.24-4.24-2.62,0-.88.67-2,2.51-2,1.59,0,2.94,1,2.94,3.27v.16A4.46,4.46,0,0,0,227.32,386.21Zm-5,4c0-1.52-.62-2.39-1.7-2.39-1.31,0-1.45.85-1.45,1,0,.78,1,1.56,2.83,1.56h.32Z"/>
          <path d="M243.12,376.35a1,1,0,0,1-.23-.56.68.68,0,0,1,.71-.62.81.81,0,0,1,.65.35,26.23,26.23,0,0,1,2.94,6c.18-.12,4.53-3,5.2-3a.63.63,0,0,1,.66.62,1,1,0,0,1-.59.79c-3,1.56-8.74,4.55-8.74,7.58,0,2.65,3.91,2.65,4.34,2.65a11.88,11.88,0,0,0,4.07-.69,1.18,1.18,0,0,1,.44-.09.62.62,0,0,1,.67.64.9.9,0,0,1-.69.83,16,16,0,0,1-4.3.6c-4.72,0-5.77-2.28-5.77-3.84,0-2.14,2-4.07,3.65-5.31A20.67,20.67,0,0,0,243.12,376.35Z"/>
          <path d="M270.26,383.34c-.94,0-1.66-.07-1.66-.74a.61.61,0,0,1,.67-.6.51.51,0,0,1,.21,0,8.4,8.4,0,0,0,1,.06,14.33,14.33,0,0,0,3.64-.55c-.46-.78-1-1.7-1.54-2.83a14.9,14.9,0,0,1-3.29.39c-.74,0-1.43,0-1.43-.73,0-.25.19-.48.58-.48h.16a10.15,10.15,0,0,0,1.1.07,11.23,11.23,0,0,0,2.37-.28,20.53,20.53,0,0,0-2-3.54.65.65,0,0,1-.19-.44.6.6,0,0,1,.65-.53c.64,0,.87.51,2.57,4.23a14.81,14.81,0,0,0,2.16-.89,1,1,0,0,1,.42-.12.6.6,0,0,1,.59.62c0,.35-.2.67-2.69,1.43.53,1.12,1,2,1.5,2.8a14.09,14.09,0,0,0,2.34-1,.9.9,0,0,1,.46-.14.62.62,0,0,1,.62.64c0,.44-.43.76-2.75,1.56l.73,1.11a7.81,7.81,0,0,1,1.52,3.7c0,.46-.12,1.17-.69,1.17a4.1,4.1,0,0,1-1.34-.5,9.64,9.64,0,0,0-3.61-.65c-2.78,0-3.74,1-3.74,1.84,0,1.29,1.88,2.3,4.32,2.3a6.37,6.37,0,0,0,1.15-.09,1.06,1.06,0,0,1,.25,0c.53,0,.81.3.81.62,0,.6-.6.78-1.75.78-2.58,0-6-1-6-3.54,0-2.74,3.75-2.94,5.13-2.94a16.12,16.12,0,0,1,3.22.34,2.26,2.26,0,0,0,.52.07c.21,0,.3-.07.3-.28,0-.64-.48-1.47-1.86-3.58A17.81,17.81,0,0,1,270.26,383.34Z"/>
          <path d="M291.63,391.52a.8.8,0,0,1-.74-.64,14.79,14.79,0,0,1-.55-4.39,32.34,32.34,0,0,1,.21-3.66c.3-2.85.85-5.61,1-7.15a.65.65,0,0,1,.62-.69.67.67,0,0,1,.69.67v.09c-.16,1.06-.52,3.26-.82,5.26a38.05,38.05,0,0,0-.46,5.11c0,.92.07,1.65.23,1.65s.18-.18.32-.48c1.06-2.25,1.08-2.25,1.4-2.25a.53.53,0,0,1,.55.53.62.62,0,0,1-.09.34,35,35,0,0,0-1.54,3.66,3.44,3.44,0,0,0-.16,1.08,1,1,0,0,1-.21.69A.48.48,0,0,1,291.63,391.52ZM303.75,389a4.06,4.06,0,0,1-3.84,2.62c-1.54,0-3.31-1.08-3.31-2.57,0-1.31,1.47-2.44,3.63-2.44a8.14,8.14,0,0,1,2.48.43v-.22l-.09-1.71c-.07-1-.16-3.1-.23-5.15a16.4,16.4,0,0,1-3,.3c-1.61,0-2.07-.11-2.07-.71a.61.61,0,0,1,.67-.6.68.68,0,0,1,.19,0,6.12,6.12,0,0,0,1.38.12,15.78,15.78,0,0,0,2.85-.3c0-.87-.05-1.7-.05-2.39,0-.51,0-.94,0-1.27a.59.59,0,0,1,.65-.59c.32,0,.66.2.66.52v.05c-.06.78-.06,2.05-.06,3.43.69-.16,1.35-.35,1.93-.53a.84.84,0,0,1,.2-.05.6.6,0,0,1,.6.62c0,.26-.16.51-.57.62-.72.19-1.45.35-2.16.51,0,2,.09,4,.16,5.27,0,.59.11,1.35.13,2.11,0,.14,0,.3,0,.44.34.16,3.1,1.56,3.1,2.44a.64.64,0,0,1-.62.66.76.76,0,0,1-.51-.23,10,10,0,0,0-2.06-1.61Zm-3.59-1.38c-1.47,0-2.48.67-2.48,1.43s.85,1.42,2.13,1.42a2.75,2.75,0,0,0,2.76-1.91l.07-.36A6.83,6.83,0,0,0,300.16,387.59Z"/>
          <path d="M315.07,392.24a.62.62,0,0,1-.65-.6.59.59,0,0,1,.42-.55,16.45,16.45,0,0,0,5.61-3.68,22.21,22.21,0,0,0-2.92-1.64.5.5,0,0,1-.33-.46.61.61,0,0,1,.6-.59,14.34,14.34,0,0,1,3.45,1.83,19.32,19.32,0,0,0,2.39-3.24.6.6,0,0,1,.51-.3.69.69,0,0,1,.69.62c0,.51-1.45,2.35-2.6,3.59,3,2.14,3.06,2.74,3.06,2.88a.75.75,0,0,1-.69.73.57.57,0,0,1-.46-.25,14.8,14.8,0,0,0-2.74-2.51C318.4,391,315.64,392.24,315.07,392.24Zm3.67-16.31c-.69,1.08-2.43,3.61-3.21,3.61a.58.58,0,0,1-.6-.55.57.57,0,0,1,.25-.46A14.39,14.39,0,0,0,319,373a.51.51,0,0,1,.49-.3.63.63,0,0,1,.66.57,5.58,5.58,0,0,1-.78,1.66h11.34a.5.5,0,0,1,.53.5.53.53,0,0,1-.55.53Zm11.11,15.43c-1.65-2.16-1.68-5.61-1.68-8.09,0-.92-.3-1.5-1.33-1.5h-3c-2.69,0-5.88,0-7.84,0a.51.51,0,0,1,0-1c1.87,0,3.82,0,5.75,0s3.8,0,5.43,0a1.92,1.92,0,0,1,2.16,2v.55c0,3.89.28,5.86,1.38,7.24a.84.84,0,0,0,.6.39c.53,0,1-.87,1.15-2.43a.52.52,0,0,1,.55-.46.6.6,0,0,1,.64.6c0,.11-.34,3.56-2.34,3.56A2,2,0,0,1,329.85,391.36Zm-10.74-12.6a.48.48,0,0,1-.5-.48.47.47,0,0,1,.5-.49h9.61a.46.46,0,0,1,.49.49.47.47,0,0,1-.49.48Z"/>
          <path d="M346.23,377.82a9.83,9.83,0,0,1-1.47.14c-1.18,0-2.21-.35-2.21-1a.56.56,0,0,1,.6-.55,1,1,0,0,1,.53.19,2.41,2.41,0,0,0,1.26.27,11.23,11.23,0,0,0,1.93-.23,9.41,9.41,0,0,0,.39-2.39.62.62,0,0,1,.67-.53.58.58,0,0,1,.64.58,7.34,7.34,0,0,1-.43,2,11.14,11.14,0,0,0,2.09-.81.87.87,0,0,1,.37-.11.56.56,0,0,1,.57.55c0,.71-1.4,1.13-3.42,1.59a23.57,23.57,0,0,1-1.64,3.38,4.55,4.55,0,0,1,1.75-.39A2.71,2.71,0,0,1,350.6,383c1.1-.58,2.27-1.11,3.31-1.57.57-.25,1.29-.53,1.95-.89a1.12,1.12,0,0,1,.56-.16.67.67,0,0,1,.69.64.79.79,0,0,1-.49.67c-.66.3-1.12.43-2.34.89s-2.46,1-3.57,1.59c0,.55.05,1.24.05,1.89,0,1.17,0,1.9-.74,1.9a.55.55,0,0,1-.53-.62v-.07c0-.52.05-1.19.05-1.79v-.67c-1.54.9-3.61,2.19-3.61,3.8,0,.46.37,2.16,3.38,2.16a11.3,11.3,0,0,0,3.27-.51,1.4,1.4,0,0,1,.39-.07.64.64,0,0,1,.69.63c0,.32-.21.64-.74.78a13.09,13.09,0,0,1-3.29.41c-3.86,0-4.92-2-4.92-3.26,0-2.42,3.06-4.21,4.76-5.16-.18-1.54-.92-2.13-1.84-2.13a4.54,4.54,0,0,0-2.92,1.49c-.76,1-1.08,1.38-1.49,1.38a.55.55,0,0,1-.58-.51.82.82,0,0,1,.3-.57,15.13,15.13,0,0,0,3.54-5.5Z"/>
          <path d="M372,390.69a.68.68,0,0,1-.76-.64.8.8,0,0,1,.72-.76c6.6-.9,9.26-4.09,9.26-6.48,0-2-1.81-3.66-5-3.66a16.24,16.24,0,0,0-6.14,1.73c-1.06.5-2.19,1.08-3.34,1.61a1,1,0,0,1-.48.11.68.68,0,0,1-.71-.69.81.81,0,0,1,.55-.74c1-.41,2.18-1,3.42-1.47,3.55-1.45,5.39-1.7,6.81-1.7,4,0,6.23,2.35,6.23,4.85a6.21,6.21,0,0,1-2.55,4.65A17,17,0,0,1,372,390.69Z"/>
          <path d="M393.89,389.61a11.25,11.25,0,0,1-1.2-5.33c0-2,.32-3.91.48-5.8.12-1.35.26-2.11.3-3.12a.6.6,0,0,1,.62-.62.62.62,0,0,1,.65.59,33.2,33.2,0,0,1-.35,3.31,41.22,41.22,0,0,0-.55,5.39c0,.13,0,2.43.41,2.43.1,0,.19-.11.28-.34l.94-2.16a.58.58,0,0,1,.51-.39.54.54,0,0,1,.53.52.37.37,0,0,1-.05.23,13.29,13.29,0,0,0-1.31,4.35c0,.12,0,.35,0,.55,0,.67-.46.78-.69.78A.66.66,0,0,1,393.89,389.61Zm10.94-11.08c.81-.16,1.52-.35,2.09-.51a.75.75,0,0,1,.21,0,.61.61,0,0,1,.62.6c0,.53-.32.64-2.92,1.1,0,.81,0,1.57.07,2.74,0,.3,0,.57,0,.85,0,4.12-1.31,7.08-4.55,9.38a.91.91,0,0,1-.55.19.61.61,0,0,1-.65-.56.65.65,0,0,1,.37-.55c3.08-2,4.12-4.94,4.12-8.8,0-.37,0-.72-.07-3a23.11,23.11,0,0,1-3.22.3c-1.68,0-1.95-.23-1.95-.73a.61.61,0,0,1,.66-.6,1,1,0,0,1,.23,0,7.73,7.73,0,0,0,1.36.12,18.8,18.8,0,0,0,2.9-.28v-1c0-1.47-.14-2-.19-2.83v-.07a.63.63,0,0,1,.67-.69c.69,0,.8.44.8,1.79,0,.46,0,1,0,1.57Z"/>
          <path d="M429.44,391.34c-4.67,0-7.54-3.08-7.54-6.79a8.76,8.76,0,0,1,2.37-5.77c.18-.18.27-.3.27-.34s0-.05-.07-.05a1.47,1.47,0,0,0-.36.09c-2.72.9-6.53,1.91-6.83,1.91a.76.76,0,0,1-.83-.69.75.75,0,0,1,.69-.69c.5-.11,1.91-.39,2.67-.57,1.15-.3,3.19-.76,5.61-1.45a34.48,34.48,0,0,1,6.53-1.38.72.72,0,0,1,.76.71c0,.62-.44.69-1.77.76a11.91,11.91,0,0,0-3.59.69,7.63,7.63,0,0,0-4.21,6.55c0,2.88,2,5.55,6.07,5.55h.42c.66,0,1,.34,1,.71S430.29,391.34,429.44,391.34Z"/>
          <path d="M446.74,382.23c1.4-1.58,4-3.91,6.51-3.91,3,0,4,3,4,6.26a9.62,9.62,0,0,1-.74,4c1.82,1.19,1.82,1.51,1.82,1.77a.74.74,0,0,1-.71.73.65.65,0,0,1-.46-.2,11.33,11.33,0,0,0-1.34-1.25,5.1,5.1,0,0,1-3.91,1.89c-1.91,0-3.26-1-3.26-2.28s1.47-2.25,3.26-2.25a7.72,7.72,0,0,1,3.48.94,8.81,8.81,0,0,0,.59-3.36c0-5.1-2.23-5.15-2.87-5.15-2,0-4.69,2-6.51,4.56-.09,1.31-.16,2.62-.16,3.84a18.66,18.66,0,0,0,.25,3.38s0,.11,0,.16a.71.71,0,0,1-.74.67c-.64,0-.78-.46-.78-3,0-1.12.07-2.37.18-3.7a24.54,24.54,0,0,0-1.56,2.62c-1.31,2.76-1.36,2.88-1.91,2.88a.56.56,0,0,1-.6-.56.9.9,0,0,1,.14-.43c1-1.52,3.4-6,4.21-7.66l.11-1.29a17.46,17.46,0,0,0-2.85,1.2.69.69,0,0,1-.39.11.53.53,0,0,1-.5-.57c0-.39,0-.65,3.86-1.91.21-2.05.37-3.82.37-4.88a.6.6,0,0,1,.62-.64.65.65,0,0,1,.69.6c0,.34-.3,3-.51,4.67a.61.61,0,0,1,.58.66,1.69,1.69,0,0,1-.26.83c-.16.3-.39.74-.62,1.22Zm5.17,5.73c-.13,0-2.16,0-2.16,1.22,0,.09,0,1.22,2.14,1.22a3.56,3.56,0,0,0,2.94-1.48A5.69,5.69,0,0,0,451.91,388Z"/>
          <g>
            <circle class="cls-14" cx="475.05" cy="383.2" r="10.78"/>
            <g class="cls-15">
              <circle class="cls-16" cx="481.81" cy="384.63" r="2.88"/>
            </g>
            <g class="cls-15">
              <circle class="cls-16" cx="468.29" cy="384.63" r="2.88"/>
            </g>
            <path class="cls-17" d="M479.58,386.17a7.5,7.5,0,0,1-9.05,0c-.35-.24-.66.18-.43.57a5.83,5.83,0,0,0,9.9,0C480.24,386.35,479.93,385.93,479.58,386.17Z"/>
            <path class="cls-17" d="M473.81,381.35c-.67-1.84-1.68-2.76-2.69-2.76s-2,.92-2.68,2.76c-.06.18.28.51.45.33a3,3,0,0,1,2.23-.95,3,3,0,0,1,2.23.95C473.53,381.86,473.87,381.53,473.81,381.35Z"/>
            <path class="cls-17" d="M481.66,381.35c-.66-1.84-1.67-2.76-2.68-2.76s-2,.92-2.68,2.76c-.06.18.28.51.45.33a3.09,3.09,0,0,1,4.46,0C481.39,381.86,481.73,381.53,481.66,381.35Z"/>
          </g>
        </g>
      </g>
    </g>
  </g>
</svg>
