<svg xmlns="http://www.w3.org/2000/svg" viewBox="0 0 600 475.95">
  <defs>
    <style>
      .cls-1 {
        fill: none;
      }

      .cls-2 {
        font-size: 23px;
        letter-spacing: 0.1em;
      }

      .cls-2, .cls-3, .cls-6 {
        font-family: TsukuARdGothic-Regular-83pv-RKSJ-H, Tsukushi A Round Gothic;
      }

      .cls-3, .cls-6 {
        font-size: 17px;
      }

      .cls-3 {
        letter-spacing: 0.11em;
      }

      .cls-4 {
        letter-spacing: 0.36em;
      }

      .cls-5 {
        letter-spacing: 0.1em;
      }

      .cls-6 {
        letter-spacing: 0.1em;
      }

      .cls-7 {
        fill: #444;
      }

      .cls-7, .cls-8 {
        stroke: #8a43c6;
        stroke-miterlimit: 10;
      }

      .cls-8 {
        fill: #8a43c6;
      }

      .cls-9 {
        fill: #fff;
      }

      .cls-10, .cls-14 {
        fill: #ff5a79;
      }

      .cls-11 {
        fill: #ffdd67;
      }

      .cls-12 {
        fill: #664e27;
      }

      .cls-13 {
        fill: #eba352;
      }

      .cls-14 {
        fill-rule: evenodd;
      }

      .cls-15 {
        fill: #4c3526;
      }

      .cls-16 {
        fill: #ff717f;
      }

      .cls-17 {
        fill: #75d6ff;
      }

      .cls-18 {
        fill: #917524;
      }
    </style>
  </defs>
  <g id="レイヤー_2" data-name="レイヤー 2">
    <g id="レイヤー_1-2" data-name="レイヤー 1">
      <g>
        <rect class="cls-1" width="600" height="475.95"/>
        <text class="cls-2" transform="translate(37.45 131.85)">おはようございます！！<tspan x="0" y="40.25">今日も元気に行きましょー！！</tspan></text>
        <text class="cls-3" transform="translate(96.94 52.11)">1<tspan class="cls-4" x="11.7" y="0">0</tspan><tspan class="cls-5" x="27.65" y="0">代女性アイドル</tspan></text>
        <text class="cls-6" transform="translate(92.98 258.43)">ミスリプ</text>
        <line class="cls-7" y1="209.08" x2="600" y2="209.08"/>
        <circle class="cls-8" cx="55.89" cy="46.51" r="22.44"/>
        <circle class="cls-8" cx="56.11" cy="253.12" r="22.44"/>
        <g>
          <path class="cls-9" d="M59.33,261.42a8.81,8.81,0,0,1-2.74-.51,1,1,0,0,1-.66-1,1,1,0,0,1,1-1,1.86,1.86,0,0,1,.34.05,7,7,0,0,0,2.19.46c2.54,0,2.79-3.58,2.79-3.62,0-.31-.07-.43-.49-.43H60c.67.46,1.45,1.31,1.45,1.91a1,1,0,0,1-1,1,.87.87,0,0,1-.79-.51,3.42,3.42,0,0,0-1.06-1.22.71.71,0,0,1-.3-.6.86.86,0,0,1,.23-.57h-2a4.37,4.37,0,0,1,1.68,2.46,1.11,1.11,0,0,1-1.09,1.07.89.89,0,0,1-.85-.65,4.18,4.18,0,0,0-.87-1.56.67.67,0,0,1-.2-.49.92.92,0,0,1,.66-.83H52.4c-1.48,0-2.38-.72-2.41-1.93,0-.82,0-2.5,0-4,0-.63,0-1.23,0-1.73v-.88a2.08,2.08,0,0,1,2.22-2c1.39,0,5.08,0,7.75,0h2.57a.94.94,0,0,1,.69.3.89.89,0,0,1,.23.7.81.81,0,0,1-.23.61.88.88,0,0,1-.67.29h-5v1.1h4.26a.86.86,0,0,1,.87.91.87.87,0,0,1-.87.91H57.57v1h4.26a.91.91,0,0,1,0,1.82H57.57v1H62a2,2,0,0,1,2.31,2.14C64.33,256.89,63.48,261.42,59.33,261.42ZM52,252.5c0,1,.08,1,.67,1h2.92v-1Zm3.59-1.82v-1H52v1Zm0-2.86v-1.1H52.42a.36.36,0,0,0-.39.41c0,.18,0,.42,0,.69ZM49,260.64a1,1,0,0,1-1.07-1,1.05,1.05,0,0,1,.45-.84,4.85,4.85,0,0,0,1.53-2.41,1,1,0,0,1,1-.79,1,1,0,0,1,1,1C51.83,257.72,50.27,260.64,49,260.64Zm4.9-.76a.92.92,0,0,1-1-.95,7.19,7.19,0,0,0-.53-2.19.72.72,0,0,1-.05-.3.89.89,0,0,1,1-.85,1,1,0,0,1,.79.37A7.39,7.39,0,0,1,55,258.8,1.08,1.08,0,0,1,53.86,259.88Z"/>
          <path class="cls-9" d="M48.39,259.65a.6.6,0,0,1,.25-.45,5.26,5.26,0,0,0,1.72-2.7.46.46,0,0,1,.47-.39.48.48,0,0,1,.5.47c0,1-1.46,3.56-2.37,3.56A.54.54,0,0,1,48.39,259.65ZM57.07,252v2h5c1.25,0,1.81.67,1.81,1.64,0,.27-.37,5.24-4.5,5.24a8.38,8.38,0,0,1-2.59-.49.48.48,0,0,1-.31-.47.51.51,0,0,1,.49-.54.86.86,0,0,1,.21,0,7.41,7.41,0,0,0,2.32.47c3,0,3.29-4.05,3.29-4.09,0-.67-.35-1-1-1-2.88,0-6.39,0-9.35,0-1.24,0-1.89-.52-1.91-1.44s0-2.49,0-4c0-1.07,0-2.06,0-2.61a1.58,1.58,0,0,1,1.72-1.52c1.4,0,5.08,0,7.75,0h2.57a.42.42,0,0,1,.43.45.4.4,0,0,1-.41.45H57.07v2.1h4.76a.37.37,0,0,1,.37.41.38.38,0,0,1-.37.41H57.07v2h4.76a.37.37,0,0,1,.37.41.38.38,0,0,1-.37.41Zm-1-2.86H51.49v2h4.59Zm0,2.86H51.49c0,1.68,0,2,1.17,2h3.42Zm0-5.78H52.42a.87.87,0,0,0-.89.89c0,.28,0,.7,0,1.21h4.57Zm-2.67,12.71a7.93,7.93,0,0,0-.56-2.37.25.25,0,0,1,0-.12c0-.21.21-.35.47-.35a.58.58,0,0,1,.41.19,7.31,7.31,0,0,1,.74,2.52.58.58,0,0,1-.59.58A.42.42,0,0,1,53.41,258.93Zm3.72-.5a.39.39,0,0,1-.37-.3,4.75,4.75,0,0,0-1-1.73.24.24,0,0,1-.08-.17c0-.22.28-.39.53-.39.56,0,1.48,1.81,1.48,2A.62.62,0,0,1,57.13,258.43Zm3.33-.63a.41.41,0,0,1-.35-.23,3.83,3.83,0,0,0-1.2-1.4.22.22,0,0,1-.1-.2.47.47,0,0,1,.48-.41c.3,0,1.7,1.13,1.7,1.74A.53.53,0,0,1,60.46,257.8Z"/>
        </g>
        <g>
          <path class="cls-9" d="M53.32,54.75a1,1,0,0,1-1-1,1,1,0,0,1,.85-1,10.92,10.92,0,0,0,4.54-1.87,7.64,7.64,0,0,1-2.22-3.23.91.91,0,0,1,.48-.78l-.88,0a.9.9,0,0,1-.92-.85,8.7,8.7,0,0,1-1.83,1.19v2.68c0,.31,0,1.68,0,2.38a2.16,2.16,0,0,1-2.43,2.38c-.56,0-2,0-2-1.12a1,1,0,0,1,1-1H49a6.48,6.48,0,0,0,.88.11c.35,0,.44,0,.45-.45V48.28c-1.24.63-1.47.71-1.76.71a1,1,0,0,1-1-1,1,1,0,0,1,.64-.93c.78-.33,1.48-.66,2.11-1v-3H48.57a1,1,0,1,1,0-1.92h1.74l0-3.17a1,1,0,0,1,1-1,1,1,0,0,1,1,1v3.2h1.24a1,1,0,0,1,0,1.92H52.32V45l.65-.42a.86.86,0,0,1,.47-.14.65.65,0,0,1,.2,0,1.35,1.35,0,0,1,0-.28.94.94,0,0,1,.51-.83c1.36-.69,1.46-1.59,1.46-3v-.66a1.87,1.87,0,0,1,2-1.94c.39,0,.86,0,1.4,0,2.25,0,3,.36,3,2.64,0,.42,0,.84,0,1.24s0,.7,0,1a.31.31,0,0,0,0,.17.76.76,0,0,0,.37,0c.85,0,1,0,1-1.33a.91.91,0,0,1,1-.89c.39,0,1,.15,1,1.14,0,2.74-1.56,3-3,3-2.07,0-2.35-.93-2.35-1.94,0-.26,0-.6,0-1s0-.9,0-1.35v-.61a.43.43,0,0,0,0-.24,2.55,2.55,0,0,0-.9-.08c-.43,0-.85,0-1.11,0s-.24,0-.24.32c0,2.29-.16,3.77-2.3,5.1h5.79c1.51,0,2,.88,2,1.63a8.8,8.8,0,0,1-2.41,4.21,13.32,13.32,0,0,0,3.94,1.69,1,1,0,0,1,.79,1,1.06,1.06,0,0,1-1.09,1.07,12.88,12.88,0,0,1-5.11-2.42A11.75,11.75,0,0,1,53.32,54.75Zm3.76-7.88a.88.88,0,0,1,.26.28,9.3,9.3,0,0,0,1.8,2.45,9.06,9.06,0,0,0,1.77-2.73Zm-2.66-1.6.1-.09-.13,0Z"/>
          <path class="cls-9" d="M50.81,47.46c-1.77.91-2,1-2.26,1a.49.49,0,0,1-.49-.47.5.5,0,0,1,.34-.47c.85-.37,1.65-.74,2.41-1.13V42.63H48.57a.46.46,0,1,1,0-.92h2.24l0-3.68a.51.51,0,0,1,.53-.52.48.48,0,0,1,.5.5v3.7h1.74a.43.43,0,0,1,.44.45.43.43,0,0,1-.44.47H51.82v3.25c.49-.27,1-.59,1.42-.9a.37.37,0,0,1,.2,0,.51.51,0,0,1,.49.46c0,.28-.2.49-2.11,1.54v3c0,.31,0,1.69,0,2.39v.06c0,1.07-.48,1.81-1.93,1.81-.66,0-1.55,0-1.55-.62a.48.48,0,0,1,.46-.51h.08a6.12,6.12,0,0,0,1,.12c.56,0,.93-.21,1-.93Zm2.51,6.79a.53.53,0,0,1-.52-.54.47.47,0,0,1,.44-.47,11.34,11.34,0,0,0,5.22-2.32A8.81,8.81,0,0,1,56,47.65c0-.25.31-.45.56-.45a.39.39,0,0,1,.37.2,10,10,0,0,0,2.26,2.9,8.49,8.49,0,0,0,2.28-3.53c0-.23-.16-.4-.56-.4H58.17c-1.13,0-2.34,0-3.12,0a.44.44,0,0,1,0-.88h6c1,0,1.54.47,1.54,1.13a9,9,0,0,1-2.69,4.28,13.4,13.4,0,0,0,4.6,2.1.54.54,0,0,1,.41.51.56.56,0,0,1-.59.57,13.18,13.18,0,0,1-5.12-2.56A11.66,11.66,0,0,1,53.32,54.25Zm8.88-10c-1.71,0-1.85-.64-1.85-1.44,0-.58,0-1.48,0-2.31v-.61c0-.82-.51-.82-1.44-.82-.45,0-.88,0-1.15,0a.71.71,0,0,0-.7.82c0,2.14-.12,3.47-2.06,4.67a.7.7,0,0,1-.35.12.55.55,0,0,1-.57-.52.43.43,0,0,1,.25-.39c1.58-.8,1.72-1.91,1.72-3.43v-.66a1.37,1.37,0,0,1,1.48-1.44c.39,0,.85,0,1.38,0,2.06,0,2.45.23,2.45,2.14,0,.8,0,1.6,0,2.26s.35.72.9.72c1.24,0,1.46-.35,1.46-1.83a.42.42,0,0,1,.47-.39c.54,0,.54.39.54.64C64.73,44.05,63.62,44.22,62.2,44.22Z"/>
        </g>
        <line class="cls-8" x1="96.94" y1="58.11" x2="255.77" y2="58.11"/>
        <line class="cls-8" x1="96.94" y1="265.38" x2="165.69" y2="265.38"/>
        <g>
          <path d="M42.68,318.21a7.69,7.69,0,1,1,7.68-7.68A7.68,7.68,0,0,1,42.68,318.21Zm0-14.6a6.92,6.92,0,1,0,6.91,6.92A6.92,6.92,0,0,0,42.68,303.61Z"/>
          <path d="M62.48,318.21a7.69,7.69,0,1,1,7.68-7.68A7.68,7.68,0,0,1,62.48,318.21Zm0-14.6a6.92,6.92,0,1,0,6.91,6.92A6.92,6.92,0,0,0,62.48,303.61Z"/>
          <path d="M88.16,310.9c-1.08,0-2.93,0-4.93,0v0A7.55,7.55,0,0,1,77.85,318a1,1,0,0,1-.38.07.47.47,0,0,1-.54-.48.55.55,0,0,1,.43-.54,6.5,6.5,0,0,0,4.9-6.14c-2.14,0-4.34,0-5.91.05h0a.43.43,0,0,1-.46-.43.46.46,0,0,1,.5-.45c1.46,0,3.71-.05,5.91-.05,0-1.05,0-2.35,0-3.05a24.56,24.56,0,0,1-4,.42c-.4,0-.58-.24-.58-.45s.18-.45.56-.45h.42a21.85,21.85,0,0,0,6.75-1.28.59.59,0,0,1,.3-.07.43.43,0,0,1,.45.45c0,.28,0,.55-2.82,1.18v.85c0,.76,0,1.64,0,2.4,2.09,0,4,0,4.93,0a.48.48,0,0,1,.52.45.46.46,0,0,1-.52.43Z"/>
          <path d="M98.24,312.92a.51.51,0,0,1-.23,0,.42.42,0,0,1-.42-.44.48.48,0,0,1,.35-.45l2.5-.88c-.25-.85-.49-1.6-.67-2.12a.83.83,0,0,1,0-.22.44.44,0,0,1,.46-.45.47.47,0,0,1,.47.38l.61,2.12a32.73,32.73,0,0,1,4.47-1.38.78.78,0,0,1,.88.75c0,1.07-2.12,3.77-2.81,3.77a.46.46,0,0,1-.45-.45.52.52,0,0,1,.24-.42,6.36,6.36,0,0,0,2-2.68s0-.07-.09-.07c-.31,0-3.32,1.08-4,1.31.59,2,1.27,4.27,1.74,5.55a.79.79,0,0,1,.06.29.5.5,0,0,1-.49.52.52.52,0,0,1-.49-.42c-.39-1.33-1.06-3.63-1.67-5.63Z"/>
          <path d="M119.81,309.39a8.2,8.2,0,0,0-3-1.57.4.4,0,0,1-.31-.43.54.54,0,0,1,.53-.54,11.1,11.1,0,0,1,3.54,1.6.59.59,0,0,1,.24.47.65.65,0,0,1-.6.65A.54.54,0,0,1,119.81,309.39Zm-2,7.56a.59.59,0,0,1-.63-.57.64.64,0,0,1,.56-.6c3.91-1,7.74-4.52,9.49-8.39a.53.53,0,0,1,.49-.3.53.53,0,0,1,.55.54.66.66,0,0,1-.09.36C124.94,314.72,118.56,317,117.84,317Z"/>
          <g>
            <polygon class="cls-10" points="143.08 314 140.27 314 139.14 302.63 144.21 302.63 143.08 314"/>
            <path class="cls-10" d="M141.67,315.2a2.15,2.15,0,1,1-2.15,2.15A2.16,2.16,0,0,1,141.67,315.2Z"/>
          </g>
          <path d="M160.47,309.75a20.64,20.64,0,0,1-6.54,6.18.84.84,0,0,1-.47.14.48.48,0,0,1-.5-.48.51.51,0,0,1,.32-.47,17.5,17.5,0,0,0,6.77-6.5c-1.89,0-3.79.09-5.59.16h0a.47.47,0,0,1-.51-.45.46.46,0,0,1,.51-.45c2-.07,4.1-.13,6.21-.15,0-1.26-.09-2.32-.11-2.86v0a.47.47,0,0,1,.47-.51.51.51,0,0,1,.54.51c0,.59,0,1.65.05,2.89H165a.5.5,0,0,1,.56.47.5.5,0,0,1-.56.47h0c-1.1-.05-2.23-.07-3.39-.07,0,0,.08,2.61.24,7.09v.07c0,1.25-.81,1.86-2.07,1.86-.35,0-1.75,0-1.75-.67a.48.48,0,0,1,.47-.48.34.34,0,0,1,.14,0,4.23,4.23,0,0,0,1.08.19,1,1,0,0,0,1.14-1.09c0-1-.15-5.42-.17-6.16Z"/>
          <path d="M172.49,315.17a.55.55,0,0,1-.56-.52.6.6,0,0,1,.34-.54,11.08,11.08,0,0,0,4.16-5.22c.13-.33.35-.47.54-.47a.56.56,0,0,1,.54.58,13.29,13.29,0,0,1-4.57,6A.8.8,0,0,1,172.49,315.17Zm12.55-.79a14.36,14.36,0,0,0-3.82-5.35.47.47,0,0,1-.16-.32.5.5,0,0,1,.51-.47.7.7,0,0,1,.45.2c1.85,1.62,4.15,4.68,4.15,5.76a.63.63,0,0,1-.59.65A.6.6,0,0,1,185,314.38Z"/>
          <path d="M195.42,311.5a.5.5,0,0,1-.54-.45c0-.22.18-.42.6-.42h.45c1.82,0,5-.07,6.77-.07h.43c0-.81,0-1.55,0-1.94a1,1,0,0,0-1.17-1.12c-.39,0-.88,0-1.42,0-1.75,0-4.05.06-5.51.13h0c-.36,0-.54-.22-.54-.43a.51.51,0,0,1,.54-.49c1.49-.07,3.7-.11,5.49-.11.63,0,1.2,0,1.67,0,1.41,0,2,.83,2,1.87,0,.74,0,2.18,0,3.55,0,.68,0,1.35,0,1.89,0,1.3-.94,1.87-2.31,1.94-1.94.11-5.09.13-7,.13a.58.58,0,0,1-.63-.54.49.49,0,0,1,.54-.47h0c.72,0,1.68,0,2.63,0,1.68,0,3.42,0,4.29-.09s1.35-.43,1.38-1.15c0-.51,0-1.43,0-2.34C200.68,311.48,197.15,311.5,195.42,311.5Z"/>
          <path d="M215.12,311.61a.53.53,0,0,1-.56.52.48.48,0,0,1-.53-.47v-1.19c0-.5,0-1,0-1.49v0a1.74,1.74,0,0,1,1.87-1.67c.85,0,1.78,0,2.72,0,0-.77,0-2.07,0-2.54a.48.48,0,0,1,.54-.48.47.47,0,0,1,.52.45v2.57c1,0,1.93,0,2.76,0a1.68,1.68,0,0,1,1.87,1.65V309c-.41,7.24-7.62,8.79-8,8.79a.51.51,0,1,1-.09-1c5.82-1.42,6.92-5.8,6.92-7.69,0-.68-.38-.93-1-1s-1.82-.05-2.94-.05-2.5,0-3.08.05c-.84.05-1.06.54-1.06,1s0,1.87.06,2.43Z"/>
          <g>
            <circle class="cls-11" cx="238.87" cy="311.07" r="8.44"/>
            <path class="cls-12" d="M237.9,309.92c-.53-1.44-1.31-2.16-2.1-2.16s-1.58.72-2.1,2.16c0,.14.22.4.35.26a2.36,2.36,0,0,1,1.75-.75,2.32,2.32,0,0,1,1.74.75C237.68,310.32,238,310.06,237.9,309.92Z"/>
            <path class="cls-12" d="M244.05,309.92c-.53-1.44-1.31-2.16-2.1-2.16s-1.58.72-2.1,2.16c0,.14.22.4.35.26a2.36,2.36,0,0,1,1.75-.75,2.32,2.32,0,0,1,1.74.75C243.83,310.32,244.1,310.06,244.05,309.92Z"/>
            <path class="cls-12" d="M245.06,312.59c0-.23-.17-.51-.66-.58a37.42,37.42,0,0,0-5.53-.38h0a37.27,37.27,0,0,0-5.52.38c-.49.07-.66.35-.66.58,0,2.7,1,3.54,5,3.54h2.35C244.08,316.13,245.06,315.29,245.06,312.59Z"/>
            <path class="cls-9" d="M243.64,312.8a.22.22,0,0,0-.16-.3,34.36,34.36,0,0,0-9.21,0,.21.21,0,0,0-.16.3l.31.82a.44.44,0,0,0,.36.26H243a.41.41,0,0,0,.35-.26Z"/>
            <path class="cls-9" d="M238.87,315.57c1.8,0,4.35,0,4.28-.58a2,2,0,0,0-.08-.36c0-.15-.07-.19-.38-.19h-7.63c-.31,0-.34,0-.39.19a2,2,0,0,0-.08.36C234.52,315.57,237.08,315.57,238.87,315.57Z"/>
          </g>
          <g>
            <path class="cls-11" d="M257.44,314l2.2.43,1.81-9.26a1.15,1.15,0,0,0-.87-1.35h0a1.14,1.14,0,0,0-1.32.94Z"/>
            <path class="cls-13" d="M260.58,303.77h0a.68.68,0,0,0-.2,0,1.15,1.15,0,0,1,.69,1.29l-1.81,9.26.39.08,1.81-9.26A1.15,1.15,0,0,0,260.58,303.77Z"/>
            <path class="cls-11" d="M255.2,314.25h2.65V304a1.33,1.33,0,1,0-2.65,0v10.22Z"/>
            <path class="cls-13" d="M256.52,302.63l-.2,0a1.38,1.38,0,0,1,1.13,1.38v10.22h.4V304A1.36,1.36,0,0,0,256.52,302.63Z"/>
            <path class="cls-11" d="M253.78,314.21l2.24-.58-2.44-9.32a1.18,1.18,0,0,0-1.42-.89h0a1.19,1.19,0,0,0-.81,1.47Z"/>
            <path class="cls-13" d="M252.16,303.42h0l-.19.07a1.21,1.21,0,0,1,1.23.92l2.43,9.32.39-.1-2.44-9.32A1.18,1.18,0,0,0,252.16,303.42Z"/>
            <path class="cls-11" d="M249,305.84a1.08,1.08,0,0,0-.43,1.48l3.72,7.39,1.89-.95-3.73-7.39A1.09,1.09,0,0,0,249,305.84Z"/>
            <path class="cls-13" d="M249,305.84a1,1,0,0,0-.17.1,1.11,1.11,0,0,1,1.26.61l3.73,7.39.36-.18-3.73-7.39A1.09,1.09,0,0,0,249,305.84Z"/>
            <path class="cls-11" d="M265.22,310.3c-.44-.86-1.85-.82-3.29.76-1,1.11-1.23,1.45-2.24,1.45v-1.16s-2.16-1.61-6.48-.88c0,0-2.45.35-2.45,1.62a11.58,11.58,0,0,0,.45,5.09c1.29,2.92,7.92,3.69,10-1.28a11.88,11.88,0,0,1,2-2.65C264.15,312.13,265.7,311.24,265.22,310.3Z"/>
            <path class="cls-13" d="M265.22,310.3a.89.89,0,0,0-.35-.39l.07.11c.48.94-1.08,1.83-2,3a12.13,12.13,0,0,0-2,2.65,6,6,0,0,1-9.24,2.32c2,2.26,7.63,2.47,9.52-2a11.88,11.88,0,0,1,2-2.65C264.15,312.13,265.7,311.24,265.22,310.3Z"/>
            <path class="cls-13" d="M260,312.5a3.5,3.5,0,0,0-4.63,3.83c0-3.06,2.79-3.82,4.31-3.82Z"/>
          </g>
          <path d="M49.64,341.5c-.64,0-4.15-3.09-6.32-5.42a.92.92,0,0,0-.64-.36.94.94,0,0,0-.67.4c-1.6,2-5.42,5.83-6.3,5.83a.5.5,0,0,1-.52-.48.56.56,0,0,1,.28-.47,26.89,26.89,0,0,0,5.84-5.55,1.6,1.6,0,0,1,1.26-.65,1.94,1.94,0,0,1,1.35.65,31.42,31.42,0,0,0,6,5,.54.54,0,0,1,.31.47A.59.59,0,0,1,49.64,341.5Zm-11.7,2.18a.42.42,0,0,1-.45-.45.45.45,0,0,1,.45-.47h7.89c1.06,0,1.51.46,1.51,1.17,0,2.23-4.23,5.79-5.08,5.79a.55.55,0,0,1-.57-.5.48.48,0,0,1,.34-.43c2-.92,4.19-3.57,4.19-4.67,0-.5-.45-.5-1.24-.5-1.91,0-6.39.05-7,.07Zm2.11-3.29a.45.45,0,0,1,0-.89h5.44a.45.45,0,0,1,0,.89Z"/>
          <path d="M65,349.17c-.79,0-1.64,0-2.47,0s-1.64,0-2.38,0a2.06,2.06,0,0,1-2.28-2.05c0-1.19-.06-3-.06-4.82,0-1.62,0-3.26.06-4.49a2,2,0,0,1,2.21-2c.69,0,1.69,0,2.7,0,.81,0,1.62,0,2.25,0a2,2,0,0,1,2.18,2c0,1.12.06,2.83.06,4.52,0,1.87,0,3.73-.06,4.7A2.09,2.09,0,0,1,65,349.17Zm1.28-7.65c0-1.37,0-2.63-.06-3.44s-.32-1.38-1.46-1.42c-.46,0-1.31,0-2.16,0s-1.73,0-2.28,0c-1,0-1.46.47-1.5,1.42s0,2.09,0,3.44Zm-7.51.9c0,1.73,0,3.44,0,4.39s.51,1.43,1.68,1.46c.41,0,1.22,0,2,0s1.68,0,2.15,0c1.13,0,1.53-.54,1.56-1.55s.06-2.64.06-4.3Z"/>
          <path d="M77.33,349.08a.63.63,0,0,1-.58-.5,11.3,11.3,0,0,1-.43-3.44,25.05,25.05,0,0,1,.16-2.86c.23-2.23.67-4.4.76-5.6a.49.49,0,0,1,.48-.54.53.53,0,0,1,.54.52v.07c-.12.83-.41,2.56-.65,4.12a29.87,29.87,0,0,0-.36,4c0,.72.06,1.3.18,1.3s.15-.15.26-.38c.82-1.76.84-1.76,1.09-1.76a.42.42,0,0,1,.44.41.47.47,0,0,1-.08.27,29,29,0,0,0-1.2,2.86,2.61,2.61,0,0,0-.13.85.81.81,0,0,1-.16.54A.38.38,0,0,1,77.33,349.08Zm9.48-2a3.16,3.16,0,0,1-3,2.05c-1.21,0-2.6-.85-2.6-2s1.16-1.91,2.85-1.91a6.34,6.34,0,0,1,1.94.34v-.18L85.93,344c-.05-.81-.12-2.43-.18-4a13.59,13.59,0,0,1-2.37.23c-1.27,0-1.63-.09-1.63-.56a.48.48,0,0,1,.53-.46h.14a4.73,4.73,0,0,0,1.08.09,12.32,12.32,0,0,0,2.23-.23c0-.68,0-1.33,0-1.87s0-.74,0-1a.46.46,0,0,1,.5-.47c.25,0,.52.16.52.41v0c0,.61,0,1.6,0,2.68.54-.12,1.06-.27,1.51-.41a.45.45,0,0,1,.63.45c0,.2-.13.39-.45.48-.56.15-1.13.27-1.69.4,0,1.55.07,3.15.12,4.12,0,.47.09,1.07.11,1.66,0,.11,0,.23,0,.34.27.13,2.43,1.23,2.43,1.91a.5.5,0,0,1-.49.52.54.54,0,0,1-.39-.18,7.76,7.76,0,0,0-1.62-1.26ZM84,346c-1.16,0-2,.53-2,1.12s.67,1.12,1.68,1.12a2.16,2.16,0,0,0,2.16-1.5l0-.29A5.45,5.45,0,0,0,84,346Z"/>
          <path d="M96.6,349.46l.27-9.7c-1.94,2.66-2.46,2.66-2.57,2.66a.46.46,0,0,1-.47-.45.49.49,0,0,1,.18-.38A17.9,17.9,0,0,0,98.48,335a.43.43,0,0,1,.43-.31.57.57,0,0,1,.57.53,14.71,14.71,0,0,1-1.67,3.11l-.18,11.07a.49.49,0,0,1-.54.45.45.45,0,0,1-.49-.41Zm4.58-4.12a1.47,1.47,0,0,1-1.39-1.51c0-.4,0-.87,0-1.35s0-1,0-1.46a1.46,1.46,0,0,1,1.42-1.48c.33,0,.61,0,.9,0s.76,0,1.21,0a1.41,1.41,0,0,1,1.48,1.35c0,.45,0,1,0,1.48,0,2.39,0,3-2.54,3ZM107,337l-6.67,0a.43.43,0,0,1-.45-.45.43.43,0,0,1,.45-.45h9.2a.44.44,0,0,1,.47.45.45.45,0,0,1-.47.45l-1.56,0c0,2.13,0,7.56,0,8.75v1.86c0,1.15-.7,2.07-2.84,2.07-2,0-2-.34-2-.65a.45.45,0,0,1,.43-.47h.08a11.72,11.72,0,0,0,1.64.15c1.06,0,1.71-.31,1.71-1.25Zm-3,5.69c0-2.39,0-2.39-1.64-2.39s-1.64.1-1.64,2.19c0,1.89,0,2,1.77,2C103.91,344.53,103.93,344.2,103.93,342.69Z"/>
          <path d="M125.75,348.94c-3.66,0-5.89-2.41-5.89-5.31a7,7,0,0,1,1.84-4.52q.21-.23.21-.27s0,0,0,0a1,1,0,0,0-.29.07c-2.31.76-5.19,1.5-5.35,1.5a.59.59,0,0,1-.65-.56c0-.22.16-.45.52-.52s1.5-.31,2.09-.45c.9-.24,2.52-.6,4.41-1.14a31.18,31.18,0,0,1,5.1-1.08.58.58,0,0,1,.61.58c0,.47-.41.52-1.38.58a8.76,8.76,0,0,0-2.81.54,6,6,0,0,0-3.3,5.13c0,2.25,1.53,4.34,4.76,4.34h.32c.5,0,.76.27.76.55C126.67,348.44,126.63,348.94,125.75,348.94Zm1.71-6.75a6.05,6.05,0,0,0-1.77-1.3.33.33,0,0,1-.23-.3.43.43,0,0,1,.45-.4c.36,0,2.32,1,2.32,1.69a.46.46,0,0,1-.45.47A.39.39,0,0,1,127.46,342.19Zm1.55-1.32a6,6,0,0,0-1.8-1.29.37.37,0,0,1-.26-.33.43.43,0,0,1,.45-.38c.27,0,2.36,1,2.36,1.7a.45.45,0,0,1-.43.47A.43.43,0,0,1,129,340.87Z"/>
          <path d="M136.94,334.86c1,0,2.14,0,2.14,1.19a9.13,9.13,0,0,1-.84,2.45,2.32,2.32,0,0,0-.31,1,2.41,2.41,0,0,0,.4,1.08,4.72,4.72,0,0,1,.7,2.5c0,2.29-1.66,2.36-2,2.36s-1,0-1-.52c0-.24.13-.45.33-.45l.09,0a1.82,1.82,0,0,0,.5.07,1.32,1.32,0,0,0,1.24-1.46,5.14,5.14,0,0,0-.73-2.47,2.1,2.1,0,0,1-.36-1.13,3,3,0,0,1,.25-1.08,11,11,0,0,0,.74-2.25c0-.27-.17-.45-.58-.49h-1c-.53,0-.71.33-.71.81,0,3,0,8.75,0,13a.47.47,0,0,1-.47.49.46.46,0,0,1-.47-.49c0-3.3,0-9.69.07-13.14C134.89,334.91,135.72,334.86,136.94,334.86Zm3.58,10.93a.32.32,0,0,1-.19-.31.46.46,0,0,1,.43-.45,4.45,4.45,0,0,1,1.26.7,5.2,5.2,0,0,0,.56-1.83c0-.27-.17-.34-.4-.34H141c-.33.67-1.57,2.9-2.15,2.9a.4.4,0,0,1-.39-.38.41.41,0,0,1,.12-.3,9.09,9.09,0,0,0,2.24-3.91.38.38,0,0,1,.37-.32.4.4,0,0,1,.42.39,2.9,2.9,0,0,1-.29.92c.27,0,.65,0,1,0,.81,0,1.19.3,1.19.88a2,2,0,0,1-.05.39c-1.07,4.27-4.15,5.66-4.31,5.66a.48.48,0,0,1-.43-.47.4.4,0,0,1,.23-.36,6.94,6.94,0,0,0,2.72-2.5A6,6,0,0,0,140.52,345.79Zm8.29-7.55-4-.07a14.16,14.16,0,0,0,4.28,2.45.48.48,0,0,1-.11.94,15.61,15.61,0,0,1-4.42-2.78l0,2.6a.41.41,0,0,1-.45.39.42.42,0,0,1-.45-.39l0-2.58a13.4,13.4,0,0,1-4,2.85.46.46,0,0,1-.45-.43.4.4,0,0,1,.27-.38,14.87,14.87,0,0,0,3.89-2.67l-3.69.07h0a.34.34,0,0,1-.36-.37.37.37,0,0,1,.38-.4h2.07a.23.23,0,0,1-.08-.11,4.78,4.78,0,0,0-1.18-1.49.29.29,0,0,1-.11-.22c0-.2.27-.38.48-.38a3.81,3.81,0,0,1,1.59,1.79.5.5,0,0,1-.2.41l1.39,0,0-2.69a.42.42,0,0,1,.45-.41.4.4,0,0,1,.45.41l-.05,2.69.86,0a16.63,16.63,0,0,0,1.35-2.13.35.35,0,0,1,.33-.19.52.52,0,0,1,.52.47,12.77,12.77,0,0,1-1.28,1.85h2.45a.4.4,0,0,1,.39.41.35.35,0,0,1-.36.36Zm-1.37,9v2.27a.43.43,0,1,1-.85,0v-2.27H143.3a.39.39,0,0,1,0-.77h1.09v-2.52H144a.37.37,0,0,1-.39-.38.37.37,0,0,1,.39-.4h2.63V342a.43.43,0,1,1,.85,0v1.1h1.29a.38.38,0,0,1,.4.38.38.38,0,0,1-.4.4h-1.29v2.52h1.74a.37.37,0,0,1,.4.37.38.38,0,0,1-.4.4Zm-.85-3.29h-1.4l0,2.52h1.42Z"/>
          <path d="M162.25,338.82c0,1.68-2.38,8.44-4.79,8.44-.93,0-2.34-1.22-2.34-3.34a6.69,6.69,0,0,1,6.9-6.36c3.09,0,5.81,2,5.81,5.15,0,4.43-4.91,5.87-5.54,5.87a.55.55,0,0,1-.62-.5c0-.22.17-.45.54-.53,2.44-.52,4.6-2.19,4.6-4.91,0-2.52-2.24-4.29-4.81-4.29A.5.5,0,0,1,162.25,338.82Zm-6.19,5c0,1.23.74,2.34,1.46,2.34,1.22,0,3.45-4.32,3.7-7.34a.65.65,0,0,1,.18-.45A5.82,5.82,0,0,0,156.06,343.84Z"/>
          <path d="M181,334.73a.48.48,0,0,1,.51-.5.48.48,0,0,1,.5.5l0,1.39c2,0,4.16,0,5.75,0a.42.42,0,0,1,.45.41.43.43,0,0,1-.45.43H177.53c-.92,0-1.22.47-1.22,1.16,0,.86,0,1.83,0,2.82,0,2.83-.23,6-1.91,8.16a.53.53,0,0,1-1-.22.34.34,0,0,1,.09-.25c1.59-2,1.87-4.81,1.87-7.43,0-1.14,0-2.22-.07-3.21v0c0-1.15.74-1.8,2-1.81,1,0,2.25,0,3.63,0Zm4.9,11a.84.84,0,0,0-.95-.91h-2.31v4.75a.45.45,0,0,1-.45.47.46.46,0,0,1-.47-.47l0-4.75h-2a.88.88,0,0,0-1,1c0,.32,0,.9,0,1.47s0,1.19,0,1.59v0a.42.42,0,0,1-.44.43.44.44,0,0,1-.46-.47c0-.36,0-1,0-1.58s0-1.28,0-1.68c0-1,.57-1.53,1.74-1.53l2.16,0v-1.35c-1.1,0-2,0-2.07-1.22,0-.38,0-.88,0-1.39l-2.23,0a.41.41,0,0,1,0-.81h2.22V338a.46.46,0,0,1,.91,0v1.26l1.41,0,1.91,0V338a.39.39,0,0,1,.43-.36.46.46,0,0,1,.47.4v1.24h2.55a.41.41,0,0,1,0,.81l-2.55,0c0,.49,0,1,0,1.39-.05,1.15-1,1.22-2.11,1.22V344c.83,0,1.66,0,2.52,0a1.46,1.46,0,0,1,1.62,1.57v1.65c0,1.19-.52,1.84-1.8,1.84s-1.45-.32-1.45-.56.12-.43.34-.43H184a4.72,4.72,0,0,0,1,.13c.68,0,.95-.31.95-1Zm-2-5.68h-3.32c0,.45,0,.86,0,1.2,0,.65.42.69,1.68.69,1.1,0,1.62,0,1.62-.74Z"/>
          <path d="M198.54,335.65a.54.54,0,0,1,.59.51c0,.09,0,.81-.27,4.14-.12,1.65-.27,3.15-.27,4.64,0,.29,0,.56,0,.85a2.3,2.3,0,0,0,2.56,2.3,7.8,7.8,0,0,0,4.64-2,.73.73,0,0,1,.47-.2.54.54,0,0,1,.52.58.64.64,0,0,1-.25.5,8.83,8.83,0,0,1-5.35,2.13c-2,0-3.53-1-3.6-3.33,0-.27,0-.52,0-.78,0-1.56.18-2.95.26-4.62,0-1.08.16-2.63.16-3.78v-.42A.51.51,0,0,1,198.54,335.65Zm5.8,4.52a6.82,6.82,0,0,0-1.91-1.55.37.37,0,0,1-.24-.32.43.43,0,0,1,.45-.4c.42,0,2.51,1.23,2.51,2a.5.5,0,0,1-.47.5A.39.39,0,0,1,204.34,340.17Zm1.76-1.4a6.75,6.75,0,0,0-1.94-1.52.39.39,0,0,1-.26-.34.41.41,0,0,1,.45-.38c.36,0,2.56,1.16,2.56,1.91a.5.5,0,0,1-.47.51A.46.46,0,0,1,206.1,338.77Z"/>
          <path d="M219.62,343.47c2.08,3.76,2.84,5.24,2.84,5.74a.51.51,0,0,1-.49.54.52.52,0,0,1-.5-.45,31.21,31.21,0,0,0-2.57-5.4,8.82,8.82,0,0,1-2.25,1,.48.48,0,0,1-.47-.47c0-.18.11-.36.41-.45a11.41,11.41,0,0,0,1.89-.85,7.48,7.48,0,0,1-.92-2.14.44.44,0,0,1,.87-.11,12.25,12.25,0,0,0,.79,1.84l.18-.09c2.21-1.25,3.24-1.82,4.7-1.82s2.3.92,2.3,1.85a3.07,3.07,0,0,1-3.33,2.69c-1,0-2-.35-2-.89a.44.44,0,0,1,.43-.46.6.6,0,0,1,.33.1,2.11,2.11,0,0,0,1.26.35,2.16,2.16,0,0,0,2.34-1.77c0-.47-.4-1-1.46-1s-2.2.48-4.25,1.71Zm1.72-2.2a.41.41,0,0,1-.41-.34,2.33,2.33,0,0,0-.67-1.05.37.37,0,0,1-.12-.27.43.43,0,0,1,.45-.38c.45,0,1.26,1.1,1.26,1.55A.5.5,0,0,1,221.34,341.27Z"/>
          <path d="M237.09,338.77c-.52,0-1.67,0-1.67-.63a.43.43,0,0,1,.45-.45l.23,0a4.43,4.43,0,0,0,1.26.16,7.19,7.19,0,0,0,1.7-.21,12.8,12.8,0,0,0,.46-2.14.47.47,0,0,1,.49-.4.44.44,0,0,1,.49.43,13,13,0,0,1-.45,1.87,6.43,6.43,0,0,0,1.44-.7.42.42,0,0,1,.27-.09.44.44,0,0,1,.45.43c0,.53-1.19.94-2.45,1.32a38.59,38.59,0,0,1-3.42,6.37.66.66,0,0,1-.56.34.45.45,0,0,1-.47-.45.66.66,0,0,1,.13-.36,31,31,0,0,0,3.31-5.72A8,8,0,0,1,237.09,338.77Zm5.69,6.53c0-.7-.07-1.65-.07-2.37,0-1.3.11-1.59.54-1.59a.43.43,0,0,1,.45.45v.11a6,6,0,0,0-.09,1v.3c0,.69,0,1.5.06,2.13,0,.21,0,.47,0,.7,1.33.54,2.65,1.51,2.65,2.11a.53.53,0,0,1-.51.54.55.55,0,0,1-.43-.24,6.12,6.12,0,0,0-1.74-1.42l0,.23a2.92,2.92,0,0,1-3,2c-1.51,0-2.77-.92-2.77-2s1.26-1.87,3.08-1.87a6.93,6.93,0,0,1,1.83.27Zm-1.87,1c-.9,0-2.16.35-2.16,1.07s.9,1.13,1.87,1.13a2,2,0,0,0,2.07-1.44,3.68,3.68,0,0,0,.08-.41A5.61,5.61,0,0,0,240.91,346.27Zm5.76-5.76a5.15,5.15,0,0,0-2.79-.79l-.38,0h0a.38.38,0,0,1-.42-.38c0-.32.17-.52,1-.52s3.28.38,3.28,1.22a.51.51,0,0,1-.47.51A.45.45,0,0,1,246.67,340.51Z"/>
          <path d="M259.68,344.13a.57.57,0,0,1,.54.54c0,.11-.82,2.76-2.46,2.76-.92,0-3.1-1.14-3.42-6.32-.06-.8-.08-1.17-.08-1.59s0-.95.53-.95.52.36.52,1.4c0,5.21,1.89,6.32,2.43,6.32.22,0,.83-.09,1.49-1.82A.51.51,0,0,1,259.68,344.13Zm6.68-.41a5.81,5.81,0,0,0-2.21-3.71.44.44,0,0,1-.2-.38.45.45,0,0,1,.47-.45c.79,0,3,2.74,3,4.3a.65.65,0,0,1-.61.69A.5.5,0,0,1,266.36,343.72Z"/>
          <path d="M281.05,338.82c0,1.68-2.38,8.44-4.79,8.44-.93,0-2.34-1.22-2.34-3.34a6.69,6.69,0,0,1,6.9-6.36c3.09,0,5.81,2,5.81,5.15,0,4.43-4.91,5.87-5.54,5.87a.55.55,0,0,1-.62-.5c0-.22.17-.45.54-.53,2.44-.52,4.6-2.19,4.6-4.91,0-2.52-2.24-4.29-4.81-4.29A.5.5,0,0,1,281.05,338.82Zm-6.19,5c0,1.23.74,2.34,1.46,2.34,1.22,0,3.45-4.32,3.7-7.34a.65.65,0,0,1,.18-.45A5.82,5.82,0,0,0,274.86,343.84Z"/>
          <path d="M295.41,340.53h0a.45.45,0,0,1-.51-.43.47.47,0,0,1,.49-.47c1.13-.05,2.59-.09,4.07-.11a18.94,18.94,0,0,0,.21-2.57c0-.45.08-.81.53-.81a.55.55,0,0,1,.55.57,16.77,16.77,0,0,1-.25,2.79c.94,0,1.82,0,2.6,0a1.86,1.86,0,0,1,2,1.89,14.15,14.15,0,0,1-1.13,5.73,3.17,3.17,0,0,1-2.83,1.66c-1.05,0-2.52-.62-2.52-1.17a.51.51,0,0,1,.52-.51.69.69,0,0,1,.38.13,2.75,2.75,0,0,0,1.6.54,2.27,2.27,0,0,0,1.93-1.14,11.9,11.9,0,0,0,1-5,1.12,1.12,0,0,0-1.26-1.24c-.34,0-.74,0-1.15,0s-.88,0-1.37,0c-1.47,6.7-5.49,8.89-6,8.89a.5.5,0,0,1-.52-.48.67.67,0,0,1,.43-.58c2.79-1.51,4.41-4.63,5.1-7.82C297.88,340.44,296.48,340.48,295.41,340.53Z"/>
          <path d="M325.62,341.27c-1.51-.07-3.08-.07-4.68-.07v.05a8.43,8.43,0,0,1-6,8.05.47.47,0,0,1-.51-.47.59.59,0,0,1,.4-.54,7.36,7.36,0,0,0,5.08-7.09c-1.88,0-3.75.09-5.55.16h0a.48.48,0,1,1,0-1c1.77,0,3.66-.1,5.55-.12,0-1.21-.06-2.41-.09-3.15v0a.49.49,0,0,1,.5-.54.56.56,0,0,1,.58.51c0,.77,0,2.08,0,3.22.83,0,1.64,0,2.43,0s1.59,0,2.34,0c.42,0,.62.23.62.47a.56.56,0,0,1-.63.52Z"/>
          <g>
            <path class="cls-14" d="M339.18,334.15c-3.27.2-5,2.05-5.13,5.41h3.3a2.06,2.06,0,0,1,1.9-2.16c1.18-.13,2.3.16,2.64,1s-.45,1.89-.85,2.31c-.72.79-1.9,1.37-2.51,2.22a5.84,5.84,0,0,0-.75,3.29h2.91a4.13,4.13,0,0,1,.49-2.22,12.92,12.92,0,0,1,2.38-2,4.12,4.12,0,0,0,1.7-2.67C345.67,335.67,342.68,333.93,339.18,334.15Z"/>
            <path class="cls-14" d="M339.26,347.39a1.81,1.81,0,1,1-1.84,1.8A1.82,1.82,0,0,1,339.26,347.39Z"/>
          </g>
          <path d="M43.47,372.75a20.64,20.64,0,0,1-6.54,6.18.84.84,0,0,1-.47.14.48.48,0,0,1-.5-.48.51.51,0,0,1,.32-.47,17.5,17.5,0,0,0,6.77-6.5c-1.89,0-3.79.09-5.59.16h0a.47.47,0,0,1-.51-.45.46.46,0,0,1,.51-.45c2-.07,4.1-.13,6.21-.15,0-1.26-.09-2.32-.11-2.86v0a.47.47,0,0,1,.47-.51.51.51,0,0,1,.54.51c0,.59,0,1.65,0,2.89H48a.5.5,0,0,1,.56.47.5.5,0,0,1-.56.47h0c-1.1-.05-2.23-.07-3.39-.07,0,0,.08,2.61.24,7.09v.07c0,1.25-.81,1.86-2.07,1.86-.35,0-1.75,0-1.75-.67a.48.48,0,0,1,.47-.48.34.34,0,0,1,.14,0,4.23,4.23,0,0,0,1.08.19,1,1,0,0,0,1.14-1.09c0-1-.15-5.42-.17-6.16Z"/>
          <path d="M60,373.78a.54.54,0,0,1,.31.48.56.56,0,0,1-.52.56.54.54,0,0,1-.33-.11,7,7,0,0,0-2.63-1,.39.39,0,0,1-.34-.4.51.51,0,0,1,.52-.52A10.93,10.93,0,0,1,60,373.78Zm-1.33,6.66a.58.58,0,0,1-.59-.56.54.54,0,0,1,.45-.52c4-1.08,7.83-4.56,9.77-8.72a.52.52,0,0,1,.47-.28.51.51,0,0,1,.54.5.93.93,0,0,1-.11.38A17.6,17.6,0,0,1,58.66,380.44Zm3-8.88a7.59,7.59,0,0,0-2.36-1.6.41.41,0,0,1-.27-.38.5.5,0,0,1,.5-.5c.25,0,3.06,1.33,3.06,2.1a.56.56,0,0,1-.54.58A.57.57,0,0,1,61.67,371.56Zm5.11-2.16A5.73,5.73,0,0,0,65,368.12a.33.33,0,0,1-.23-.3.43.43,0,0,1,.45-.38c.4,0,2.29,1,2.29,1.67a.45.45,0,0,1-.44.45A.4.4,0,0,1,66.78,369.4Zm1.49-1.31a5.74,5.74,0,0,0-1.78-1.26.38.38,0,0,1-.25-.33.42.42,0,0,1,.45-.37c.32,0,2.34,1,2.34,1.65a.47.47,0,0,1-.45.47A.4.4,0,0,1,68.27,368.09Z"/>
          <path d="M89.15,372.12c-1.27,0-2.61-.07-4-.07v.77a8.8,8.8,0,0,1-4.75,8.12.91.91,0,0,1-.43.13.45.45,0,0,1-.47-.45.56.56,0,0,1,.32-.49,7.8,7.8,0,0,0,4.36-7.24v-.82c-1.28,0-2.54,0-3.78,0,0,1.21,0,2.4,0,3.21a.52.52,0,0,1-.54.54.44.44,0,0,1-.48-.45v0c0-.86,0-2,0-3.22l-3.84.14h0c-.36,0-.52-.21-.52-.43a.5.5,0,0,1,.5-.47l3.89-.09c0-1,0-2-.09-2.77v0a.46.46,0,0,1,.49-.48.5.5,0,0,1,.5.5c0,.7.05,1.71.07,2.77l3.8-.07c0-1.13,0-2.27,0-2.88s.35-.59.47-.59a.52.52,0,0,1,.52.57v2.9l4,0c.43,0,.61.21.61.45a.54.54,0,0,1-.58.5Z"/>
          <path d="M100,372.39a8.2,8.2,0,0,0-3-1.57.4.4,0,0,1-.31-.43.54.54,0,0,1,.52-.54,11,11,0,0,1,3.55,1.6.59.59,0,0,1,.24.47.65.65,0,0,1-.6.65A.54.54,0,0,1,100,372.39ZM98,380a.59.59,0,0,1-.63-.57.64.64,0,0,1,.56-.6c3.91-1,7.74-4.52,9.49-8.39a.53.53,0,0,1,.49-.3.53.53,0,0,1,.55.54.66.66,0,0,1-.09.36C105.14,377.72,98.76,380,98,380Z"/>
          <path d="M117.79,369.78a1.3,1.3,0,0,1,1.39,1.39,15.45,15.45,0,0,1-1,5.33c.55.34,1.38,1,1.38,1.38a.51.51,0,0,1-.43.54.4.4,0,0,1-.32-.18,5.5,5.5,0,0,0-1-.93,7.1,7.1,0,0,1-3.57,3.69.51.51,0,0,1-.49-.51.4.4,0,0,1,.2-.34,7.59,7.59,0,0,0,3.14-3.33,8.44,8.44,0,0,0-1.64-.72c-.2.81-.44.83-.65.83a.39.39,0,0,1-.42-.4,1,1,0,0,1,0-.2,36.46,36.46,0,0,0,1.31-5.7h-1.31a.39.39,0,0,1-.38-.41.37.37,0,0,1,.36-.41l1.46,0c.16-1.24.29-2.45.34-3.55a.41.41,0,0,1,.43-.41.48.48,0,0,1,.49.45v0c-.09,1.1-.21,2.25-.38,3.46Zm.49,1.55c0-.47-.24-.76-.67-.76h0l-.93,0c-.26,1.6-.58,3.24-1,4.75a11.13,11.13,0,0,1,1.79.7A13.28,13.28,0,0,0,118.28,371.33Zm7.54,9.76a.39.39,0,0,1-.41.41.42.42,0,0,1-.44-.43l0-5h-1.62l0,5a.38.38,0,0,1-.41.41.39.39,0,0,1-.41-.41l0-4.05a17.63,17.63,0,0,1-2.86,3.46.53.53,0,0,1-.38.16.43.43,0,0,1-.45-.42.53.53,0,0,1,.22-.38,15.25,15.25,0,0,0,3.26-3.79h-2a.35.35,0,0,1-.38-.36.38.38,0,0,1,.39-.38l2.2,0,0-1.5h-2.72a.35.35,0,0,1-.34-.38.34.34,0,0,1,.34-.37h2.72v-1.44h-1.89a.37.37,0,0,1-.39-.38.37.37,0,0,1,.39-.36h1.89l0-1.44-2.53,0a.37.37,0,0,1-.4-.38.4.4,0,0,1,.41-.41h4.65a.42.42,0,0,1,.05-.22,18.39,18.39,0,0,0,1-2.1.42.42,0,0,1,.41-.25c.27,0,.56.17.56.43a10.76,10.76,0,0,1-1.22,2.14h3.27a.4.4,0,1,1,0,.79l-3.09,0,0,1.44h1c1.57,0,1.6,1,1.6,2.15h1.19a.35.35,0,0,1,.34.39c0,.2-.1.4-.34.4h-1.19c0,1.24,0,2.16-1.63,2.18l-.74,0a12.93,12.93,0,0,0,3.53,3.47.45.45,0,0,1,.21.36.51.51,0,0,1-.5.5c-.47,0-2.31-1.76-3.51-3.56l.07,4.25ZM123,368.23a.38.38,0,0,1-.34-.23,5.11,5.11,0,0,0-.94-1.23.23.23,0,0,1-.07-.18.43.43,0,0,1,.45-.37c.43,0,1.39,1.18,1.39,1.54A.49.49,0,0,1,123,368.23Zm2,3.42h-1.56l0,1.44H125Zm0,2.18h-1.6v1.5H125Zm0-4.37h-1.55v1.44H125Zm.76,4.37v1.5l.92,0c.56,0,.86-.22.88-.69,0-.19,0-.5,0-.81Zm1.82-.74c0-1,0-1.44-.88-1.44h-.92v1.44Z"/>
          <path d="M138.09,370.27c-.52,0-1.67,0-1.67-.63a.43.43,0,0,1,.45-.45l.23,0a4.43,4.43,0,0,0,1.26.16,7.19,7.19,0,0,0,1.7-.21,12.8,12.8,0,0,0,.46-2.14.47.47,0,0,1,.49-.4.44.44,0,0,1,.49.43,13,13,0,0,1-.45,1.87,6.43,6.43,0,0,0,1.44-.7.42.42,0,0,1,.27-.09.44.44,0,0,1,.45.43c0,.53-1.19.94-2.45,1.32a38.59,38.59,0,0,1-3.42,6.37.66.66,0,0,1-.56.34.45.45,0,0,1-.47-.45.66.66,0,0,1,.13-.36,31,31,0,0,0,3.31-5.72A8,8,0,0,1,138.09,370.27Zm5.69,6.53c0-.7-.07-1.65-.07-2.37,0-1.3.11-1.59.54-1.59a.43.43,0,0,1,.45.45v.11a6,6,0,0,0-.09,1v.3c0,.69,0,1.5.06,2.13,0,.21,0,.47,0,.7,1.33.54,2.65,1.51,2.65,2.11a.53.53,0,0,1-.51.54.55.55,0,0,1-.43-.24,6.12,6.12,0,0,0-1.74-1.42l0,.23a2.92,2.92,0,0,1-3,2c-1.51,0-2.77-.92-2.77-2S140.13,377,142,377a6.93,6.93,0,0,1,1.83.27Zm-1.87,1c-.9,0-2.16.35-2.16,1.07s.9,1.13,1.87,1.13a2,2,0,0,0,2.07-1.44,3.68,3.68,0,0,0,.08-.41A5.61,5.61,0,0,0,141.91,377.77Zm5.76-5.76a5.15,5.15,0,0,0-2.79-.79l-.38,0h0a.38.38,0,0,1-.42-.38c0-.32.17-.52,1-.52s3.28.38,3.28,1.22a.51.51,0,0,1-.47.51A.45.45,0,0,1,147.67,372Z"/>
          <path d="M162.38,380.13c-3.15,0-5.57-1.33-5.57-2.21a.54.54,0,0,1,.54-.54.52.52,0,0,1,.4.2,5.68,5.68,0,0,0,4.27,1.47,11.56,11.56,0,0,0,3.4-.54,1.24,1.24,0,0,1,.31-.05.51.51,0,0,1,.55.52.71.71,0,0,1-.55.65A11.43,11.43,0,0,1,162.38,380.13Zm2.07-9.47a.58.58,0,0,1-.18,0,15.93,15.93,0,0,0-3.05-.3,15.66,15.66,0,0,0-2.73.25.47.47,0,0,1-.16,0,.49.49,0,0,1-.53-.49c0-.25.18-.52.62-.57a22.87,22.87,0,0,1,3.15-.2c3.18,0,3.47.38,3.47.79A.54.54,0,0,1,164.45,370.66Z"/>
          <path d="M178,368.7a.77.77,0,0,1-.18-.43.53.53,0,0,1,.56-.49.64.64,0,0,1,.51.27,21,21,0,0,1,2.3,4.68c.14-.09,3.55-2.36,4.07-2.36a.49.49,0,0,1,.52.49.75.75,0,0,1-.47.61c-2.37,1.23-6.84,3.57-6.84,5.94,0,2.08,3.06,2.08,3.4,2.08a9.19,9.19,0,0,0,3.19-.55,1,1,0,0,1,.34-.07.49.49,0,0,1,.53.51.72.72,0,0,1-.54.65,12.42,12.42,0,0,1-3.37.46c-3.69,0-4.52-1.78-4.52-3,0-1.68,1.53-3.19,2.86-4.16A16,16,0,0,0,178,368.7Z"/>
          <path d="M198.56,367.15a.55.55,0,0,1,.59.51c0,.09,0,.81-.27,4.14-.13,1.65-.27,3.15-.27,4.64,0,.29,0,.56,0,.85a2.3,2.3,0,0,0,2.55,2.3,7.8,7.8,0,0,0,4.65-2,.71.71,0,0,1,.47-.2.55.55,0,0,1,.52.58.64.64,0,0,1-.25.5,8.83,8.83,0,0,1-5.35,2.13c-2,0-3.53-1-3.6-3.33,0-.27,0-.52,0-.78,0-1.56.18-2.95.25-4.62.06-1.08.17-2.63.17-3.78v-.42A.51.51,0,0,1,198.56,367.15Z"/>
          <path d="M217.4,371.06c-1.11,0-1.69-.11-1.69-.65a.44.44,0,0,1,.49-.43.68.68,0,0,1,.19,0,4.41,4.41,0,0,0,1,.09,5.55,5.55,0,0,0,1.31-.15c.5-3.26.54-3.42,1-3.42a.49.49,0,0,1,.5.49.34.34,0,0,1,0,.14c-.14.52-.32,1.46-.5,2.5a7.32,7.32,0,0,0,1.73-.9.65.65,0,0,1,.38-.12.5.5,0,0,1,.5.5.62.62,0,0,1-.4.54,15.33,15.33,0,0,1-2.39,1c-.32,2-.63,4.09-.72,4.84a7.46,7.46,0,0,1,4.63-1.94c2.09,0,3.26,1.2,3.26,2.7a3.88,3.88,0,0,1-1.08,2.52c-1.48,1.66-4.52,2.21-5,2.21s-.58-.23-.58-.46.2-.49.6-.54c2.73-.33,5-1.86,5-3.8,0-1-.72-1.73-2.3-1.73a5.77,5.77,0,0,0-4,1.83c-.27.29-.44.8-.85.9a.3.3,0,0,1-.13,0c-.3,0-.61-.29-.61-.83,0-.28.67-4.82.76-5.47A6.25,6.25,0,0,1,217.4,371.06Z"/>
          <path d="M239.42,375c2.08,3.76,2.84,5.24,2.84,5.74a.51.51,0,0,1-.49.54.52.52,0,0,1-.5-.45,31.21,31.21,0,0,0-2.57-5.4,8.82,8.82,0,0,1-2.25,1,.48.48,0,0,1-.47-.47c0-.18.11-.36.41-.45a11.41,11.41,0,0,0,1.89-.85,7.48,7.48,0,0,1-.92-2.14.44.44,0,0,1,.87-.11,12.25,12.25,0,0,0,.79,1.84l.18-.09c2.21-1.25,3.24-1.82,4.7-1.82s2.3.92,2.3,1.85a3.07,3.07,0,0,1-3.33,2.69c-1,0-2-.35-2-.89a.44.44,0,0,1,.43-.46.6.6,0,0,1,.33.1,2.11,2.11,0,0,0,1.26.35,2.16,2.16,0,0,0,2.34-1.77c0-.47-.4-1-1.46-1s-2.2.48-4.25,1.71Zm1.72-2.2a.41.41,0,0,1-.41-.34,2.33,2.33,0,0,0-.67-1.05.37.37,0,0,1-.12-.27.43.43,0,0,1,.45-.38c.45,0,1.26,1.1,1.26,1.55A.5.5,0,0,1,241.14,372.77Z"/>
          <path d="M259.49,380.49A.49.49,0,0,1,259,380a.51.51,0,0,1,.48-.52c3.41-.47,5.21-2.17,5.21-3.61,0-1.26-1.23-2-2.72-2a9.61,9.61,0,0,0-3.48,1l-1.91.91a.71.71,0,0,1-.32.08.5.5,0,0,1-.52-.49.57.57,0,0,1,.39-.52,31.14,31.14,0,0,1,4.14-1.6A6.78,6.78,0,0,1,262,373c2.33,0,3.69,1.31,3.69,2.88a3.63,3.63,0,0,1-1.49,2.72A9.31,9.31,0,0,1,259.49,380.49Z"/>
          <path d="M276.32,371a4.53,4.53,0,0,1-1.68-.29.53.53,0,0,1-.31-.49.41.41,0,0,1,.42-.45.65.65,0,0,1,.23.06,4.77,4.77,0,0,0,1.59.25,6.66,6.66,0,0,0,1.46-.16,6.1,6.1,0,0,0,.12-1.21,7.66,7.66,0,0,0-.07-1v-.08a.45.45,0,0,1,.49-.45c.45,0,.59.31.59,1.17a6.44,6.44,0,0,1-.13,1.3,7,7,0,0,0,1.48-.72.43.43,0,0,1,.25-.07.53.53,0,0,1,.51.48c0,.24-.18.65-2.47,1.3a69.63,69.63,0,0,1-3.44,9.38.64.64,0,0,1-.58.4.47.47,0,0,1-.5-.49,1,1,0,0,1,.11-.41,56.43,56.43,0,0,0,3.38-8.65A8.11,8.11,0,0,1,276.32,371Zm8,9.31c-2.54,0-4.07-1.14-4.07-1.75a.55.55,0,0,1,.52-.54.5.5,0,0,1,.38.2,3.35,3.35,0,0,0,2.78,1,14.43,14.43,0,0,0,1.94-.16H286a.48.48,0,0,1,.52.5C286.47,380,286.07,380.28,284.29,380.28Zm1.87-7.51a7.24,7.24,0,0,0-2.48-.45,4.52,4.52,0,0,0-1.6.25.53.53,0,0,1-.16,0,.42.42,0,0,1-.42-.43c0-.71,1.8-.76,2.34-.76a8.06,8.06,0,0,1,2.61.43.48.48,0,0,1,.34.47.45.45,0,0,1-.43.48A.75.75,0,0,1,286.16,372.77Z"/>
          <path d="M298,380.31a.81.81,0,0,1-.87-.88.87.87,0,0,1,.89-.86.88.88,0,0,1,.9.84A.91.91,0,0,1,298,380.31Z"/>
          <path d="M304.61,380.31a.8.8,0,0,1-.86-.88.86.86,0,0,1,.88-.86.87.87,0,0,1,.9.84A.91.91,0,0,1,304.61,380.31Z"/>
          <path d="M311.25,380.31a.8.8,0,0,1-.86-.88.86.86,0,0,1,.88-.86.87.87,0,0,1,.9.84A.91.91,0,0,1,311.25,380.31Z"/>
          <g>
            <path class="cls-14" d="M324,365.65c-3.28.2-5,2.05-5.13,5.41h3.3a2.05,2.05,0,0,1,1.89-2.16c1.19-.13,2.31.16,2.65,1s-.46,1.89-.85,2.31c-.73.79-1.91,1.37-2.52,2.22a5.93,5.93,0,0,0-.75,3.29h2.91a4.22,4.22,0,0,1,.49-2.22,13.33,13.33,0,0,1,2.39-2,4.15,4.15,0,0,0,1.7-2.67C330.5,367.17,327.5,365.43,324,365.65Z"/>
            <path class="cls-14" d="M324.08,378.89a1.81,1.81,0,1,1-1.83,1.8A1.82,1.82,0,0,1,324.08,378.89Z"/>
          </g>
          <path d="M338.92,370.27c-.52,0-1.67,0-1.67-.63a.43.43,0,0,1,.45-.45l.23,0a4.38,4.38,0,0,0,1.26.16,7.11,7.11,0,0,0,1.69-.21,12.84,12.84,0,0,0,.47-2.14.47.47,0,0,1,.49-.4.43.43,0,0,1,.48.43,11.81,11.81,0,0,1-.45,1.87,6.23,6.23,0,0,0,1.44-.7.42.42,0,0,1,.27-.09.44.44,0,0,1,.45.43c0,.53-1.19.94-2.45,1.32a37.85,37.85,0,0,1-3.42,6.37.64.64,0,0,1-.55.34.45.45,0,0,1-.47-.45.64.64,0,0,1,.12-.36,30.56,30.56,0,0,0,3.32-5.72A8,8,0,0,1,338.92,370.27Zm5.69,6.53c0-.7-.07-1.65-.07-2.37,0-1.3.11-1.59.54-1.59a.44.44,0,0,1,.45.45v.11a5.12,5.12,0,0,0-.09,1v.3c0,.69,0,1.5.05,2.13,0,.21,0,.47,0,.7,1.33.54,2.64,1.51,2.64,2.11a.52.52,0,0,1-.5.54.54.54,0,0,1-.43-.24,6.32,6.32,0,0,0-1.75-1.42l0,.23a2.92,2.92,0,0,1-3,2c-1.52,0-2.78-.92-2.78-2S341,377,342.77,377a6.94,6.94,0,0,1,1.84.27Zm-1.87,1c-.9,0-2.16.35-2.16,1.07s.9,1.13,1.87,1.13a2,2,0,0,0,2.07-1.44,3.52,3.52,0,0,0,.07-.41A5.51,5.51,0,0,0,342.74,377.77ZM348.5,372a5.18,5.18,0,0,0-2.79-.79l-.38,0h0a.38.38,0,0,1-.41-.38c0-.32.16-.52,1-.52s3.27.38,3.27,1.22a.5.5,0,0,1-.46.51A.41.41,0,0,1,348.5,372Z"/>
          <path d="M356.63,374.05a.47.47,0,0,1-.52-.49.51.51,0,0,1,.52-.52h11.45a.51.51,0,1,1,0,1Z"/>
          <path d="M382.34,378.1c0-.76.09-1.24.09-1.91s-.06-1.66-1.26-1.66a4.23,4.23,0,0,0-3,1.77,13.71,13.71,0,0,0-1.17,2.5c-.36,1.15-.46,1.37-.93,1.37a.51.51,0,0,1-.54-.52,23.21,23.21,0,0,1,3-5.85c3.33-5.19,3.72-5.86,3.92-6.22a.57.57,0,0,1,.49-.32.56.56,0,0,1,.56.56c0,.21-.16.63-1.14,1.87a55.26,55.26,0,0,0-3.24,4.79s0,0,0,0a.57.57,0,0,0,.18-.11,3.46,3.46,0,0,1,2.05-.69,2.06,2.06,0,0,1,2.06,2.33c0,.61-.11,1.33-.11,1.89,0,1,.56,1.4,1.24,1.4s2.63-.34,3.92-3.62a.58.58,0,0,1,.54-.41.56.56,0,0,1,.58.57c0,.63-2.05,4.47-5.17,4.47a2,2,0,0,1-2.1-2.23Z"/>
          <path d="M405.81,380.44c-3.66,0-5.91-2.41-5.91-5.31a6.78,6.78,0,0,1,1.86-4.52q.21-.23.21-.27s0,0-.05,0a1.1,1.1,0,0,0-.29.07,54.21,54.21,0,0,1-5.35,1.5.59.59,0,0,1-.64-.54c0-.24.18-.47.54-.54s1.49-.31,2.09-.45c.9-.24,2.5-.6,4.39-1.14a27.14,27.14,0,0,1,5.11-1.08.56.56,0,0,1,.6.56c0,.49-.35.54-1.39.6a8.87,8.87,0,0,0-2.81.54,6,6,0,0,0-3.29,5.13c0,2.25,1.53,4.34,4.75,4.34H406c.53,0,.76.27.76.55S406.48,380.44,405.81,380.44Z"/>
          <path d="M422.6,380.13c-3.15,0-5.56-1.33-5.56-2.21a.53.53,0,0,1,.94-.34,5.67,5.67,0,0,0,4.26,1.47,11.57,11.57,0,0,0,3.41-.54,1.11,1.11,0,0,1,.3-.05.52.52,0,0,1,.56.52.71.71,0,0,1-.56.65A11.43,11.43,0,0,1,422.6,380.13Zm2.07-9.47a.65.65,0,0,1-.18,0,15.91,15.91,0,0,0-3-.3,15.69,15.69,0,0,0-2.74.25.41.41,0,0,1-.16,0,.49.49,0,0,1-.52-.49c0-.25.18-.52.61-.57a23,23,0,0,1,3.15-.2c3.19,0,3.48.38,3.48.79A.55.55,0,0,1,424.67,370.66Z"/>
          <path d="M438.19,368.7a.7.7,0,0,1-.18-.43.53.53,0,0,1,.56-.49.61.61,0,0,1,.5.27,20.62,20.62,0,0,1,2.31,4.68c.14-.09,3.54-2.36,4.07-2.36a.5.5,0,0,1,.52.49.77.77,0,0,1-.47.61c-2.38,1.23-6.84,3.57-6.84,5.94,0,2.08,3.06,2.08,3.4,2.08a9.23,9.23,0,0,0,3.19-.55.94.94,0,0,1,.34-.07.49.49,0,0,1,.52.51.71.71,0,0,1-.54.65,12.36,12.36,0,0,1-3.37.46c-3.69,0-4.51-1.78-4.51-3,0-1.68,1.53-3.19,2.86-4.16A16.54,16.54,0,0,0,438.19,368.7Z"/>
          <path d="M456.35,380.58a.62.62,0,0,1-.57-.5,11.29,11.29,0,0,1-.44-3.44,27.57,27.57,0,0,1,.16-2.86c.24-2.23.67-4.4.76-5.6,0-.38.25-.54.49-.54a.53.53,0,0,1,.54.52v.07c-.13.83-.42,2.56-.65,4.12a29.87,29.87,0,0,0-.36,4c0,.72.05,1.3.18,1.3s.14-.15.25-.38c.83-1.76.85-1.76,1.1-1.76a.42.42,0,0,1,.43.41.54.54,0,0,1-.07.27,28.6,28.6,0,0,0-1.21,2.86,2.61,2.61,0,0,0-.12.85.87.87,0,0,1-.16.54A.39.39,0,0,1,456.35,380.58Zm9.49-2a3.18,3.18,0,0,1-3,2.05c-1.2,0-2.59-.85-2.59-2s1.15-1.91,2.85-1.91a6.39,6.39,0,0,1,1.94.34v-.18l-.07-1.33c-.06-.81-.13-2.43-.18-4a13.7,13.7,0,0,1-2.38.23c-1.26,0-1.62-.09-1.62-.56a.48.48,0,0,1,.52-.46h.15a4.73,4.73,0,0,0,1.08.09,12.42,12.42,0,0,0,2.23-.23c0-.68,0-1.33,0-1.87s0-.74,0-1a.46.46,0,0,1,.51-.47c.25,0,.52.16.52.41v0c-.06.61-.06,1.6-.06,2.68.54-.12,1.07-.27,1.52-.41a.42.42,0,0,1,.16,0,.47.47,0,0,1,.47.49c0,.2-.13.39-.45.48-.56.15-1.14.27-1.7.4,0,1.55.08,3.15.13,4.12,0,.47.09,1.07.11,1.66,0,.11,0,.23,0,.34.27.13,2.43,1.23,2.43,1.91a.5.5,0,0,1-.49.52.56.56,0,0,1-.4-.18,7.76,7.76,0,0,0-1.62-1.26ZM463,377.5c-1.15,0-1.94.53-1.94,1.12s.66,1.12,1.67,1.12a2.14,2.14,0,0,0,2.16-1.5L465,378A5.51,5.51,0,0,0,463,377.5Z"/>
          <path d="M477.52,370.27c-.52,0-1.67,0-1.67-.63a.43.43,0,0,1,.45-.45l.23,0a4.38,4.38,0,0,0,1.26.16,7.11,7.11,0,0,0,1.69-.21A12.84,12.84,0,0,0,480,367a.47.47,0,0,1,.49-.4.43.43,0,0,1,.48.43,11.81,11.81,0,0,1-.45,1.87,6.23,6.23,0,0,0,1.44-.7.42.42,0,0,1,.27-.09.44.44,0,0,1,.45.43c0,.53-1.19.94-2.45,1.32a37.85,37.85,0,0,1-3.42,6.37.64.64,0,0,1-.55.34.45.45,0,0,1-.47-.45.64.64,0,0,1,.12-.36,30.56,30.56,0,0,0,3.32-5.72A8,8,0,0,1,477.52,370.27Zm5.69,6.53c0-.7-.07-1.65-.07-2.37,0-1.3.11-1.59.54-1.59a.44.44,0,0,1,.45.45v.11a5.12,5.12,0,0,0-.09,1v.3c0,.69,0,1.5,0,2.13,0,.21,0,.47,0,.7,1.33.54,2.64,1.51,2.64,2.11a.52.52,0,0,1-.5.54.54.54,0,0,1-.43-.24,6.32,6.32,0,0,0-1.75-1.42l0,.23a2.92,2.92,0,0,1-3,2c-1.52,0-2.78-.92-2.78-2s1.26-1.87,3.08-1.87a6.94,6.94,0,0,1,1.84.27Zm-1.87,1c-.9,0-2.16.35-2.16,1.07s.9,1.13,1.87,1.13a2,2,0,0,0,2.07-1.44,3.52,3.52,0,0,0,.07-.41A5.51,5.51,0,0,0,481.34,377.77ZM487.1,372a5.18,5.18,0,0,0-2.79-.79l-.38,0h0a.38.38,0,0,1-.41-.38c0-.32.16-.52,1-.52s3.27.38,3.27,1.22a.5.5,0,0,1-.46.51A.41.41,0,0,1,487.1,372Z"/>
          <path d="M500.11,375.63a.57.57,0,0,1,.54.54c0,.11-.83,2.76-2.47,2.76-.91,0-3.09-1.14-3.42-6.32-.05-.8-.07-1.17-.07-1.59s0-.95.52-.95.53.36.53,1.4c0,5.21,1.89,6.32,2.43,6.32.21,0,.82-.09,1.49-1.82A.51.51,0,0,1,500.11,375.63Zm6.68-.41a5.85,5.85,0,0,0-2.21-3.71.42.42,0,0,1-.2-.38.45.45,0,0,1,.47-.45c.79,0,3,2.74,3,4.3a.65.65,0,0,1-.61.69A.49.49,0,0,1,506.79,375.22Z"/>
          <path d="M517,372.43a17,17,0,0,1-1.87.14.45.45,0,0,1-.49-.45.48.48,0,0,1,.47-.49c.59,0,1.15,0,1.82-.07l1.17-.12a32.77,32.77,0,0,0,.7-3.3.51.51,0,0,1,.52-.45.49.49,0,0,1,.51.49,21,21,0,0,1-.69,3.15l1.48-.13c1.13,0,2.11.56,2.11,2.58,0,2.91-.85,6-3.5,6-.47,0-1.64-.11-1.64-.74a.48.48,0,0,1,.49-.47.44.44,0,0,1,.16,0,3.49,3.49,0,0,0,1,.16c2.21,0,2.48-3.51,2.48-4.81,0-1.15-.21-1.83-1.29-1.83a15.21,15.21,0,0,0-1.55.12,26.94,26.94,0,0,1-3.58,7.46.8.8,0,0,1-.65.36.48.48,0,0,1-.53-.45.82.82,0,0,1,.24-.52,21.1,21.1,0,0,0,3.47-6.72Zm10.48,2.36a7,7,0,0,0-3-3.37.36.36,0,0,1-.2-.33.45.45,0,0,1,.47-.43c.76,0,3.73,2.7,3.73,3.91a.55.55,0,0,1-.52.58A.51.51,0,0,1,527.51,374.79Z"/>
          <g>
            <circle class="cls-11" cx="540.5" cy="374.07" r="8.44"/>
            <path class="cls-12" d="M546,370.52a.16.16,0,0,1,0,.3,6.85,6.85,0,0,0-2.33.67,4.28,4.28,0,0,1,2.53,1.36.16.16,0,0,1-.15.26,9.64,9.64,0,0,0-4.45-.57c-.14,0-.26-.06-.23-.19A3.22,3.22,0,0,1,546,370.52Z"/>
            <path class="cls-12" d="M535,370.52a.16.16,0,0,0,0,.3,6.85,6.85,0,0,1,2.33.67,4.28,4.28,0,0,0-2.53,1.36.16.16,0,0,0,.15.26,9.64,9.64,0,0,1,4.45-.57c.14,0,.26-.06.23-.19A3.22,3.22,0,0,0,535,370.52Z"/>
            <path class="cls-12" d="M545.48,374.75c-.12-.14-.32-.12-.54-.12h-8.88c-.22,0-.42,0-.54.12-1.1,1.4.2,5.5,5,5.5S546.58,376.15,545.48,374.75Z"/>
            <path class="cls-15" d="M541,376.81c-.16,0-.41.14-.32.55,0,.2.33.45.33.77a.53.53,0,0,1-1.06,0c0-.32.29-.57.33-.77.1-.41-.15-.56-.32-.55a1.32,1.32,0,0,0-1.17,1.29,1.69,1.69,0,0,0,3.37,0A1.3,1.3,0,0,0,541,376.81Z"/>
            <path class="cls-16" d="M538.33,379.32a5.82,5.82,0,0,0,4.34,0,5.24,5.24,0,0,0-4.34,0Z"/>
            <path class="cls-9" d="M544.71,375.19h-8.42c-.57,0-.57,1.13,0,1.13h8.44C545.28,376.32,545.28,375.19,544.71,375.19Z"/>
          </g>
          <g>
            <path class="cls-17" d="M555.83,365.81c1.59,3.62,3.47,6.26,5.56,7.47a3.68,3.68,0,1,0,3.68-6.38C563,365.69,559.7,365.39,555.83,365.81Z"/>
            <path class="cls-17" d="M552.93,368.15c-1.82,2.49-2.87,4.78-2.87,6.66a2.87,2.87,0,1,0,5.73,0C555.79,372.93,554.72,370.6,552.93,368.15Z"/>
            <path class="cls-17" d="M557.64,373.85c-.33,3.06-.09,5.57.85,7.2a2.87,2.87,0,1,0,5-2.87C562.51,376.55,560.42,375.07,557.64,373.85Z"/>
          </g>
          <g>
            <path class="cls-17" d="M573.83,365.81c1.59,3.62,3.47,6.26,5.56,7.47a3.68,3.68,0,1,0,3.68-6.38C581,365.69,577.7,365.39,573.83,365.81Z"/>
            <path class="cls-17" d="M570.93,368.15c-1.82,2.49-2.87,4.78-2.87,6.66a2.87,2.87,0,1,0,5.73,0C573.79,372.93,572.72,370.6,570.93,368.15Z"/>
            <path class="cls-17" d="M575.64,373.85c-.33,3.06-.09,5.57.85,7.2a2.87,2.87,0,1,0,5-2.87C580.51,376.55,578.42,375.07,575.64,373.85Z"/>
          </g>
          <path d="M42.68,412.71A7.69,7.69,0,1,1,50.36,405,7.68,7.68,0,0,1,42.68,412.71Zm0-14.6A6.92,6.92,0,1,0,49.59,405,6.92,6.92,0,0,0,42.68,398.11Z"/>
          <path d="M62.48,412.71A7.69,7.69,0,1,1,70.16,405,7.68,7.68,0,0,1,62.48,412.71Zm0-14.6A6.92,6.92,0,1,0,69.39,405,6.92,6.92,0,0,0,62.48,398.11Z"/>
          <path d="M88.16,405.4c-1.08,0-2.93,0-4.93,0v0a7.55,7.55,0,0,1-5.38,7.06,1,1,0,0,1-.38.07.47.47,0,0,1-.54-.48.55.55,0,0,1,.43-.54,6.5,6.5,0,0,0,4.9-6.14c-2.14,0-4.34,0-5.91.05h0a.43.43,0,0,1-.46-.43.46.46,0,0,1,.5-.45c1.46,0,3.71-.05,5.91-.05,0-1.05,0-2.35,0-3.05a24.56,24.56,0,0,1-4,.42c-.4,0-.58-.24-.58-.45s.18-.45.56-.45h.42a21.85,21.85,0,0,0,6.75-1.28.59.59,0,0,1,.3-.07.43.43,0,0,1,.45.45c0,.28,0,.55-2.82,1.18v.85c0,.76,0,1.64,0,2.4,2.09,0,4,0,4.93,0a.48.48,0,0,1,.52.45.46.46,0,0,1-.52.43Z"/>
          <path d="M98.24,407.42a.51.51,0,0,1-.23,0,.42.42,0,0,1-.42-.44.48.48,0,0,1,.35-.45l2.5-.88c-.25-.85-.49-1.6-.67-2.12a.83.83,0,0,1,0-.22.44.44,0,0,1,.46-.45.47.47,0,0,1,.47.38l.61,2.12a32.73,32.73,0,0,1,4.47-1.38.78.78,0,0,1,.88.75c0,1.07-2.12,3.77-2.81,3.77a.46.46,0,0,1-.45-.45.52.52,0,0,1,.24-.42,6.36,6.36,0,0,0,2-2.68s0-.07-.09-.07c-.31,0-3.32,1.08-4,1.31.59,2,1.27,4.27,1.74,5.55a.79.79,0,0,1,.06.29.5.5,0,0,1-.49.52.52.52,0,0,1-.49-.42c-.39-1.33-1.06-3.63-1.67-5.63Z"/>
          <path d="M119.81,403.89a8.2,8.2,0,0,0-3-1.57.4.4,0,0,1-.31-.43.54.54,0,0,1,.53-.54,11.1,11.1,0,0,1,3.54,1.6.59.59,0,0,1,.24.47.65.65,0,0,1-.6.65A.54.54,0,0,1,119.81,403.89Zm-2,7.56a.59.59,0,0,1-.63-.57.64.64,0,0,1,.56-.6c3.91-1,7.74-4.52,9.49-8.39a.53.53,0,0,1,.49-.3.53.53,0,0,1,.55.54.66.66,0,0,1-.09.36C124.94,409.22,118.56,411.45,117.84,411.45Z"/>
          <path d="M138.36,400.2a.77.77,0,0,1-.18-.43.53.53,0,0,1,.56-.49.64.64,0,0,1,.51.27,21,21,0,0,1,2.3,4.68c.14-.09,3.55-2.36,4.07-2.36a.49.49,0,0,1,.52.49.75.75,0,0,1-.47.61c-2.37,1.23-6.84,3.57-6.84,5.94,0,2.08,3.06,2.08,3.4,2.08a9.19,9.19,0,0,0,3.19-.55,1,1,0,0,1,.34-.07.49.49,0,0,1,.53.51.72.72,0,0,1-.54.65,12.42,12.42,0,0,1-3.37.46c-3.69,0-4.52-1.78-4.52-3,0-1.68,1.53-3.19,2.86-4.16A16,16,0,0,0,138.36,400.2Z"/>
          <path d="M155.93,412.46l.25-10.44c-1.83,2.36-2.27,2.43-2.43,2.43a.45.45,0,0,1-.47-.41.5.5,0,0,1,.18-.35,18.06,18.06,0,0,0,4.33-6,.45.45,0,0,1,.41-.29.55.55,0,0,1,.52.5,14.34,14.34,0,0,1-1.6,2.83l-.23,11.74a.44.44,0,0,1-.49.45.42.42,0,0,1-.47-.43Zm8.39-3.69a6.88,6.88,0,0,0,4.5,3,.47.47,0,0,1,.36.45.49.49,0,0,1-.52.49,7.69,7.69,0,0,1-5-3.51c-1.3,3.1-4.88,3.64-5.09,3.64a.47.47,0,0,1-.47-.47.45.45,0,0,1,.43-.45c2.5-.47,3.76-1.55,4.34-3.1l-4,0a.37.37,0,0,1-.37-.4.36.36,0,0,1,.37-.39h4.24a7.13,7.13,0,0,0,.16-1.44l-3.42,0a.38.38,0,1,1,0-.75h3.44v-1.4h-3.79a.35.35,0,0,1-.37-.38.35.35,0,0,1,.37-.36h2.38a4.74,4.74,0,0,0-.61-1.21.22.22,0,0,1-.06-.14c0-.18.24-.32.49-.32.63,0,1.08,1.49,1.1,1.56a.23.23,0,0,1,0,.11h1.87a5.7,5.7,0,0,0,.5-1.46.38.38,0,0,1,.4-.3c.27,0,.56.18.56.45a5.86,5.86,0,0,1-.54,1.31h2.59a.36.36,0,0,1,.38.36.36.36,0,0,1-.38.38h-4c0,.34,0,.88,0,1.4h3.34a.34.34,0,0,1,.36.37.35.35,0,0,1-.36.38l-3.36,0A7.13,7.13,0,0,1,164,408h4.67a.37.37,0,0,1,.36.39.37.37,0,0,1-.36.4Zm-.5-7.06-4.56,0a.41.41,0,1,1,0-.81l3,0,0-3.12a.44.44,0,0,1,.87,0v3.12h1.29v-3.12a.44.44,0,0,1,.87,0v3.12l3.13,0a.41.41,0,1,1,0,.81Zm-3.3-1.69a8,8,0,0,0-1-1.46.27.27,0,0,1-.06-.16.48.48,0,0,1,.47-.4c.42,0,1.44,1.37,1.44,1.73a.51.51,0,0,1-.48.51A.38.38,0,0,1,160.52,400Zm6,.4a.42.42,0,0,1-.43-.38.37.37,0,0,1,.12-.27A11.15,11.15,0,0,0,167.4,398a.32.32,0,0,1,.29-.18.54.54,0,0,1,.52.48,8.5,8.5,0,0,1-1.4,2A.43.43,0,0,1,166.5,400.42Z"/>
          <path d="M176.33,412.08a.63.63,0,0,1-.58-.5,11.3,11.3,0,0,1-.43-3.44,25.05,25.05,0,0,1,.16-2.86c.23-2.23.67-4.4.76-5.6a.49.49,0,0,1,.48-.54.53.53,0,0,1,.54.52v.07c-.12.83-.41,2.56-.65,4.12a29.87,29.87,0,0,0-.36,4c0,.72.06,1.3.18,1.3s.15-.15.26-.38c.82-1.76.84-1.76,1.09-1.76a.42.42,0,0,1,.44.41.47.47,0,0,1-.08.27,29,29,0,0,0-1.2,2.86,2.61,2.61,0,0,0-.13.85.81.81,0,0,1-.16.54A.38.38,0,0,1,176.33,412.08Zm9.48-2a3.16,3.16,0,0,1-3,2.05c-1.21,0-2.6-.85-2.6-2s1.16-1.91,2.85-1.91a6.34,6.34,0,0,1,1.94.34v-.18l-.07-1.33c-.05-.81-.12-2.43-.18-4a13.59,13.59,0,0,1-2.37.23c-1.27,0-1.63-.09-1.63-.56a.48.48,0,0,1,.53-.46h.14a4.73,4.73,0,0,0,1.08.09,12.32,12.32,0,0,0,2.23-.23c0-.68,0-1.33,0-1.87s0-.74,0-1a.46.46,0,0,1,.5-.47c.25,0,.52.16.52.41v0c-.05.61-.05,1.6-.05,2.68.54-.12,1.06-.27,1.51-.41a.45.45,0,0,1,.63.45c0,.2-.13.39-.45.48-.56.15-1.13.27-1.69.4,0,1.55.07,3.15.12,4.12,0,.47.09,1.07.11,1.66,0,.11,0,.23,0,.34.27.13,2.43,1.23,2.43,1.91a.5.5,0,0,1-.49.52.54.54,0,0,1-.39-.18,7.76,7.76,0,0,0-1.62-1.26ZM183,409c-1.16,0-1.95.53-1.95,1.12s.67,1.12,1.68,1.12a2.16,2.16,0,0,0,2.16-1.5l0-.29A5.45,5.45,0,0,0,183,409Z"/>
          <path d="M207.74,410.52v.09c0,1.15-.6,2.1-2.63,2.1a8.37,8.37,0,0,1-1.55-.14.49.49,0,0,1-.43-.49.43.43,0,0,1,.43-.45h.09a9.84,9.84,0,0,0,1.62.18c1,0,1.46-.34,1.46-1.35,0-2.27,0-4.93-.07-7,0-1.08-.49-1.37-1.46-1.38-1.17,0-2.43,0-3.67,0v6.52c1.41,0,2.09,0,2.13-1,0-.43,0-.63,0-3.65a.46.46,0,0,1,.92,0v1c0,.93,0,2.09,0,2.79,0,.92-.52,1.55-1.73,1.58-.52,0-1.17,0-1.8,0s-1.26,0-1.78,0a1.52,1.52,0,0,1-1.68-1.58c0-.51,0-1.23,0-1.95s0-1.42,0-1.85a.46.46,0,0,1,.49-.41.39.39,0,0,1,.43.37v0c0,.41,0,1.14,0,1.86s0,1.44,0,1.81c0,.94.65,1,2.11,1V402c-1.24,0-2.46,0-3.52,0s-1.5.34-1.52,1.33c0,2.7,0,5.89,0,9.15a.5.5,0,0,1-1,0c0-3.16.05-6.7.09-9.57,0-1,.72-1.71,2.09-1.72s2.57,0,3.9,0v-2l-6.49,0a.43.43,0,0,1-.45-.45.43.43,0,0,1,.45-.45h14a.43.43,0,0,1,.45.45.43.43,0,0,1-.45.45l-6.58,0v2c1.35,0,2.73,0,4.12.06a1.77,1.77,0,0,1,2,1.87c0,2,0,4.18.07,5.67Z"/>
          <path d="M213.3,411.4a.45.45,0,0,1,.27-.4,5.36,5.36,0,0,0,2-2.55.45.45,0,0,1,.42-.33.51.51,0,0,1,.52.45c0,.78-1.76,3.31-2.68,3.31A.5.5,0,0,1,213.3,411.4Zm10.87-6c-1.1,0-2.36.08-3.58.08s-2.41,0-3.4-.08c-1.28-.05-1.93-.64-2-1.67,0-.52,0-1.17,0-1.82s0-1.58,0-2.21c0-1,.67-1.69,2-1.73,1,0,2.29,0,3.53,0s2.5,0,3.56,0c1.25,0,1.93.65,2,1.69,0,.56.06,1.37.06,2.14,0,.58,0,1.14,0,1.61C226.28,404.63,225.61,405.33,224.17,405.38Zm-3.89-6.67c-1.08,0-2.12,0-3,.05-1.24,0-1.24.88-1.24,2.47h4.21Zm0,3.27h-4.21c0,.51,0,1,0,1.44,0,.76.45,1.14,1.26,1.17s1.89.08,2.91.08Zm-1.44,5.46c0,.65,0,1.87,0,2.63,0,1.33.05,1.65,2.3,1.65,2.07,0,2.68-.41,2.74-1.69a.42.42,0,0,1,.47-.43.48.48,0,0,1,.52.45c0,2.47-2.13,2.54-3.93,2.54-1.31,0-3.06,0-3.06-1.91,0-.79,0-2.41,0-3.26,0-.25.25-.38.48-.38s.47.13.47.38Zm3.55,1.08a7.7,7.7,0,0,0-2.31-1.64.36.36,0,0,1-.21-.32.44.44,0,0,1,.45-.42c.36,0,2.92,1.32,2.92,2a.54.54,0,0,1-.51.54A.48.48,0,0,1,222.39,408.52Zm3.06-7.29c0-1.62,0-2.42-1.3-2.47-.81,0-1.87-.05-3-.05v2.52Zm-4.25.75v2.69c1,0,2,0,2.9-.08,1.3,0,1.35-.91,1.35-2.61Zm6.61,8.93a7.5,7.5,0,0,0-2.52-2.39.32.32,0,0,1-.18-.29.47.47,0,0,1,.48-.45c.56,0,3.17,2,3.17,2.85a.54.54,0,0,1-.54.54A.49.49,0,0,1,227.81,410.91Z"/>
          <path d="M239.88,407.13a.57.57,0,0,1,.54.54c0,.11-.82,2.76-2.46,2.76-.92,0-3.1-1.14-3.42-6.32-.06-.8-.08-1.17-.08-1.59s0-.95.53-.95.52.36.52,1.4c0,5.21,1.89,6.32,2.43,6.32.22,0,.83-.09,1.49-1.82A.51.51,0,0,1,239.88,407.13Zm6.68-.41a5.81,5.81,0,0,0-2.21-3.71.44.44,0,0,1-.2-.38.45.45,0,0,1,.47-.45c.79,0,3,2.74,3,4.3a.65.65,0,0,1-.61.69A.5.5,0,0,1,246.56,406.72Z"/>
          <path class="cls-10" d="M268.65,401.67c-1.8-4.75-7.64-2.62-8.18-.24-.74-2.54-6.43-4.42-8.17.25-1.94,5.2,7.5,9.87,8.17,10.64C261.15,411.71,270.58,406.79,268.65,401.67Z"/>
          <path d="M274.5,402.47a4.56,4.56,0,0,1-1.68-.29.53.53,0,0,1-.3-.49.4.4,0,0,1,.41-.45.75.75,0,0,1,.24.06,4.67,4.67,0,0,0,1.58.25,6.6,6.6,0,0,0,1.46-.16,6.1,6.1,0,0,0,.12-1.21,7.66,7.66,0,0,0-.07-1v-.08a.45.45,0,0,1,.49-.45c.45,0,.59.31.59,1.17a6.42,6.42,0,0,1-.12,1.3,7.19,7.19,0,0,0,1.47-.72.43.43,0,0,1,.25-.07.52.52,0,0,1,.51.48c0,.29-.27.67-2.49,1.3a71.29,71.29,0,0,1-3.43,9.38.65.65,0,0,1-.58.4.48.48,0,0,1-.49-.49,1,1,0,0,1,.11-.41,57.3,57.3,0,0,0,3.39-8.65A8.22,8.22,0,0,1,274.5,402.47Zm8,9.31c-2.53,0-4.07-1.14-4.07-1.75a.56.56,0,0,1,.53-.54.5.5,0,0,1,.37.2,3.32,3.32,0,0,0,2.78,1,14.28,14.28,0,0,0,1.92-.16h.11a.51.51,0,0,1,.54.5C284.65,411.33,284.6,411.78,282.47,411.78Zm1.86-7.51a7.26,7.26,0,0,0-2.49-.45,4.44,4.44,0,0,0-1.58.25.47.47,0,0,1-.16,0,.43.43,0,0,1-.42-.43c0-.73,1.86-.76,2.34-.76a8.14,8.14,0,0,1,2.6.43.48.48,0,0,1,.34.47.45.45,0,0,1-.43.48A.64.64,0,0,1,284.33,404.27Zm-.22-3a5.53,5.53,0,0,0-1.74-1.28.33.33,0,0,1-.24-.31.43.43,0,0,1,.45-.38c.4,0,2.29,1,2.29,1.68a.46.46,0,0,1-.43.45A.44.44,0,0,1,284.11,401.23Zm1.48-1.32a6,6,0,0,0-1.78-1.26.35.35,0,0,1-.24-.31A.43.43,0,0,1,284,398c.25,0,2.34.95,2.34,1.66a.48.48,0,0,1-.47.46A.39.39,0,0,1,285.59,399.91Z"/>
          <path d="M297.07,408.84c0,.76,0,2.87,2,2.87a3.06,3.06,0,0,0,2.93-3.08,4.35,4.35,0,0,0-1.4-2.88.59.59,0,0,1-.18-.4.46.46,0,0,1,.5-.43.66.66,0,0,1,.47.21,5.54,5.54,0,0,1,1.62,3.55,4.05,4.05,0,0,1-4,3.94c-1.5,0-2.85-1-2.92-3.15V409c0-.51,0-1.05.06-1.61a10,10,0,0,1-2-.34c-.34-.09-.46-.3-.46-.5a.47.47,0,0,1,.46-.49.65.65,0,0,1,.2,0,9,9,0,0,0,1.84.36c.09-1.05.21-2.15.32-3.17-1.87-.16-2.36-.45-2.36-.87a.48.48,0,0,1,.49-.46.58.58,0,0,1,.22,0,6.58,6.58,0,0,0,1.74.38c.16-1.78.25-2.77.31-3.76a.48.48,0,0,1,.48-.51.55.55,0,0,1,.56.53v0c0,.88-.18,1.62-.29,2.68l-.1,1.05a6.34,6.34,0,0,0,1.18-.15H299a.42.42,0,0,1,.46.43c0,.65-1.38.66-1.94.66-.13,1-.27,2.09-.36,3.16a5.87,5.87,0,0,0,1.69-.29.85.85,0,0,1,.22,0,.46.46,0,0,1,.48.47.48.48,0,0,1-.39.47,8.07,8.07,0,0,1-2.05.32C297.09,407.89,297.07,408.37,297.07,408.84Z"/>
          <path d="M318.31,409.6c0-.76.09-1.24.09-1.91s0-1.66-1.26-1.66a4.19,4.19,0,0,0-2.95,1.77,12.5,12.5,0,0,0-1.17,2.5c-.36,1.15-.47,1.37-.94,1.37a.51.51,0,0,1-.54-.52,23.21,23.21,0,0,1,3-5.85c3.33-5.19,3.73-5.86,3.93-6.22a.55.55,0,0,1,.48-.32.56.56,0,0,1,.56.56c0,.21-.16.63-1.13,1.87a52.86,52.86,0,0,0-3.24,4.79s0,0,0,0a.57.57,0,0,0,.18-.11,3.47,3.47,0,0,1,2.06-.69,2.06,2.06,0,0,1,2.05,2.33c0,.61-.11,1.33-.11,1.89,0,1,.56,1.4,1.24,1.4s2.63-.34,3.93-3.62a.57.57,0,0,1,.54-.41.56.56,0,0,1,.57.57c0,.63-2.05,4.47-5.16,4.47a2,2,0,0,1-2.11-2.23Z"/>
          <path d="M331.75,409.63a.5.5,0,0,1-.52-.46.6.6,0,0,1,.43-.53c3.7-1.45,7.67-5.47,7.67-6,0-.13-.12-.18-.39-.18s-2.76.07-5.08.18h0a.47.47,0,0,1-.53-.43.5.5,0,0,1,.53-.47c1.29-.09,4.87-.16,5.38-.16.85,0,1.28.38,1.28.88s-.25.92-2,2.65a1.73,1.73,0,0,1,.16.9v.34c0,1.06-.09,2.74-.09,4.25,0,.41,0,.83,0,1.21a.55.55,0,0,1-.57.63.49.49,0,0,1-.51-.51v0c.07-1.53.2-3.45.2-4.91v-.47c0-.25,0-.47,0-.66A18.49,18.49,0,0,1,331.75,409.63Zm7.39-9.81a8.11,8.11,0,0,0-3.24-1,.34.34,0,0,1-.35-.36A.46.46,0,0,1,336,398c.38,0,3.8.5,3.8,1.42a.51.51,0,0,1-.45.5A.43.43,0,0,1,339.14,399.82Zm4.37,8.75a9.49,9.49,0,0,0-3.36-2.1.36.36,0,0,1-.26-.35.45.45,0,0,1,.45-.43c.45,0,4,1.64,4,2.5a.54.54,0,0,1-.5.53A.45.45,0,0,1,343.51,408.57Z"/>
          <g>
            <polygon class="cls-10" points="355.14 408.5 352.33 408.5 351.2 397.13 356.27 397.13 355.14 408.5"/>
            <path class="cls-10" d="M353.74,409.7a2.15,2.15,0,1,1-2.16,2.15A2.15,2.15,0,0,1,353.74,409.7Z"/>
            <polygon class="cls-10" points="363.01 408.5 360.21 408.5 359.08 397.13 364.14 397.13 363.01 408.5"/>
            <path class="cls-10" d="M361.61,409.7a2.15,2.15,0,1,1-2.15,2.15A2.16,2.16,0,0,1,361.61,409.7Z"/>
          </g>
          <path d="M35,442.38a.55.55,0,0,1,.22-.4,6.19,6.19,0,0,0,1.64-2.7.37.37,0,0,1,.39-.32.45.45,0,0,1,.45.43c0,.65-1.37,3.4-2.25,3.4A.43.43,0,0,1,35,442.38Zm3.89-4.58-2.88,0a.41.41,0,0,1,0-.81h2.81l0-4.12a.44.44,0,0,1,.47-.45.43.43,0,0,1,.45.45v1.31l2.18,0a.42.42,0,0,1,0,.83H39.67l0,2h3a.38.38,0,0,1,.38.42.37.37,0,0,1-.38.39l-2.92,0v3.26c0,.22,0,.76,0,1.24v.15c0,.9-.29,1.64-1.64,1.64-1,0-1.33-.13-1.33-.54a.41.41,0,0,1,.38-.45h.09a4.86,4.86,0,0,0,.88.11c.52,0,.7-.24.7-1Zm9.87-5.29c0-.61-.25-1-1.23-1-1.33,0-3.11,0-4.86,0s-3.45,0-4.71,0c-.89,0-1.21.32-1.23,1V434a.45.45,0,0,1-.49.43c-.5,0-.5-.29-.5-1.26,0-.31,0-.63,0-.9,0-.88.59-1.55,1.87-1.57h4.63l0-1.57a.52.52,0,0,1,1,0v1.57h4.62a1.71,1.71,0,0,1,1.88,1.55c0,.22,0,.54,0,.87,0,1,0,1.29-.54,1.29a.43.43,0,0,1-.48-.43Zm-6.68,9a7.42,7.42,0,0,0-1.44-1.82.35.35,0,0,1-.11-.23.45.45,0,0,1,.43-.43c.49,0,2,1.74,2,2.19a.55.55,0,0,1-.5.54A.41.41,0,0,1,42,441.51ZM42,444.34a.47.47,0,0,1-.49-.45.56.56,0,0,1,.38-.49,9.21,9.21,0,0,0,3.67-3.11,10.24,10.24,0,0,1-1.82-4.23.46.46,0,0,1,.49-.43.38.38,0,0,1,.41.32A10.23,10.23,0,0,0,46,439.5a10.51,10.51,0,0,0,1.53-4.27c0-.43-.21-.63-.68-.63l-3.87,0c-.22,0-.33-.21-.33-.43s.11-.41.31-.41h4.11c1.08,0,1.49.48,1.49,1.24a13.37,13.37,0,0,1-2,5.28,9.72,9.72,0,0,0,3.33,2.84.52.52,0,0,1-.21,1c-.44,0-2-.93-3.64-3.08A8.59,8.59,0,0,1,42,444.34Z"/>
          <path d="M60,430.15a.55.55,0,0,1,.59.51c0,.09,0,.81-.27,4.14-.13,1.65-.27,3.15-.27,4.64,0,.29,0,.56,0,.85a2.3,2.3,0,0,0,2.55,2.3,7.8,7.8,0,0,0,4.65-2,.71.71,0,0,1,.47-.2.55.55,0,0,1,.52.58.64.64,0,0,1-.25.5,8.83,8.83,0,0,1-5.35,2.13c-2,0-3.53-1-3.6-3.33,0-.27,0-.52,0-.78,0-1.56.18-2.95.25-4.62.06-1.08.17-2.63.17-3.78v-.42A.51.51,0,0,1,60,430.15Z"/>
          <path d="M81.48,438.63a.57.57,0,0,1,.54.54c0,.11-.82,2.76-2.46,2.76-.92,0-3.1-1.14-3.42-6.32-.06-.8-.08-1.17-.08-1.59s0-.95.53-.95.52.36.52,1.4c0,5.21,1.89,6.32,2.43,6.32.22,0,.83-.09,1.49-1.82A.51.51,0,0,1,81.48,438.63Zm6.68-.41A5.81,5.81,0,0,0,86,434.51a.44.44,0,0,1-.2-.38.45.45,0,0,1,.47-.45c.79,0,3,2.74,3,4.3a.65.65,0,0,1-.61.69A.5.5,0,0,1,88.16,438.22Z"/>
          <g>
            <circle class="cls-11" cx="102.07" cy="437.07" r="8.44"/>
            <path class="cls-18" d="M108,435.3a4,4,0,0,0-3.29-.88c-.16,0-.31-.57-.11-.61a4.61,4.61,0,0,1,3.79,1C108.59,435,108.16,435.41,108,435.3Z"/>
            <path class="cls-18" d="M99.4,434.38a4,4,0,0,0-3.29.88c-.13.11-.55-.34-.4-.47a4.62,4.62,0,0,1,3.8-1C99.71,433.81,99.56,434.41,99.4,434.38Z"/>
            <path class="cls-12" d="M103.17,437.13c1.19,2.23,3.58,2.23,4.76,0,.06-.12-.1-.17-.28-.3a3.6,3.6,0,0,1-4.19,0C103.27,437,103.12,437,103.17,437.13Z"/>
            <path class="cls-12" d="M96.22,437.13c1.18,2.23,3.57,2.23,4.75,0,.06-.12-.09-.17-.28-.3a3.6,3.6,0,0,1-4.19,0C96.31,437,96.16,437,96.22,437.13Z"/>
            <path class="cls-12" d="M103.76,442.13h-3.38c-.37,0-.37-1.13,0-1.13h3.38C104.14,441,104.14,442.13,103.76,442.13Z"/>
          </g>
          <path d="M113.67,444.14a.49.49,0,0,1-.51-.47.47.47,0,0,1,.33-.43,12.72,12.72,0,0,0,4.39-2.88,17.67,17.67,0,0,0-2.29-1.28.38.38,0,0,1-.25-.36.48.48,0,0,1,.47-.47,11.56,11.56,0,0,1,2.7,1.44,15.43,15.43,0,0,0,1.87-2.53.44.44,0,0,1,.4-.24.54.54,0,0,1,.54.49,10.11,10.11,0,0,1-2,2.81c2.38,1.67,2.4,2.14,2.4,2.25a.59.59,0,0,1-.54.57.42.42,0,0,1-.36-.2,12.24,12.24,0,0,0-2.14-2C116.28,443.21,114.12,444.14,113.67,444.14Zm2.88-12.76c-.54.84-1.91,2.82-2.52,2.82a.46.46,0,0,1-.47-.43.42.42,0,0,1,.2-.36,11.47,11.47,0,0,0,3-4.36.38.38,0,0,1,.38-.23.5.5,0,0,1,.52.45,4.87,4.87,0,0,1-.61,1.3h8.87a.39.39,0,0,1,.42.39.42.42,0,0,1-.44.42Zm8.69,12.08c-1.29-1.7-1.31-4.4-1.31-6.34,0-.72-.23-1.17-1-1.17h-2.33c-2.1,0-4.61,0-6.14,0a.4.4,0,0,1,0-.79c1.46,0,3,0,4.5,0s3,0,4.25,0a1.5,1.5,0,0,1,1.69,1.53v.43c0,3,.22,4.59,1.08,5.67a.71.71,0,0,0,.47.31c.42,0,.76-.69.9-1.91a.41.41,0,0,1,.43-.36.47.47,0,0,1,.51.46c0,.09-.27,2.8-1.84,2.8A1.57,1.57,0,0,1,125.24,443.46Zm-8.4-9.87a.38.38,0,0,1-.4-.38.37.37,0,0,1,.4-.38h7.52a.36.36,0,0,1,.38.38.37.37,0,0,1-.38.38Z"/>
          <path d="M134.89,437.91a21.89,21.89,0,0,1-2.4.78.47.47,0,0,1-.1-.92c.81-.24,1.67-.47,2.5-.76l0-3.49h-2.2a.43.43,0,0,1,0-.85h2.2v-3.44a.47.47,0,1,1,.94,0v3.44h1.78a.43.43,0,0,1,0,.85h-1.78v3.15c.61-.23,1.19-.49,1.71-.74l.12,0a.48.48,0,0,1,.42.47c0,.29-.27.45-2.25,1.23v2.66c0,.29,0,1.55,0,2.2v0c0,1-.54,1.71-1.91,1.71-.69,0-1.44-.06-1.44-.58a.45.45,0,0,1,.43-.49H133a5.79,5.79,0,0,0,.94.11c.55,0,1-.18,1-.85Zm3.38-2.73a.41.41,0,0,1-.43-.42.4.4,0,0,1,.43-.4l3.91,0,0-2.28h-3a.4.4,0,0,1-.43-.42.39.39,0,0,1,.43-.39h3v-2a.45.45,0,0,1,.49-.43.46.46,0,0,1,.49.43l0,2h3.24a.38.38,0,0,1,.41.39.4.4,0,0,1-.41.42h-3.24v2.28l4.21,0a.38.38,0,0,1,.4.4.39.39,0,0,1-.4.42Zm5.8,3.09-5.8,0a.42.42,0,0,1-.43-.41.41.41,0,0,1,.43-.42l5.8,0,0-1.24a.43.43,0,0,1,.47-.42.42.42,0,0,1,.47.42v1.24l2.47,0a.38.38,0,0,1,.39.42.39.39,0,0,1-.39.41l-2.47,0,0,2.27.05,1.8v.11c0,.85-.38,1.85-2.34,1.85-1.76,0-1.78-.36-1.78-.61a.45.45,0,0,1,.45-.47h.09a8.59,8.59,0,0,0,1.39.16c.75,0,1.22-.26,1.22-1.13Zm-2.5,3.3A6,6,0,0,0,139.5,440a.33.33,0,0,1-.22-.29.47.47,0,0,1,.47-.43c.41,0,2.63,1.24,2.63,2a.49.49,0,0,1-.45.52A.49.49,0,0,1,141.57,441.57Z"/>
          <path d="M156.2,434.06c-1.11,0-1.69-.11-1.69-.65A.44.44,0,0,1,155,433a.68.68,0,0,1,.19,0,4.41,4.41,0,0,0,1,.09,5.55,5.55,0,0,0,1.31-.15c.5-3.26.54-3.42,1-3.42a.49.49,0,0,1,.5.49.34.34,0,0,1,0,.14c-.14.52-.32,1.46-.5,2.5a7.32,7.32,0,0,0,1.73-.9.65.65,0,0,1,.38-.12.5.5,0,0,1,.5.5.62.62,0,0,1-.4.54,15.33,15.33,0,0,1-2.39,1c-.32,2-.63,4.09-.72,4.84a7.46,7.46,0,0,1,4.63-1.94c2.09,0,3.26,1.2,3.26,2.7a3.88,3.88,0,0,1-1.08,2.52c-1.48,1.66-4.52,2.21-5,2.21s-.58-.23-.58-.46.2-.49.6-.54c2.73-.33,5-1.86,5-3.8,0-1-.72-1.73-2.3-1.73a5.77,5.77,0,0,0-4,1.83c-.27.29-.44.8-.85.9a.3.3,0,0,1-.13,0c-.3,0-.61-.29-.61-.83,0-.28.67-4.82.76-5.47A6.25,6.25,0,0,1,156.2,434.06Z"/>
          <path d="M183.35,443.44c-3.66,0-5.89-2.41-5.89-5.31a7,7,0,0,1,1.84-4.52q.21-.23.21-.27s0,0,0,0a1,1,0,0,0-.29.07c-2.31.76-5.19,1.5-5.35,1.5a.59.59,0,0,1-.65-.56c0-.22.16-.45.52-.52s1.5-.31,2.09-.45c.9-.24,2.52-.6,4.41-1.14a31.18,31.18,0,0,1,5.1-1.08.58.58,0,0,1,.61.58c0,.47-.41.52-1.38.58a8.76,8.76,0,0,0-2.81.54,6,6,0,0,0-3.3,5.13c0,2.25,1.53,4.34,4.76,4.34h.32c.5,0,.76.27.76.55C184.27,442.94,184.23,443.44,183.35,443.44Zm1.71-6.75a6.05,6.05,0,0,0-1.77-1.3.33.33,0,0,1-.23-.3.43.43,0,0,1,.45-.4c.36,0,2.32,1,2.32,1.69a.46.46,0,0,1-.45.47A.39.39,0,0,1,185.06,436.69Zm1.55-1.32a6,6,0,0,0-1.8-1.29.37.37,0,0,1-.26-.33.43.43,0,0,1,.45-.38c.27,0,2.36,1,2.36,1.7a.45.45,0,0,1-.43.47A.43.43,0,0,1,186.61,435.37Z"/>
          <path d="M198.48,438.63a.57.57,0,0,1,.54.54c0,.11-.82,2.76-2.46,2.76-.92,0-3.1-1.14-3.42-6.32-.06-.8-.08-1.17-.08-1.59s0-.95.53-.95.52.36.52,1.4c0,5.21,1.89,6.32,2.43,6.32.22,0,.83-.09,1.49-1.82A.51.51,0,0,1,198.48,438.63Zm6.68-.41a5.81,5.81,0,0,0-2.21-3.71.44.44,0,0,1-.2-.38.45.45,0,0,1,.47-.45c.79,0,3,2.74,3,4.3a.65.65,0,0,1-.61.69A.5.5,0,0,1,205.16,438.22Z"/>
          <path d="M218.09,443.49a.49.49,0,0,1-.54-.48.51.51,0,0,1,.48-.52c3.41-.47,5.21-2.17,5.21-3.61,0-1.26-1.23-2-2.72-2a9.61,9.61,0,0,0-3.48,1l-1.91.91a.71.71,0,0,1-.32.08.5.5,0,0,1-.52-.49.57.57,0,0,1,.39-.52,31.14,31.14,0,0,1,4.14-1.6,6.78,6.78,0,0,1,1.73-.22c2.33,0,3.69,1.31,3.69,2.88a3.63,3.63,0,0,1-1.49,2.72A9.31,9.31,0,0,1,218.09,443.49Z"/>
          <path d="M233.91,443.58a.63.63,0,0,1-.58-.5,11.62,11.62,0,0,1-.43-3.44,25.05,25.05,0,0,1,.16-2.86c.23-2.23.67-4.4.76-5.6a.49.49,0,0,1,.48-.54.52.52,0,0,1,.53.52v.07a64,64,0,0,0-1,8.16c0,.68.05,1.26.18,1.26s.16-.15.27-.38c.79-1.71.83-1.76,1.1-1.76a.42.42,0,0,1,.41.41.54.54,0,0,1-.07.27,24.64,24.64,0,0,0-1.19,2.86,2.61,2.61,0,0,0-.13.85.81.81,0,0,1-.16.54A.38.38,0,0,1,233.91,443.58Zm8.66-3.71-.07-1.33c-.06-.81-.11-2.43-.17-4a13.59,13.59,0,0,1-2.37.23c-1.26,0-1.62-.09-1.62-.56a.48.48,0,0,1,.52-.46H239a4.73,4.73,0,0,0,1.08.09,12.52,12.52,0,0,0,2.24-.23c0-.68,0-1.33,0-1.87s0-.74,0-1a.46.46,0,0,1,.5-.47c.25,0,.52.16.52.41v0c0,.61,0,1.6,0,2.68.54-.12,1-.27,1.49-.41a.53.53,0,0,1,.17,0,.49.49,0,0,1,0,1c-.56.15-1.13.27-1.69.4,0,1.55.07,3.15.13,4.12,0,.47.09,1.07.1,1.66,0,.11,0,.23,0,.34.27.13,2.41,1.23,2.41,1.91a.5.5,0,0,1-.48.52.55.55,0,0,1-.38-.18,7.9,7.9,0,0,0-1.64-1.26l0,.17a3.19,3.19,0,0,1-3,2.05,2.46,2.46,0,0,1-2.61-2c0-1.13,1.37-1.89,2.84-1.89a6.48,6.48,0,0,1,2,.34Zm-2,.63c-1.16,0-2,.53-2,1.12s.67,1.12,1.68,1.12a2.16,2.16,0,0,0,2.16-1.5l.05-.29A5.45,5.45,0,0,0,240.59,440.5Zm5.18-8.31a1.71,1.71,0,1,1,1.71-1.7A1.71,1.71,0,0,1,245.77,432.19Zm0-2.78a1.08,1.08,0,0,0,0,2.15,1.06,1.06,0,0,0,1.06-1.07A1.09,1.09,0,0,0,245.77,429.41Z"/>
          <path d="M257.88,438.63a.57.57,0,0,1,.54.54c0,.11-.82,2.76-2.46,2.76-.92,0-3.1-1.14-3.42-6.32-.06-.8-.08-1.17-.08-1.59s0-.95.53-.95.52.36.52,1.4c0,5.21,1.89,6.32,2.43,6.32.22,0,.83-.09,1.49-1.82A.51.51,0,0,1,257.88,438.63Zm6.68-.41a5.81,5.81,0,0,0-2.21-3.71.44.44,0,0,1-.2-.38.45.45,0,0,1,.47-.45c.79,0,3,2.74,3,4.3a.65.65,0,0,1-.61.69A.5.5,0,0,1,264.56,438.22Z"/>
          <path d="M274.5,434a4.56,4.56,0,0,1-1.68-.29.53.53,0,0,1-.3-.49.4.4,0,0,1,.41-.45.65.65,0,0,1,.23.06,4.77,4.77,0,0,0,1.59.25,6.6,6.6,0,0,0,1.46-.16,6.1,6.1,0,0,0,.12-1.21,7.66,7.66,0,0,0-.07-1v-.08a.45.45,0,0,1,.49-.45c.45,0,.59.31.59,1.17a6.42,6.42,0,0,1-.12,1.3,7.19,7.19,0,0,0,1.47-.72.43.43,0,0,1,.25-.07.52.52,0,0,1,.51.48c0,.29-.27.67-2.49,1.3a69.63,69.63,0,0,1-3.44,9.38.64.64,0,0,1-.57.4.48.48,0,0,1-.49-.49,1,1,0,0,1,.11-.41,57.3,57.3,0,0,0,3.39-8.65A8.22,8.22,0,0,1,274.5,434Zm8,9.31c-2.54,0-4.07-1.14-4.07-1.75a.56.56,0,0,1,.53-.54.5.5,0,0,1,.37.2,3.32,3.32,0,0,0,2.78,1A14.28,14.28,0,0,0,284,442h.11a.51.51,0,0,1,.54.5C284.65,442.83,284.6,443.28,282.47,443.28Zm1.86-7.51a7.26,7.26,0,0,0-2.49-.45,4.44,4.44,0,0,0-1.58.25.53.53,0,0,1-.16,0,.42.42,0,0,1-.42-.43c0-.73,1.86-.76,2.34-.76a8.14,8.14,0,0,1,2.6.43.48.48,0,0,1,.34.47.45.45,0,0,1-.43.48A.64.64,0,0,1,284.33,435.77Zm-.22-3a5.53,5.53,0,0,0-1.74-1.28.33.33,0,0,1-.24-.31.43.43,0,0,1,.45-.38c.4,0,2.29,1,2.29,1.68a.46.46,0,0,1-.43.45A.44.44,0,0,1,284.11,432.73Zm1.48-1.32a6,6,0,0,0-1.78-1.26.35.35,0,0,1-.24-.31.43.43,0,0,1,.45-.39c.25,0,2.34.95,2.34,1.66a.48.48,0,0,1-.47.46A.39.39,0,0,1,285.59,431.41Z"/>
          <path d="M294.42,437.5a.5.5,0,0,1-.54-.45c0-.22.18-.42.6-.42h.45c1.82,0,5-.07,6.77-.07h.43c0-.81,0-1.55,0-1.94a1,1,0,0,0-1.17-1.12c-.39,0-.88,0-1.42,0-1.75,0-4.05.06-5.51.13h0c-.36,0-.54-.22-.54-.43a.51.51,0,0,1,.54-.49c1.49-.07,3.7-.11,5.49-.11.63,0,1.2,0,1.67,0,1.41,0,2,.83,2,1.87,0,.74,0,2.18,0,3.55,0,.68,0,1.35,0,1.89,0,1.3-.94,1.87-2.31,1.94-1.94.11-5.09.13-7,.13a.58.58,0,0,1-.63-.54.49.49,0,0,1,.54-.47h0c.72,0,1.68,0,2.63,0,1.68,0,3.42,0,4.29-.09s1.35-.43,1.38-1.15c0-.51,0-1.43,0-2.34C299.68,437.48,296.15,437.5,294.42,437.5Z"/>
          <g>
            <polygon class="cls-10" points="319.48 440 316.67 440 315.54 428.63 320.61 428.63 319.48 440"/>
            <path class="cls-10" d="M318.07,441.2a2.15,2.15,0,1,1-2.15,2.15A2.16,2.16,0,0,1,318.07,441.2Z"/>
          </g>
          <path d="M330.19,444.57a2.06,2.06,0,0,1-2.07-2.07,2.08,2.08,0,1,1,2.07,2.07Zm0-3.51a1.45,1.45,0,0,0,0,2.9,1.45,1.45,0,1,0,0-2.9Z"/>
        </g>
      </g>
    </g>
  </g>
</svg>
