<svg xmlns="http://www.w3.org/2000/svg" viewBox="0 0 600 475.95">
  <defs>
    <style>
      .cls-1 {
        fill: none;
      }

      .cls-2 {
        font-size: 23px;
        letter-spacing: 0.1em;
      }

      .cls-2, .cls-3, .cls-4, .cls-7 {
        font-family: TsukuARdGothic-Regular-83pv-RKSJ-H, Tsukushi A Round Gothic;
      }

      .cls-3 {
        font-size: 30px;
        letter-spacing: 0.1em;
      }

      .cls-4, .cls-7 {
        font-size: 17px;
      }

      .cls-4 {
        letter-spacing: 0.11em;
      }

      .cls-5 {
        letter-spacing: 0.36em;
      }

      .cls-6 {
        letter-spacing: 0.1em;
      }

      .cls-7 {
        letter-spacing: 0.1em;
      }

      .cls-8 {
        fill: #444;
      }

      .cls-8, .cls-9 {
        stroke: #8a43c6;
        stroke-miterlimit: 10;
      }

      .cls-9 {
        fill: #8a43c6;
      }

      .cls-10 {
        fill: #fff;
      }
    </style>
  </defs>
  <g id="レイヤー_2" data-name="レイヤー 2">
    <g id="レイヤー_1-2" data-name="レイヤー 1">
      <g>
        <rect class="cls-1" width="600" height="475.95"/>
        <text class="cls-2" transform="translate(37.45 128.2)">やっぱ彼氏欲しいな</text>
        <text class="cls-3" transform="translate(37.45 355.17)">お呼びになられましたかな？</text>
        <text class="cls-4" transform="translate(96.94 52.11)">2<tspan class="cls-5" x="11.7" y="0">0</tspan><tspan class="cls-6" x="27.65" y="0">代一般女性</tspan></text>
        <text class="cls-7" transform="translate(92.98 258.43)">ミスリプ</text>
        <line class="cls-8" y1="209.08" x2="600" y2="209.08"/>
        <circle class="cls-9" cx="55.89" cy="46.51" r="22.44"/>
        <circle class="cls-9" cx="56.11" cy="253.12" r="22.44"/>
        <g>
          <path class="cls-10" d="M59.33,261.42a8.81,8.81,0,0,1-2.74-.51,1,1,0,0,1-.66-1,1,1,0,0,1,1-1,1.86,1.86,0,0,1,.34.05,7,7,0,0,0,2.19.46c2.54,0,2.79-3.58,2.79-3.62,0-.31-.07-.43-.49-.43H60c.67.46,1.45,1.31,1.45,1.91a1,1,0,0,1-1,1,.87.87,0,0,1-.79-.51,3.42,3.42,0,0,0-1.06-1.22.71.71,0,0,1-.3-.6.86.86,0,0,1,.23-.57h-2a4.37,4.37,0,0,1,1.68,2.46,1.11,1.11,0,0,1-1.09,1.07.89.89,0,0,1-.85-.65,4.18,4.18,0,0,0-.87-1.56.67.67,0,0,1-.2-.49.92.92,0,0,1,.66-.83H52.4c-1.48,0-2.38-.72-2.41-1.93,0-.82,0-2.5,0-4,0-.63,0-1.23,0-1.73v-.88a2.08,2.08,0,0,1,2.22-2c1.39,0,5.08,0,7.75,0h2.57a.94.94,0,0,1,.69.3.89.89,0,0,1,.23.7.81.81,0,0,1-.23.61.88.88,0,0,1-.67.29h-5v1.1h4.26a.86.86,0,0,1,.87.91.87.87,0,0,1-.87.91H57.57v1h4.26a.91.91,0,0,1,0,1.82H57.57v1H62a2,2,0,0,1,2.31,2.14C64.33,256.89,63.48,261.42,59.33,261.42ZM52,252.5c0,1,.08,1,.67,1h2.92v-1Zm3.59-1.82v-1H52v1Zm0-2.86v-1.1H52.42a.36.36,0,0,0-.39.41c0,.18,0,.42,0,.69ZM49,260.64a1,1,0,0,1-1.07-1,1.05,1.05,0,0,1,.45-.84,4.85,4.85,0,0,0,1.53-2.41,1,1,0,0,1,1-.79,1,1,0,0,1,1,1C51.83,257.72,50.27,260.64,49,260.64Zm4.9-.76a.92.92,0,0,1-1-.95,7.19,7.19,0,0,0-.53-2.19.72.72,0,0,1-.05-.3.89.89,0,0,1,1-.85,1,1,0,0,1,.79.37A7.39,7.39,0,0,1,55,258.8,1.08,1.08,0,0,1,53.86,259.88Z"/>
          <path class="cls-10" d="M48.39,259.65a.6.6,0,0,1,.25-.45,5.26,5.26,0,0,0,1.72-2.7.46.46,0,0,1,.47-.39.48.48,0,0,1,.5.47c0,1-1.46,3.56-2.37,3.56A.54.54,0,0,1,48.39,259.65ZM57.07,252v2h5c1.25,0,1.81.67,1.81,1.64,0,.27-.37,5.24-4.5,5.24a8.38,8.38,0,0,1-2.59-.49.48.48,0,0,1-.31-.47.51.51,0,0,1,.49-.54.86.86,0,0,1,.21,0,7.41,7.41,0,0,0,2.32.47c3,0,3.29-4.05,3.29-4.09,0-.67-.35-1-1-1-2.88,0-6.39,0-9.35,0-1.24,0-1.89-.52-1.91-1.44s0-2.49,0-4c0-1.07,0-2.06,0-2.61a1.58,1.58,0,0,1,1.72-1.52c1.4,0,5.08,0,7.75,0h2.57a.42.42,0,0,1,.43.45.4.4,0,0,1-.41.45H57.07v2.1h4.76a.37.37,0,0,1,.37.41.38.38,0,0,1-.37.41H57.07v2h4.76a.37.37,0,0,1,.37.41.38.38,0,0,1-.37.41Zm-1-2.86H51.49v2h4.59Zm0,2.86H51.49c0,1.68,0,2,1.17,2h3.42Zm0-5.78H52.42a.87.87,0,0,0-.89.89c0,.28,0,.7,0,1.21h4.57Zm-2.67,12.71a7.93,7.93,0,0,0-.56-2.37.25.25,0,0,1,0-.12c0-.21.21-.35.47-.35a.58.58,0,0,1,.41.19,7.31,7.31,0,0,1,.74,2.52.58.58,0,0,1-.59.58A.42.42,0,0,1,53.41,258.93Zm3.72-.5a.39.39,0,0,1-.37-.3,4.75,4.75,0,0,0-1-1.73.24.24,0,0,1-.08-.17c0-.22.28-.39.53-.39.56,0,1.48,1.81,1.48,2A.62.62,0,0,1,57.13,258.43Zm3.33-.63a.41.41,0,0,1-.35-.23,3.83,3.83,0,0,0-1.2-1.4.22.22,0,0,1-.1-.2.47.47,0,0,1,.48-.41c.3,0,1.7,1.13,1.7,1.74A.53.53,0,0,1,60.46,257.8Z"/>
        </g>
        <g>
          <path class="cls-10" d="M53.32,54.75a1,1,0,0,1-1-1,1,1,0,0,1,.85-1,10.92,10.92,0,0,0,4.54-1.87,7.64,7.64,0,0,1-2.22-3.23.91.91,0,0,1,.48-.78l-.88,0a.9.9,0,0,1-.92-.85,8.7,8.7,0,0,1-1.83,1.19v2.68c0,.31,0,1.68,0,2.38a2.16,2.16,0,0,1-2.43,2.38c-.56,0-2,0-2-1.12a1,1,0,0,1,1-1H49a6.48,6.48,0,0,0,.88.11c.35,0,.44,0,.45-.45V48.28c-1.24.63-1.47.71-1.76.71a1,1,0,0,1-1-1,1,1,0,0,1,.64-.93c.78-.33,1.48-.66,2.11-1v-3H48.57a1,1,0,1,1,0-1.92h1.74l0-3.17a1,1,0,0,1,1-1,1,1,0,0,1,1,1v3.2h1.24a1,1,0,0,1,0,1.92H52.32V45l.65-.42a.86.86,0,0,1,.47-.14.65.65,0,0,1,.2,0,1.35,1.35,0,0,1,0-.28.94.94,0,0,1,.51-.83c1.36-.69,1.46-1.59,1.46-3v-.66a1.87,1.87,0,0,1,2-1.94c.39,0,.86,0,1.4,0,2.25,0,3,.36,3,2.64,0,.42,0,.84,0,1.24s0,.7,0,1a.31.31,0,0,0,0,.17.76.76,0,0,0,.37,0c.85,0,1,0,1-1.33a.91.91,0,0,1,1-.89c.39,0,1,.15,1,1.14,0,2.74-1.56,3-3,3-2.07,0-2.35-.93-2.35-1.94,0-.26,0-.6,0-1s0-.9,0-1.35v-.61a.43.43,0,0,0,0-.24,2.55,2.55,0,0,0-.9-.08c-.43,0-.85,0-1.11,0s-.24,0-.24.32c0,2.29-.16,3.77-2.3,5.1h5.79c1.51,0,2,.88,2,1.63a8.8,8.8,0,0,1-2.41,4.21,13.32,13.32,0,0,0,3.94,1.69,1,1,0,0,1,.79,1,1.06,1.06,0,0,1-1.09,1.07,12.88,12.88,0,0,1-5.11-2.42A11.75,11.75,0,0,1,53.32,54.75Zm3.76-7.88a.88.88,0,0,1,.26.28,9.3,9.3,0,0,0,1.8,2.45,9.06,9.06,0,0,0,1.77-2.73Zm-2.66-1.6.1-.09-.13,0Z"/>
          <path class="cls-10" d="M50.81,47.46c-1.77.91-2,1-2.26,1a.49.49,0,0,1-.49-.47.5.5,0,0,1,.34-.47c.85-.37,1.65-.74,2.41-1.13V42.63H48.57a.46.46,0,1,1,0-.92h2.24l0-3.68a.51.51,0,0,1,.53-.52.48.48,0,0,1,.5.5v3.7h1.74a.43.43,0,0,1,.44.45.43.43,0,0,1-.44.47H51.82v3.25c.49-.27,1-.59,1.42-.9a.37.37,0,0,1,.2,0,.51.51,0,0,1,.49.46c0,.28-.2.49-2.11,1.54v3c0,.31,0,1.69,0,2.39v.06c0,1.07-.48,1.81-1.93,1.81-.66,0-1.55,0-1.55-.62a.48.48,0,0,1,.46-.51h.08a6.12,6.12,0,0,0,1,.12c.56,0,.93-.21,1-.93Zm2.51,6.79a.53.53,0,0,1-.52-.54.47.47,0,0,1,.44-.47,11.34,11.34,0,0,0,5.22-2.32A8.81,8.81,0,0,1,56,47.65c0-.25.31-.45.56-.45a.39.39,0,0,1,.37.2,10,10,0,0,0,2.26,2.9,8.49,8.49,0,0,0,2.28-3.53c0-.23-.16-.4-.56-.4H58.17c-1.13,0-2.34,0-3.12,0a.44.44,0,0,1,0-.88h6c1,0,1.54.47,1.54,1.13a9,9,0,0,1-2.69,4.28,13.4,13.4,0,0,0,4.6,2.1.54.54,0,0,1,.41.51.56.56,0,0,1-.59.57,13.18,13.18,0,0,1-5.12-2.56A11.66,11.66,0,0,1,53.32,54.25Zm8.88-10c-1.71,0-1.85-.64-1.85-1.44,0-.58,0-1.48,0-2.31v-.61c0-.82-.51-.82-1.44-.82-.45,0-.88,0-1.15,0a.71.71,0,0,0-.7.82c0,2.14-.12,3.47-2.06,4.67a.7.7,0,0,1-.35.12.55.55,0,0,1-.57-.52.43.43,0,0,1,.25-.39c1.58-.8,1.72-1.91,1.72-3.43v-.66a1.37,1.37,0,0,1,1.48-1.44c.39,0,.85,0,1.38,0,2.06,0,2.45.23,2.45,2.14,0,.8,0,1.6,0,2.26s.35.72.9.72c1.24,0,1.46-.35,1.46-1.83a.42.42,0,0,1,.47-.39c.54,0,.54.39.54.64C64.73,44.05,63.62,44.22,62.2,44.22Z"/>
        </g>
        <line class="cls-9" x1="96.94" y1="58.11" x2="216.18" y2="58.11"/>
        <line class="cls-9" x1="96.94" y1="265.38" x2="165.69" y2="265.38"/>
      </g>
    </g>
  </g>
</svg>
