<svg xmlns="http://www.w3.org/2000/svg" width="1345.441" height="889.552" viewBox="0 0 1345.441 889.552">
  <g id="グループ_174" data-name="グループ 174" transform="translate(0 0)" opacity="0.099">
    <path id="パス_91" data-name="パス 91" d="M-5349.42-102.175C-5552.4-206.931-5797.9-212.319-6022.141-125.982V583.5c215.265-57.053,469.745-61.9,672.721,33.331,202.974-95.233,457.454-90.383,672.72-33.331V-125.982C-4900.942-212.319-5146.446-206.931-5349.42-102.175Z" transform="translate(6022.141 272.717)" fill="#662d91"/>
    <g id="グループ_106" data-name="グループ 106" transform="translate(48.374 0)">
      <path id="パス_92" data-name="パス 92" d="M-5391.666-132.25c-182.785-100.168-403.867-105.321-605.8-22.765V523.4c193.85-54.552,423.011-59.191,605.8,31.872,182.782-91.063,411.944-86.424,605.793-31.872V-155.015C-4987.8-237.571-5208.883-232.418-5391.666-132.25Z" transform="translate(6016.013 228.738)" fill="#fff"/>
      <path id="パス_93" data-name="パス 93" d="M-5379.958,584.012l-9.2-4.583c-160.434-79.93-375.807-91.055-590.892-30.523l-24.25,6.822V-155.182l10.678-4.364c207.479-84.817,430.433-77.984,613.668,18.414,183.245-96.393,406.208-103.234,613.672-18.414l10.675,4.364V555.728l-24.25-6.822c-215.091-60.532-430.453-49.409-590.892,30.523Zm-329.424-105.988c120.459,0,233.628,23.122,329.424,68.829,162.253-77.411,374.388-90.039,587.245-35.261V-134.531c-196.486-77-406.31-67.658-577.372,26.087l-9.873,5.409-9.874-5.409c-171.05-93.74-380.87-103.082-577.369-26.087V511.592C-5880.024,489.158-5792.934,478.024-5709.383,478.024Z" transform="translate(6004.304 218.625)" fill="#662d91"/>
    </g>
    <g id="グループ_107" data-name="グループ 107" transform="translate(654.169 96.488)">
      <line id="線_2" data-name="線 2" y2="687.522" transform="translate(18.552)" fill="#662d91"/>
      <rect id="長方形_2" data-name="長方形 2" width="37.102" height="687.522" transform="translate(0 0)" fill="#662d91"/>
    </g>
  </g>
</svg>
