<svg xmlns="http://www.w3.org/2000/svg" width="241.13" height="101.018" viewBox="0 0 241.13 101.018">
  <g id="グループ_175" data-name="グループ 175" transform="translate(0)">
    <g id="グループ_165" data-name="グループ 165" transform="translate(0 0)">
      <path id="パス_142" data-name="パス 142" d="M-6169.937-572.659l2.462.522v-10.878c-12.565-2.573-16.534-6.867-16.534-15.114,0-7.053,5.223-13.3,16.534-14.275v-9.706c-19.6,1.082-27.814,12.37-27.814,23.981C-6195.289-582.893-6187.381-576.265-6169.937-572.659Z" transform="translate(6294.075 629.187)" fill="#bf00bf"/>
      <path id="パス_143" data-name="パス 143" d="M-6158.82-619.933c9.643,1.325,13.6,7.043,15.228,12.854a5.17,5.17,0,0,0,5.118,3.372,10.1,10.1,0,0,0,1.976-.233,4.96,4.96,0,0,0,4.306-4.652,4.7,4.7,0,0,0-.35-1.745c-2.368-7.752-8.734-17.89-26.277-19.352Z" transform="translate(6291.666 629.688)" fill="#12b100"/>
      <path id="パス_144" data-name="パス 144" d="M-6167.64-533.423c-13.371-1.363-16.722-9.219-18.627-16.307a4.993,4.993,0,0,0-5.117-3.488,11.518,11.518,0,0,0-1.977.232c-2.443.582-4.419,2.326-4.419,4.885a8.08,8.08,0,0,0,.231,1.511c2.611,8.814,7.567,21.391,29.908,22.975Z" transform="translate(6294.241 624.633)" fill="#bf00bf"/>
      <path id="パス_145" data-name="パス 145" d="M-6157.2-585.95l-1.621-.329v10.95c13.184,2.791,18.252,6.993,18.252,16.36,0,9.149-6.924,15.265-18.252,16.244v9.852c19.119-.934,29.65-11.868,29.65-26.211C-6129.17-575.949-6139.057-582.112-6157.2-585.95Z" transform="translate(6291.666 626.818)" fill="#12b100"/>
      <path id="パス_146" data-name="パス 146" d="M-6277.138-578.856c-.739,1.8-1.69,2.431-3.381,2.431-1.638,0-2.643-.634-3.382-2.483l-7.976-20.022c-1.532-3.8-4.068-11.463-5.071-14.738.158,3.433.791,12.995.791,20.444v14.686c0,1.426-1,2.113-2.481,2.113-1.428,0-2.431-.687-2.431-2.113v-36.556a3.07,3.07,0,0,1,3.381-3.116,3.923,3.923,0,0,1,4.227,2.8l9.72,24.406a79.4,79.4,0,0,1,3.275,9.825,84.335,84.335,0,0,1,3.328-9.931l9.561-24.194c.846-2.113,2.061-2.905,4.386-2.905a3.054,3.054,0,0,1,3.328,3.116v36.556c0,1.426-1.058,2.113-2.431,2.113-1.427,0-2.482-.687-2.482-2.113v-14.633c0-7.5.634-16.958.846-20.549-1,3.381-3.593,10.935-5.019,14.528Z" transform="translate(6301.068 628.929)" fill="#bf00bf"/>
      <path id="パス_147" data-name="パス 147" d="M-6247.794-616.045c0-1.479,1.057-2.166,2.482-2.166,1.479,0,2.589.687,2.589,2.166v37.454c0,1.427-1.109,2.167-2.589,2.167-1.426,0-2.482-.74-2.482-2.167Z" transform="translate(6297.546 628.929)" fill="#bf00bf"/>
      <path id="パス_148" data-name="パス 148" d="M-6216.717-600.072c8.241,1.743,12.731,4.542,12.731,12.2,0,6.815-5.23,11.939-14.687,11.939-12.044,0-14.527-6.233-15.795-10.513a3.64,3.64,0,0,1-.106-.686,2.362,2.362,0,0,1,2.007-2.219,5.277,5.277,0,0,1,.9-.105,2.267,2.267,0,0,1,2.323,1.585c.951,3.539,2.7,7.5,10.408,7.5,6.021,0,9.771-2.906,9.771-7.449,0-4.332-2.377-6.234-8.61-7.5l-4.225-.9c-7.927-1.638-11.518-4.649-11.518-11.569,0-5.546,4.121-10.935,14.053-10.935,9.508,0,12.783,5.071,13.944,8.875a2.085,2.085,0,0,1,.16.792,2.253,2.253,0,0,1-1.955,2.113,4.635,4.635,0,0,1-.9.106,2.345,2.345,0,0,1-2.324-1.532c-.846-3.012-3.065-5.969-8.928-5.969-6.128,0-8.929,3.064-8.929,6.55,0,3.8,1.85,5.757,7.766,6.92Z" transform="translate(6296.672 628.963)" fill="#bf00bf"/>
      <path id="パス_149" data-name="パス 149" d="M-6091.083-577.384c0-1.479,1.058-2.166,2.537-2.166s2.481.686,2.481,2.166v36.292c0,2.06-1.056,3.328-3.17,3.328-2.271,0-3.117-.9-4.437-3.011l-14-22.663a119.987,119.987,0,0,1-5.969-11.2c.315,3.381.739,10.724.739,18.489v16.217c0,1.427-1.057,2.167-2.484,2.167-1.479,0-2.534-.74-2.534-2.167v-36.45a3.013,3.013,0,0,1,3.327-3.17c2.377,0,3.275.951,4.28,2.535L-6097-555.408c2.431,3.962,5.389,9.614,6.762,12.572-.315-3.274-.845-10.935-.845-18.542Z" transform="translate(6288.96 626.373)" fill="#12b100"/>
      <path id="パス_150" data-name="パス 150" d="M-6057.766-561.014c8.24,1.743,12.73,4.542,12.73,12.2,0,6.815-5.23,11.939-14.687,11.939-12.044,0-14.526-6.233-15.795-10.512a3.725,3.725,0,0,1-.1-.687,2.36,2.36,0,0,1,2.008-2.219,5.23,5.23,0,0,1,.9-.1,2.269,2.269,0,0,1,2.326,1.584c.95,3.539,2.693,7.5,10.406,7.5,6.021,0,9.773-2.906,9.773-7.449,0-4.332-2.378-6.234-8.611-7.5l-4.227-.9c-7.924-1.638-11.516-4.649-11.516-11.569,0-5.546,4.12-10.935,14.052-10.935,9.509,0,12.783,5.071,13.946,8.875a2.119,2.119,0,0,1,.157.792,2.251,2.251,0,0,1-1.954,2.113,4.608,4.608,0,0,1-.9.106,2.347,2.347,0,0,1-2.323-1.532c-.846-3.012-3.064-5.969-8.928-5.969-6.127,0-8.928,3.064-8.928,6.55,0,3.8,1.849,5.757,7.766,6.92Z" transform="translate(6286.164 626.381)" fill="#12b100"/>
    </g>
    <rect id="長方形_3" data-name="長方形 3" width="241.13" height="101.018" transform="translate(0 0)" fill="none"/>
  </g>
</svg>
