<svg id="グループ_247" data-name="グループ 247" xmlns="http://www.w3.org/2000/svg" width="53.182" height="81.358" viewBox="0 0 53.182 81.358">
  <path id="パス_169" data-name="パス 169" d="M670.486,345.837l1.982.421V337.5c-10.119-2.072-13.315-5.53-13.315-12.173,0-5.68,4.205-10.715,13.315-11.5V306.01c-15.788.872-22.4,9.963-22.4,19.314C650.067,337.594,656.436,342.933,670.486,345.837Z" transform="translate(-648.194 -300.31)" fill="#8a43c6"/>
  <path id="パス_170" data-name="パス 170" d="M728.008,297.672c7.765,1.067,10.95,5.673,12.264,10.352a4.163,4.163,0,0,0,4.122,2.717,8.174,8.174,0,0,0,1.591-.188,3.994,3.994,0,0,0,3.466-3.746,3.766,3.766,0,0,0-.281-1.4c-1.908-6.244-7.035-14.408-21.163-15.586Z" transform="translate(-698.705 -289.815)" fill="#4dc643"/>
  <path id="パス_171" data-name="パス 171" d="M669.018,469.184c-10.769-1.1-13.467-7.424-15-13.132a4.021,4.021,0,0,0-4.122-2.81,9.256,9.256,0,0,0-1.592.187c-1.967.468-3.559,1.873-3.559,3.934a6.479,6.479,0,0,0,.187,1.217c2.1,7.1,6.095,17.228,24.087,18.5Z" transform="translate(-644.744 -395.726)" fill="#8a43c6"/>
  <path id="パス_172" data-name="パス 172" d="M729.313,382.852l-1.3-.264v8.818c10.617,2.249,14.7,5.633,14.7,13.176,0,7.368-5.577,12.294-14.7,13.083V425.6c15.4-.752,23.879-9.558,23.879-21.11C751.887,390.907,743.924,385.943,729.313,382.852Z" transform="translate(-698.705 -349.938)" fill="#4dc643"/>
</svg>
