<svg id="グループ_238" data-name="グループ 238" xmlns="http://www.w3.org/2000/svg" width="1013.964" height="565.393" viewBox="0 0 1013.964 565.393">
  <path id="パス_169" data-name="パス 169" d="M756.676,513.955l10.347,2.2V470.41c-52.834-10.818-69.519-28.875-69.519-63.558,0-29.656,21.956-55.947,69.519-60.028V306.01c-82.431,4.552-116.956,52.017-116.956,100.841C650.067,470.919,683.322,498.792,756.676,513.955Z" transform="translate(-234.665 -276.251)" fill="#8a43c6"/>
  <path id="パス_170" data-name="パス 170" d="M728.008,330.836c40.543,5.573,57.175,29.621,64.032,54.051,3.912,10.27,12.717,14.184,21.521,14.184a42.736,42.736,0,0,0,8.307-.981c9.781-1.953,18.1-9.289,18.1-19.56a19.666,19.666,0,0,0-1.464-7.335c-9.963-32.6-36.73-75.228-110.494-81.378Z" transform="translate(-169.388 -289.815)" fill="#4dc643"/>
  <path id="パス_171" data-name="パス 171" d="M771.482,536.48c-56.225-5.728-70.313-38.764-78.323-68.567-2.934-10.274-12.227-14.671-21.519-14.671a48.351,48.351,0,0,0-8.311.976c-10.27,2.446-18.585,9.781-18.585,20.542a33.844,33.844,0,0,0,.976,6.356c10.983,37.061,31.822,89.949,125.762,96.613Z" transform="translate(-239.124 -152.941)" fill="#8a43c6"/>
  <path id="パス_172" data-name="パス 172" d="M734.82,383.968l-6.812-1.38v46.041c55.432,11.74,76.75,29.409,76.75,68.8,0,38.472-29.119,64.192-76.75,68.308v41.423c80.392-3.925,124.676-49.905,124.676-110.22C852.684,426.023,811.112,400.107,734.82,383.968Z" transform="translate(-169.388 -212.115)" fill="#4dc643"/>
  <path id="パス_173" data-name="パス 173" d="M524.631,479.836c-3.111,7.552-7.107,10.219-14.217,10.219-6.889,0-11.108-2.666-14.217-10.441l-33.542-84.19c-6.442-16-17.106-48.206-21.326-61.978.665,14.439,3.331,54.646,3.331,85.969V481.17c0,6-4.221,8.885-10.439,8.885-6,0-10.22-2.889-10.22-8.885V327.448c0-8,5.777-13.105,14.217-13.105,9.776,0,14.439,3.554,17.771,11.773l40.874,102.629c4.443,10.884,11.775,31.765,13.772,41.315,2.221-9.774,8.888-29.1,14-41.761l40.205-101.738c3.555-8.886,8.664-12.218,18.439-12.218,8.217,0,13.993,5.108,13.993,13.105V481.17c0,6-4.441,8.885-10.217,8.885-6,0-10.441-2.889-10.441-8.885V419.635c0-31.543,2.666-71.305,3.554-86.411-4.221,14.217-15.1,45.982-21.1,61.088Z" transform="translate(-424.001 -269.272)" fill="#8a43c6"/>
  <path id="パス_174" data-name="パス 174" d="M537.856,323.45c0-6.22,4.443-9.107,10.441-9.107,6.22,0,10.885,2.887,10.885,9.107v157.5c0,6-4.665,9.109-10.885,9.109-6,0-10.441-3.109-10.441-9.109Z" transform="translate(-328.645 -269.272)" fill="#8a43c6"/>
  <path id="パス_175" data-name="パス 175" d="M641.2,391.67c34.654,7.332,53.533,19.1,53.533,51.315,0,28.654-21.992,50.2-61.754,50.2-50.646,0-61.087-26.212-66.417-44.207a15.125,15.125,0,0,1-.445-2.887c0-4.888,3.774-8.219,8.44-9.329a21.891,21.891,0,0,1,3.776-.445c4.221,0,8.444,2,9.776,6.665,4,14.882,11.33,31.543,43.761,31.543,25.323,0,41.094-12.218,41.094-31.322,0-18.215-9.994-26.212-36.207-31.543l-17.771-3.776c-33.322-6.887-48.428-19.548-48.428-48.648,0-23.324,17.328-45.982,59.089-45.982,39.986,0,53.757,21.324,58.645,37.318a8.908,8.908,0,0,1,.669,3.331c0,4.667-3.778,8-8.221,8.886a19.544,19.544,0,0,1-3.778.445c-4,0-7.995-1.777-9.772-6.442-3.555-12.662-12.885-25.1-37.542-25.1-25.768,0-37.543,12.883-37.543,27.544,0,15.994,7.776,24.213,32.655,29.1Z" transform="translate(-304.979 -270.183)" fill="#8a43c6"/>
  <path id="パス_176" data-name="パス 176" d="M928.269,406.075c0-6.22,4.443-9.107,10.663-9.107s10.437,2.887,10.437,9.107v152.61c0,8.662-4.441,13.995-13.328,13.995-9.551,0-13.105-3.778-18.658-12.662l-58.867-95.3c-8.885-14.217-19.992-35.986-25.1-47.094,1.334,14.217,3.111,45.095,3.111,77.749v68.2c0,6-4.443,9.109-10.441,9.109-6.22,0-10.663-3.111-10.663-9.109V410.3c0-8.219,5.333-13.328,13.993-13.328,10,0,13.776,4,18,10.661l55.976,90.855c10.22,16.661,22.66,40.431,28.434,52.869-1.33-13.772-3.552-45.982-3.552-77.97Z" transform="translate(-96.177 -200.072)" fill="#4dc643"/>
  <path id="パス_177" data-name="パス 177" d="M980.9,475.143c34.654,7.332,53.538,19.1,53.538,51.315,0,28.654-22,50.2-61.757,50.2-50.648,0-61.089-26.212-66.419-44.207a15.4,15.4,0,0,1-.443-2.887c0-4.888,3.774-8.219,8.442-9.331a22.024,22.024,0,0,1,3.774-.443c4.221,0,8.442,2,9.776,6.665C931.8,541.34,939.135,558,971.567,558c25.323,0,41.1-12.22,41.1-31.323,0-18.215-10-26.212-36.21-31.543l-17.771-3.776c-33.32-6.887-48.426-19.548-48.426-48.648,0-23.326,17.326-45.984,59.089-45.984,39.983,0,53.755,21.326,58.645,37.32a8.936,8.936,0,0,1,.665,3.331c0,4.667-3.778,8-8.219,8.886a19.536,19.536,0,0,1-3.778.445c-3.995,0-8-1.779-9.772-6.442-3.556-12.662-12.885-25.1-37.541-25.1-25.769,0-37.542,12.885-37.542,27.546,0,15.994,7.775,24.211,32.655,29.1Z" transform="translate(-20.47 -200.274)" fill="#4dc643"/>
  <g id="グループ_237" data-name="グループ 237" transform="translate(327.232 483.487)">
    <path id="パス_178" data-name="パス 178" d="M636.293,627.687c-8.065-7.352-21.65-12.763-32.269-16.543a2.9,2.9,0,0,1-1.94-2.756,2.651,2.651,0,0,1,2.859-2.758c1.633,0,24.509,7.354,35.641,16.646a3.751,3.751,0,0,1,1.43,2.962,3.415,3.415,0,0,1-3.166,3.574A3.757,3.757,0,0,1,636.293,627.687Zm-10.518-34.823c-5.31-3.37-12.969-5.514-18.586-6.637-1.838-.307-2.655-1.431-2.655-2.554a3.131,3.131,0,0,1,3.37-2.859c2.962,0,15.931,3.778,20.937,6.536a3.545,3.545,0,0,1,2.041,3.063,3.094,3.094,0,0,1-3.065,3.166A3.545,3.545,0,0,1,625.775,592.865Zm6.74-22.774c-7.251-3.778-17.872-6.536-25.121-7.455a2.461,2.461,0,0,1-2.451-2.451,3.065,3.065,0,0,1,3.37-2.859c.1,0,15.828,1.839,26.552,6.944a3.56,3.56,0,0,1,2.245,3.166,3.059,3.059,0,0,1-2.859,3.166A4.149,4.149,0,0,1,632.515,570.09Z" transform="translate(-602.084 -549.257)" fill="#8a43c6"/>
    <path id="パス_179" data-name="パス 179" d="M736.476,619.01a2.847,2.847,0,0,1-2.96-2.655c0-1.123.715-2.247,2.451-2.962,20.935-8.272,43.5-31.047,43.5-34.108,0-.717-.715-1.022-2.245-1.022-1.328,0-15.624.408-28.8,1.022h-.2c-1.941,0-2.962-1.227-2.962-2.451a2.843,2.843,0,0,1,2.962-2.655c7.352-.511,27.675-.921,30.534-.921,4.8,0,7.251,2.144,7.251,5.005,0,2.348-1.43,5.208-11.538,15.012a10.185,10.185,0,0,1,.919,5.107v1.939c-.206,6.027-.513,15.523-.513,24.1,0,2.348,0,4.7.1,6.843,0,1.43-.509,3.576-3.267,3.576a2.728,2.728,0,0,1-2.859-2.861v-.2c.406-8.681,1.123-19.608,1.123-27.879v-2.655c0-1.43,0-2.657-.1-3.78C753.633,611.862,738.417,619.01,736.476,619.01Zm41.872-55.657c-3.984-2.758-12.868-5.413-18.383-5.72a1.953,1.953,0,0,1-1.94-2.042,2.6,2.6,0,0,1,2.758-2.657c2.143,0,21.547,2.859,21.547,8.069a2.882,2.882,0,0,1-2.552,2.859A2.718,2.718,0,0,1,778.348,563.353Zm24.816,49.632a53.907,53.907,0,0,0-19.1-11.949,1.927,1.927,0,0,1-1.429-1.94,2.5,2.5,0,0,1,2.552-2.449c2.554,0,22.673,9.292,22.673,14.193A3.015,3.015,0,0,1,805,613.8,2.5,2.5,0,0,1,803.164,612.984Z" transform="translate(-492.007 -552.934)" fill="#4dc643"/>
    <path id="パス_180" data-name="パス 180" d="M812.338,568.36a2.521,2.521,0,0,1-2.552-2.552,2.733,2.733,0,0,1,2.756-2.756c7.558-.307,23.182-.614,33.7-.614,6.025,0,8.885,3.063,8.885,6.536a7.513,7.513,0,0,1-1.022,3.78,128.334,128.334,0,0,1-12.458,18.587c8.781,5.31,29.106,19.1,29.106,24.406a3.156,3.156,0,0,1-5.72,2.043c-5.412-6.74-17.769-17.26-26.859-22.366-15.419,17.363-34.209,25.226-36.559,25.226a2.859,2.859,0,0,1-2.96-2.756c0-1.125.715-2.247,2.552-2.962,30.126-11.438,47.079-41.361,47.079-45.036,0-2.146-2.144-2.146-5.413-2.146-7.455,0-21.955.41-30.431.612Z" transform="translate(-437.452 -544.974)" fill="#4dc643"/>
    <path id="パス_181" data-name="パス 181" d="M697.946,579.244c-7.8,8.249-18.362,16.661-31.4,21.611-1.839.715-2.554,1.838-2.554,2.962a2.859,2.859,0,0,0,2.96,2.756c2.075,0,16.934-6.121,30.993-19.478Z" transform="translate(-550.234 -530.899)" fill="#bf00bf"/>
    <path id="パス_182" data-name="パス 182" d="M672.6,568.306h.1c5.4-.129,13.252-.342,20.167-.479V562.5c-7.7.116-15.411.3-20.064.494a2.734,2.734,0,0,0-2.758,2.756A2.521,2.521,0,0,0,672.6,568.306Z" transform="translate(-545.161 -544.92)" fill="#8a43c6"/>
    <path id="パス_183" data-name="パス 183" d="M688.8,591.34a128.463,128.463,0,0,0,12.458-18.587,7.53,7.53,0,0,0,1.022-3.78c0-3.473-2.859-6.536-8.884-6.536-2.352,0-4.965.017-7.679.044v5.3c1.589-.02,3.054-.033,4.307-.033,3.271,0,5.413,0,5.413,2.146,0,1.634-3.355,8.454-9.721,16.53v9.226c9.05,5.184,21.131,15.492,26.47,22.138a3.155,3.155,0,0,0,5.718-2.043C717.9,610.438,697.579,596.651,688.8,591.34Z" transform="translate(-532.044 -544.974)" fill="#4dc643"/>
  </g>
</svg>
